<?xml version="1.0" encoding="UTF-8" standalone="no"?>
<svg width="12px" height="24px" viewBox="0 0 12 24" version="1.1" xmlns="http://www.w3.org/2000/svg" xmlns:xlink="http://www.w3.org/1999/xlink">
    <!-- Generator: Sketch 46.2 (44496) - http://www.bohemiancoding.com/sketch -->
    <title>Shape</title>
    <desc>Created with Sketch.</desc>
    <defs></defs>
    <g id="Welcome" stroke="none" stroke-width="1" fill="none" fill-rule="evenodd" opacity="0.511951959">
        <g id="ABOUT" transform="translate(-1047.000000, -2345.000000)" fill-rule="nonzero" fill="#FFFFFF">
            <g id="SUPPORTS" transform="translate(291.000000, 2232.000000)">
                <g id="SOCIALS" transform="translate(479.000000, 61.000000)">
                    <path d="M286.878769,56 L288.538462,56 C288.792308,56 289,55.775 289,55.5 L289,52.5 C289,52.225 288.792308,52 288.538462,52 L285.819077,52 C283.088615,52 280.692308,54.357 280.692308,57.045 L280.692308,61 L277.461538,61 C277.206638,61 277,61.2238576 277,61.5 L277,65.5 C277,65.7761424 277.206638,66 277.461538,66 L280.692308,66 L280.692308,75.5 C280.692308,75.7761424 280.898946,76 281.153846,76 L283.923077,76 C284.176923,76 284.384615,75.775 284.384615,75.5 L284.384615,66 L287.407692,66 C287.614462,66 287.795385,65.854 287.850769,65.639 L288.910462,61.639 C288.950046,61.4884875 288.922293,61.3265787 288.83547,61.2014949 C288.748647,61.076411 288.61277,61.0025834 288.468308,61.002 L284.384615,61.002 L284.384615,57.907 C284.384615,57.004 285.871692,56 286.878769,56 Z" id="Shape"></path>
                </g>
            </g>
        </g>
    </g>
</svg>