<?xml version="1.0" encoding="UTF-8" standalone="no"?>
<svg width="113px" height="78px" viewBox="0 0 113 78" version="1.1" xmlns="http://www.w3.org/2000/svg" xmlns:xlink="http://www.w3.org/1999/xlink">
    <!-- Generator: Sketch 46.2 (44496) - http://www.bohemiancoding.com/sketch -->
    <title>Shape</title>
    <desc>Created with Sketch.</desc>
    <defs></defs>
    <g id="Welcome" stroke="none" stroke-width="1" fill="none" fill-rule="evenodd" opacity="0.511951959">
        <g id="ABOUT" transform="translate(-854.000000, -2293.000000)" fill-rule="nonzero" fill="#FFFFFF">
            <g id="SUPPORTS" transform="translate(291.000000, 2232.000000)">
                <g id="SOCIALS" transform="translate(479.000000, 61.000000)">
                    <g id="noun_29011_cc" transform="translate(84.000000, 0.000000)">
                        <path d="M113,56.8474576 L113,0 L15.9529412,0 L15.9529412,30.4067797 L0,30.4067797 L0,72.7118644 L25.2588235,72.7118644 L25.2588235,78 L41.2117647,78 L41.2117647,72.7118644 L87.7411765,72.7118644 L87.7411765,70.0677966 L70.4588235,70.0677966 L70.4588235,56.8474576 L113,56.8474576 Z M15.2151176,71.0500678 C14.5716824,71.0500678 14.0505529,70.5318305 14.0505529,69.8919661 C14.0505529,69.2521017 14.5716824,68.7338644 15.2151176,68.7338644 C15.8585529,68.7338644 16.3796824,69.2521017 16.3796824,69.8919661 C16.3796824,70.5305085 15.8585529,71.0500678 15.2151176,71.0500678 Z M1.32941176,67.4237288 L1.32941176,31.7288136 L16.2467412,31.7288136 L19.0943412,31.7288136 L29.2470588,31.7288136 L29.2470588,48.9152542 L25.2588235,48.9152542 L25.2588235,53.8014915 L25.2588235,56.3754915 L25.2588235,67.4237288 L1.32941176,67.4237288 Z M33.6567176,76.5841017 C33.1914235,76.5841017 32.8152,76.2099661 32.8152,75.7472542 C32.8152,75.2845424 33.1914235,74.9104068 33.6567176,74.9104068 C34.1220118,74.9104068 34.4982353,75.2845424 34.4982353,75.7472542 C34.4982353,76.2099661 34.1206824,76.5841017 33.6567176,76.5841017 Z M39.8823529,74.0338983 L26.5882353,74.0338983 L26.5882353,72.852 L26.5882353,66.9306102 L26.5882353,56.3768136 L26.5882353,53.8028136 L26.5882353,50.2372881 L28.6727529,50.2372881 L29.9676,50.2372881 L39.8823529,50.2372881 L39.8823529,53.8014915 L39.8823529,56.3754915 L39.8823529,74.0338983 Z M57.1647059,70.0677966 L41.2117647,70.0677966 L41.2117647,56.8474576 L57.1647059,56.8474576 L57.1647059,70.0677966 Z M41.2117647,54.2033898 L41.2117647,48.9152542 L30.5764706,48.9152542 L30.5764706,30.4067797 L18.6117647,30.4067797 L18.6117647,2.6440678 L110.341176,2.6440678 L110.341176,54.2033898 L41.2117647,54.2033898 Z" id="Shape"></path>
                    </g>
                </g>
            </g>
        </g>
    </g>
</svg>