<?xml version="1.0" encoding="UTF-8" standalone="no"?>
<svg width="17px" height="16px" viewBox="0 0 17 16" version="1.1" xmlns="http://www.w3.org/2000/svg" xmlns:xlink="http://www.w3.org/1999/xlink">
    <!-- Generator: Sketch 46.2 (44496) - http://www.bohemiancoding.com/sketch -->
    <title>Shape</title>
    <desc>Created with Sketch.</desc>
    <defs></defs>
    <g id="Welcome" stroke="none" stroke-width="1" fill="none" fill-rule="evenodd" opacity="0.511951959">
        <g id="ABOUT" transform="translate(-1074.000000, -2353.000000)" fill-rule="nonzero" fill="#FFFFFF">
            <g id="SUPPORTS" transform="translate(291.000000, 2232.000000)">
                <g id="SOCIALS" transform="translate(479.000000, 61.000000)">
                    <path d="M317.524774,71.0971397 C315.213505,74.3657132 313.257812,76 311.657695,76 C310.667151,76 309.828998,75.0028082 309.143235,73.0084245 L307.771705,67.5238668 C307.263733,65.5294831 306.717661,64.5322913 306.133488,64.5322913 C306.006498,64.5322913 305.562021,64.82314 304.800058,65.4048374 L304,64.2829946 C304.838153,63.4796966 305.663607,62.6764039 306.47636,61.8731166 C307.593895,60.8205273 308.432048,60.2665312 308.99082,60.2111284 C310.311546,60.0726321 311.124299,61.0559732 311.42908,63.1611518 C311.759262,65.4325388 311.987847,66.8452304 312.114838,67.3992264 C312.49582,69.2828152 312.914896,70.2246095 313.372068,70.2246095 C313.72765,70.2246095 314.261022,69.615216 314.972184,68.3964289 C315.683347,67.1776419 316.064329,66.2496982 316.115129,65.612598 C316.216719,64.5600087 315.835738,64.033714 314.972184,64.033714 C314.565803,64.033714 314.146726,64.1306636 313.714954,64.3245627 C314.553108,61.3606833 316.153219,59.9202957 318.515289,60.0033999 C320.267796,60.0588027 321.093249,61.2914458 320.991649,63.7013292 C320.915478,65.5017817 319.759843,67.9670625 317.524774,71.0971397 Z" id="Shape"></path>
                </g>
            </g>
        </g>
    </g>
</svg>