<?xml version="1.0" encoding="UTF-8" standalone="no"?>
<svg width="64px" height="49px" viewBox="0 0 64 49" version="1.1" xmlns="http://www.w3.org/2000/svg" xmlns:xlink="http://www.w3.org/1999/xlink">
    <!-- Generator: Sketch 46.2 (44496) - http://www.bohemiancoding.com/sketch -->
    <title>Shape</title>
    <desc>Created with Sketch.</desc>
    <defs></defs>
    <g id="Welcome" stroke="none" stroke-width="1" fill="none" fill-rule="evenodd" opacity="0.511951959">
        <g id="ABOUT" transform="translate(-770.000000, -2321.000000)" fill-rule="nonzero" fill="#FFFFFF">
            <g id="SUPPORTS" transform="translate(291.000000, 2232.000000)">
                <g id="SOCIALS" transform="translate(479.000000, 61.000000)">
                    <g id="noun_251852_cc" transform="translate(0.000000, 28.000000)">
                        <path d="M64,9.55460781 C63.92892,4.19319173 57.8160409,1.58302864 53.4090815,0.665944313 C48.0780822,-0.462774861 42.391683,-0.110050119 37.2028437,1.3713938 C34.3596441,2.14738823 31.5875245,3.34665235 29.1708048,4.96918616 L17.9401663,12.6585855 L17.9401663,12.6585855 C16.0920866,12.1647709 14.8837268,12.9407653 13.319967,13.7873047 C9.55272751,15.7625633 5.78548802,17.8083668 2.01824854,19.7836253 C3.51092834,19.7836253 5.07468812,20.6301647 6.42520794,21.0534344 C8.06004771,21.547249 9.6238075,22.1116086 11.2586473,22.6054233 C14.5994068,23.5930525 18.0112463,24.5806818 21.4941659,25.2861313 C24.9060054,25.9915808 28.3889249,26.4853954 31.8718444,26.9086651 C33.5777642,27.1203 35.283684,27.3319348 37.0606837,27.5435696 C38.6244435,27.7552045 40.3303633,27.7552045 41.8230431,28.2490191 C43.3157229,28.7428338 44.5240827,29.730463 45.3059626,31.0708171 C46.1589225,32.552261 46.1589225,34.0337049 46.0878425,35.6562387 C46.0878425,35.6562387 46.0878425,35.6562387 46.0878425,35.6562387 C46.0167625,36.643868 46.0167625,37.6314973 45.9456825,38.6896715 L45.8746025,40.66493 L45.8746025,41.2998346 L45.8035225,43.2750931 L45.8035225,43.6983628 L45.7324425,44.5449022 C45.6613625,45.2503517 45.7324425,46.0263461 45.5902825,46.7317956 L53.3380015,34.4569746 C53.6223214,34.0337049 53.7644814,33.5398903 53.7644814,33.1166206 L53.9066414,31.9173564 L61.6543603,20.7007096 C62.5073202,19.5014455 63.0759601,18.1610915 63.2181201,16.6796476 C63.0048801,16.6796476 64,10.4011472 64,9.55460781 C64,8.14370884 64,10.4011472 64,9.55460781 Z M63.5024401,10.3306022 C63.2181201,12.5174956 61.7254403,14.2811193 60.4460005,16.0447431 C59.1665607,17.7378218 57.8871208,19.4309006 56.607681,21.1239793 C55.8968811,22.0410637 55.1860812,23.0286929 54.4752813,23.9457773 C54.5463613,23.4519626 54.4752813,22.8170581 54.6885213,22.3232435 C54.9728412,21.7588839 55.4704012,21.2650692 55.8258011,20.7712546 C57.105241,19.0781758 58.3846808,17.3850971 59.7352006,15.6920183 C60.7303205,14.3516643 61.9386803,13.0113103 62.5073202,11.3887765 C63.3602801,8.91970327 62.4362402,6.38008513 60.5170805,4.68700637 C58.4557608,2.85283771 55.7547211,1.86520843 53.0536815,1.30084885 C49.712922,0.595399364 46.3721624,0.524854416 43.0314029,0.877579158 C39.3352434,1.30084885 35.6390839,2.28847813 32.2983244,3.98155689 C30.8056446,4.75755132 29.5262048,5.67463565 28.1046049,6.66226492 C26.1854452,8.00261894 24.1952055,9.34297296 22.2760458,10.7538719 C21.4941659,11.3182315 20.712286,11.8825911 19.8593261,12.3764057 C19.2906862,12.7996754 19.2196062,13.0113103 18.5088063,12.7996754 C21.9206458,10.4716921 25.2614053,8.14370884 28.6732449,5.81572554 C35.6390839,1.01866905 45.0216426,-0.674409706 53.2669215,1.089214 C57.6738809,2.07684328 64.14216,4.82809627 63.5024401,10.3306022 C63.5024401,10.3306022 63.5024401,10.0484224 63.5024401,10.3306022 Z M48.3624022,39.6773008 C48.5045621,37.7020422 48.5756421,35.7267837 48.7178021,33.7515251 C48.7888821,32.3406261 49.0732021,30.7180923 48.8599621,29.3071933 C48.0780822,24.5806818 42.6760029,24.298502 38.9087635,23.8752323 C33.2223642,23.3108727 27.535965,22.6054233 21.9206458,21.3356142 C19.2196062,20.7007096 16.5896465,19.9952602 14.0307669,19.2192657 C12.0405272,18.5843612 9.90812746,17.6672769 7.84680774,17.2440072 C8.91300759,16.6796476 9.97920745,16.115288 11.0454073,15.5509284 C11.4718872,15.3392936 11.8983672,15.1276587 12.3248471,14.8454789 C13.319967,14.2811193 13.533207,14.0694845 14.6704868,14.4222092 C20.0725661,16.0447431 25.6168053,17.3850971 31.2321245,18.1610915 C34.715044,18.6549061 38.1979636,19.0076309 41.6808831,19.2898107 C44.2397627,19.5014455 47.1540423,19.3603556 49.570762,20.206895 C51.9164017,21.0534344 52.8404415,23.0286929 52.7693615,25.3566762 C52.6982816,27.8962944 52.4850416,30.5064575 52.2007216,33.0460756 C52.1296416,33.892615 52.1296416,34.8802443 51.7742417,35.6562387 C51.4899217,36.2911432 50.9212818,36.9965927 50.5658819,37.5609523 C49.784002,38.7602164 49.0021221,40.0300255 48.2202422,41.2292896 L48.3624022,39.6773008 Z M54.5463613,21.8294288 C54.2620413,19.7836253 52.6982816,18.4432713 50.7791218,17.8789117 C47.8648422,17.0323723 44.3819227,17.3145521 41.4676431,17.0323723 C36.4209638,16.6091026 31.4453645,15.9741981 26.4697652,14.8454789 C34.4307241,8.63752348 43.8132828,4.26373668 54.1909614,7.6498942 C56.3233611,8.35534368 60.3038405,9.9778775 60.8724804,12.3764057 C61.1568004,13.43458 60.4460005,13.9283946 59.7352006,14.9160239 C58.0292808,17.2440072 56.2522811,19.5014455 54.5463613,21.8294288 Z M45.5902825,38.6191265 C45.6613625,37.7725872 45.6613625,36.9260478 45.7324425,36.0795084 C45.7324425,36.0795084 45.7324425,36.0795084 45.7324425,36.0795084 C45.8035225,34.5980645 45.9456825,33.1871655 45.3059626,31.7762665 C44.7373227,30.4359125 43.6000428,29.3071933 42.249523,28.6722888 C40.7568432,28.0373843 38.9087635,27.9668393 37.2739237,27.8257494 C35.4969239,27.6141146 33.6488442,27.4024797 31.8718444,27.1908449 C24.7638454,26.2737606 17.7980064,24.9334066 10.9032473,22.8170581 C9.19732755,22.3232435 7.4203278,21.7588839 5.71440803,21.1945243 C4.29280823,20.7007096 2.16040852,19.4309006 0.73880872,20.5596198 C-0.540631103,21.8294288 0.170168799,24.1574121 0.45448876,25.638856 C0.809888711,27.8257494 1.30744864,29.9420979 1.73392858,32.1289913 C2.08932853,33.7515251 2.51580848,35.232969 3.65308832,36.4322331 C4.71928817,37.4904074 6.06980799,38.1253119 7.49140779,38.5485816 C15.8077666,41.2292896 24.1952055,43.7689078 32.5826443,46.3790709 C34.786124,47.0845203 36.9896037,47.8605148 39.2641634,48.4954193 C40.9700832,49.0597789 43.3868028,49.4830486 44.6662427,47.8605148 C45.3059626,46.8728855 45.2348826,45.6030764 45.3059626,44.4743572 L45.3770426,43.486728 L45.5902825,40.0300255 L45.5902825,38.6191265 Z M3.36876836,33.5398903 C5.28792809,30.1537327 7.13600784,26.6970303 9.05516757,23.3108727 C9.26840754,23.3814177 9.55272751,23.4519626 9.76596748,23.5225076 C7.77572775,27.1203 5.71440803,30.7886373 3.72416831,34.3864296 C3.58200833,34.1042498 3.43984835,33.82207 3.36876836,33.5398903 Z M6.63844791,36.9260478 C8.91300759,32.8344408 11.1875673,28.7428338 13.462127,24.6512268 C13.6753669,24.7217717 13.9596869,24.7923167 14.1729269,24.8628616 L7.34924781,37.2082276 C7.06492785,37.0671377 6.85168788,36.9965927 6.63844791,36.9260478 Z M8.48652765,37.5609523 L15.3812867,25.1450414 C16.3053266,25.3566762 17.1582865,25.638856 18.0823263,25.8504909 L11.1164873,38.4074917 L8.48652765,37.5609523 Z M11.8272872,38.6191265 L18.7931262,25.9915808 C22.9868457,26.9792101 27.3227251,27.6141146 31.5875245,28.1079292 L24.1241255,42.4990987 L11.8272872,38.6191265 Z M25.2614053,42.8518234 L33.2934442,28.390109 C33.5777642,28.390109 33.7910042,28.460654 34.0753241,28.460654 L25.9722052,43.0634583 L25.2614053,42.8518234 Z M21.3520059,20.3479849 L30.5924046,22.1821536 L31.8007644,20.9123445 L31.4453645,20.8417995 C31.4453645,20.8417995 31.2321245,20.27744 30.6634846,19.7130804 C29.5972847,18.6549061 28.1046049,17.8083668 26.5408452,17.6672769 C25.0481654,17.526187 23.9108855,18.2316365 22.8446857,19.1487208 C22.7736057,19.1487208 22.7025257,19.1487208 22.7025257,19.1487208 L21.3520059,20.3479849 Z M29.9526847,21.617794 C28.9575648,20.4185299 27.607045,19.5014455 26.0432852,19.1487208 C24.1952055,18.7254511 22.8446857,19.7130804 22.9868457,19.5719905 C23.5554856,19.0781758 24.1241255,18.5843612 24.8349254,18.3021814 C25.1903253,18.1610915 25.6168053,18.0905466 26.0432852,18.0905466 C27.3227251,18.0905466 28.9575648,18.7254511 30.3080846,19.9952602 C30.5924046,20.27744 30.8767246,20.5596198 30.8767246,20.6301647 C30.8767246,20.7007096 30.1659247,21.4061591 29.9526847,21.617794 L29.9526847,21.617794 Z M52.1296416,31.8468115 C52.3428816,31.2824519 52.2007216,29.730463 51.2766818,30.5064575 C51.2766818,30.2242777 51.3477617,29.6599181 50.9212818,29.5188282 C50.6369618,29.4482832 50.3526419,29.6599181 50.1394019,29.801008 C49.570762,30.2948226 49.712922,30.9297272 49.712922,31.5646317 C49.357522,31.8468115 48.9310421,32.1289913 48.8599621,32.6228059 C48.7888821,33.0460756 48.8599621,33.892615 49.357522,33.892615 L49.357522,33.892615 C49.499682,33.892615 49.641842,33.82207 49.784002,33.6809801 C49.784002,34.0337049 49.784002,34.4569746 50.2104819,34.5980645 C50.4948019,34.6686094 50.7080418,34.4569746 50.9212818,34.2453397 C51.4188417,33.82207 51.2766818,33.1166206 51.2766818,32.552261 C51.7031617,32.4111711 51.9874817,32.1995362 52.1296416,31.8468115 Z M50.5658819,34.3864296 C50.2104819,34.6686094 50.2815619,33.6104352 50.2104819,33.3988004 L50.4948019,33.1871655 C50.4948019,33.4693453 50.4237219,34.0337049 50.5658819,34.3158847 L50.5658819,34.3864296 Z M49.641842,33.6104352 C49.286442,33.892615 49.286442,32.7638958 49.357522,32.6228059 C49.428602,32.1995362 49.9261619,31.9879014 50.2104819,31.7762665 C50.2104819,31.4235418 50.1394019,31.0002721 50.1394019,30.6475474 C50.1394019,30.3653676 50.3526419,30.2242777 50.5658819,30.0126428 C50.6369618,29.9420979 50.9212818,29.730463 50.9923618,29.9420979 C50.6369618,30.1537327 50.4948019,30.3653676 50.4948019,30.7886373 C50.4948019,31.141362 50.4948019,31.4235418 50.5658819,31.7762665 C50.2815619,31.9879014 49.9261619,32.1995362 49.784002,32.481716 C49.570762,32.6933509 49.570762,33.3282554 49.641842,33.6104352 L49.641842,33.6104352 Z M51.7742417,30.6475474 C51.7742417,30.6475474 51.8453217,30.7180923 51.8453217,30.7180923 L51.3477617,31.141362 L51.3477617,30.9297272 C51.4188417,30.7886373 51.7031617,30.5064575 51.7742417,30.6475474 Z" id="Shape"></path>
                    </g>
                </g>
            </g>
        </g>
    </g>
</svg>