<?xml version="1.0" encoding="UTF-8" standalone="no"?>
<svg width="41px" height="44px" viewBox="0 0 41 44" version="1.1" xmlns="http://www.w3.org/2000/svg" xmlns:xlink="http://www.w3.org/1999/xlink">
    <!-- Generator: Sketch 46.2 (44496) - http://www.bohemiancoding.com/sketch -->
    <title>noun_85017_cc</title>
    <desc>Created with Sketch.</desc>
    <defs></defs>
    <g id="Welcome" stroke="none" stroke-width="1" fill="none" fill-rule="evenodd" opacity="0.511951959">
        <g id="ABOUT" transform="translate(-988.000000, -2326.000000)" fill-rule="nonzero" fill="#FFFFFF">
            <g id="SUPPORTS" transform="translate(291.000000, 2232.000000)">
                <g id="SOCIALS" transform="translate(479.000000, 61.000000)">
                    <g id="noun_85017_cc" transform="translate(218.000000, 33.000000)">
                        <g id="Group">
                            <g id="Youtube">
                                <g id="Layer_1">
                                    <path d="M34.5051347,32.2400669 L31.818761,32.2400669 L31.831271,30.8464637 C31.8345593,30.2245085 32.3994253,29.7215674 33.0958628,29.7205062 L33.2677385,29.7205062 C33.965293,29.720495 34.5319499,30.2235161 34.5361376,30.8464637 L34.5051347,32.2400669 Z M24.4286498,29.253705 C23.74713,29.253705 23.1896218,29.6631882 23.1896218,30.1635059 L23.1896218,36.9411097 C23.1896218,37.4409416 23.74713,37.8489676 24.4286498,37.8489676 C25.1128892,37.8489676 25.6709413,37.4409416 25.6709413,36.9411097 L25.6709413,30.1635059 C25.6709413,29.6627025 25.1128892,29.253705 24.4286498,29.253705 L24.4286498,29.253705 Z M40.7932834,25.4624631 L40.7932834,38.3560857 C40.7932834,41.4488258 37.7903538,43.9795587 34.1195022,43.9795587 L6.67432507,43.9795587 C3.00238566,43.9795587 0,41.4488258 0,38.3560857 L0,25.4624631 C0,22.3697229 3.00238566,19.8385043 6.67432507,19.8385043 L34.1195022,19.8385043 C37.7903538,19.8385043 40.7932834,22.3697229 40.7932834,25.4624631 L40.7932834,25.4624631 Z M8.50512763,39.7560036 L8.50295199,26.1740799 L11.9051118,26.1750514 L11.9051118,24.1626087 L2.83594906,24.1504651 L2.83594906,26.1289056 L5.66700293,26.1361918 L5.66700293,39.7560036 L8.50512763,39.7560036 L8.50512763,39.7560036 Z M18.7034485,28.197209 L15.8669555,28.197209 L15.8669555,35.4498717 C15.8669555,36.4990815 15.9382078,37.0236864 15.8626042,37.2087553 C15.6319862,37.7712484 14.5952929,38.3687151 14.1911674,37.2694735 C14.1226347,37.0771184 14.1830088,36.4971385 14.1819209,35.4999035 L14.1704988,28.197209 L11.3497793,28.197209 L11.3584818,35.3852676 C11.3606575,36.4869379 11.3307424,37.3083331 11.3682722,37.682357 C11.4373488,38.3415133 11.4128729,39.1099623 12.0976561,39.5490761 C13.37367,40.3699856 15.8196353,39.4266683 16.4315345,38.2531077 L16.4260954,39.7506604 L18.7039924,39.7530891 L18.7034485,28.197209 L18.7034485,28.197209 Z M27.7775064,36.5024817 L27.7709795,30.4661252 C27.7693478,28.1656356 25.8422731,26.788062 23.2266077,28.6494378 L23.2380299,24.1616372 L20.4042564,24.1655232 L20.3912026,39.65594 L22.720771,39.6258238 L22.9328961,38.6611337 C25.9102619,41.1000607 27.7818577,39.4286112 27.7775064,36.5024817 L27.7775064,36.5024817 Z M36.6541249,35.7024592 L34.5274351,35.7121741 C34.5263472,35.7874647 34.5230838,35.8744131 34.5219959,35.9691334 L34.5219959,37.0295153 C34.5219959,37.5968658 33.9971224,38.0583238 33.3596593,38.0583238 L32.9430239,38.0583238 C32.3044731,38.0583238 31.7795995,37.5968658 31.7795995,37.0295153 L31.7795995,34.2418232 L36.6497736,34.2418232 L36.6497736,32.6048616 C36.6497736,31.408471 36.6155073,30.2125661 36.5045495,29.5286368 C36.1559029,27.3651273 32.7548309,27.0217054 31.0377056,28.1292047 C30.4805155,28.4806604 30.0635686,28.9818475 29.8476296,29.5597245 C29.6055894,30.1819642 29.4859291,31.0320184 29.4859291,32.1118302 L29.4859291,35.7112027 C29.4875609,41.694613 37.6255489,40.8489304 36.6541249,35.7024592 L36.6541249,35.7024592 Z M25.7449131,16.1618983 C25.8840268,16.4719533 26.1209781,16.7392527 26.4269768,16.9313188 C26.7315666,17.1227025 27.1210065,17.21888 27.5876817,17.21888 C27.9967023,17.21888 28.3589467,17.1202737 28.6744148,16.9167465 C28.988795,16.7141907 29.2536794,16.4115714 29.4701557,16.0079171 L29.4163086,17.0017519 L32.57806,17.0017519 L32.57806,4.99364295 L30.0891258,4.99364295 L30.0891258,14.339382 C30.0670439,14.8362905 29.6095528,15.2289651 29.0527045,15.2289651 C28.4958562,15.2289651 28.038365,14.8362905 28.0162831,14.339382 L28.0162831,4.99364295 L25.4185668,4.99364295 L25.4185668,13.0929597 C25.4185668,14.1246826 25.4397793,14.8124979 25.4740457,15.161263 C25.5093999,15.5075994 25.5986012,15.8398492 25.7449131,16.1618983 L25.7449131,16.1618983 Z M16.1633867,9.37992279 C16.1633867,8.22724925 16.271081,7.32716325 16.4848378,6.67820757 C16.7002263,6.0316806 17.0869466,5.51193316 17.6471744,5.11993672 C18.2057704,4.72599731 18.9210127,4.52878472 19.7907255,4.52878472 C20.522285,4.52878472 21.1488698,4.65702148 21.6721117,4.90815178 C22.1980731,5.16073933 22.6032864,5.48861739 22.885032,5.8932432 C23.1606089,6.27618322 23.358703,6.69938643 23.4702796,7.14355154 C23.5763422,7.57635058 23.6285576,8.22919223 23.6285576,9.10984841 L23.6285576,12.1467279 C23.6285576,13.2605418 23.5785178,14.0799941 23.4811578,14.6002273 C23.3860084,15.1192583 23.1739593,15.6156596 22.8578365,16.0594061 C22.5423684,16.5082347 22.1349795,16.8438847 21.6411088,17.0580983 C21.141799,17.274255 20.570693,17.3801475 19.9256152,17.3801475 C19.2049339,17.3801475 18.5979298,17.2912561 18.0975322,17.1057014 C17.5955029,16.9211182 17.2076948,16.6427861 16.9313882,16.273134 C16.6523622,15.9029961 16.4560105,15.4522245 16.337438,14.9266481 C16.2183217,14.4015574 16.161755,13.6117356 16.161755,12.5591256 L16.1633867,9.37992279 L16.1633867,9.37992279 Z M18.639811,14.1499414 C18.639811,14.8299848 19.2065656,15.3851916 19.896788,15.3851916 C20.5880982,15.3851916 21.1521333,14.8299848 21.1521333,14.1499414 L21.1521333,7.75753357 C21.1521333,7.07846167 20.5880982,6.52325482 19.896788,6.52325482 C19.2065656,6.52325482 18.639811,7.07846167 18.639811,7.75753357 L18.639811,14.1499414 Z M9.88937971,17.3777187 L12.8721846,17.3777187 L12.8754481,8.16798832 L16.3999877,0.278513568 L13.1376129,0.278513568 L11.2638414,6.13854457 L9.36341831,0.262483974 L6.13476591,0.262483974 L9.88448452,8.17236003 L9.88937971,17.3777187 L9.88937971,17.3777187 Z" id="Shape"></path>
                                </g>
                            </g>
                        </g>
                    </g>
                </g>
            </g>
        </g>
    </g>
</svg>