<?xml version="1.0" standalone="no"?>
<!DOCTYPE svg PUBLIC "-//W3C//DTD SVG 1.1//EN" "http://www.w3.org/Graphics/SVG/1.1/DTD/svg11.dtd" >
<svg xmlns="http://www.w3.org/2000/svg" xmlns:xlink="http://www.w3.org/1999/xlink" version="1.1">
<metadata></metadata>
<defs>
<font id="specify_personal_expandedBlk" horiz-adv-x="2605" >
<font-face units-per-em="2048" ascent="1638" descent="-410" />
<missing-glyph horiz-adv-x="1050" />
<glyph unicode="&#xfb01;" horiz-adv-x="1845" d="M20 901v348h277v68q0 301 205 398t649 -15v-348q-115 31 -189.5 41t-117.5 3t-59.5 -27.5t-16.5 -51.5v-68h985v-1249h-471v901h-514v-901h-471v901h-277zM1257 1544q0 117 71 188.5t190 71.5q117 0 188.5 -71.5t71.5 -188.5q0 -119 -72 -189.5t-188 -70.5 q-119 0 -190 70.5t-71 189.5z" />
<glyph unicode="&#xfb02;" horiz-adv-x="1845" d="M20 799v348h277v108q0 145 51 244.5t156.5 150t268.5 48.5t384 -60v-348q-117 31 -192.5 41t-118.5 3t-60.5 -27.5t-17.5 -51.5v-108h391v-348h-391v-799h-471v799h-277zM1282 0v1659h471v-1659h-471z" />
<glyph unicode="ft" horiz-adv-x="2449" d="M20 901v348h302v6q0 145 52 244.5t158.5 150t270.5 48.5t385 -60v-321q-127 31 -205 37t-120 -6.5t-56 -38t-14 -54.5v-6h544v369h471v-369h598v-348h-598v-459q0 -51 22.5 -87t85 -50t173.5 -5t289 48v-348q-528 -123 -784.5 -20.5t-256.5 462.5v459h-544v-901h-471v901 h-302z" />
<glyph unicode="tf" horiz-adv-x="2449" d="M-2 901v348h231v369h471v-369h826v6q0 293 229.5 395.5t675.5 -12.5v-348q-121 33 -203 42t-134 2t-74.5 -28.5t-22.5 -50.5v-6h434v-348h-434v-901h-471v901h-826v-459q0 -51 22.5 -87t85 -50t173.5 -5t289 48v-348q-528 -123 -784.5 -20.5t-256.5 462.5v459h-231z" />
<glyph unicode="fy" horiz-adv-x="2676" d="M20 901v348h277v6q0 145 52 244.5t158.5 150t270.5 48.5t385 -60v-331q-121 29 -196.5 36t-120.5 -3.5t-61.5 -33t-16.5 -51.5v-6h666l387 -674l-2 -131l409 805h486l-883 -1679h-455l264 522l-489 809h-383v-901h-471v901h-277z" />
<glyph horiz-adv-x="0" />
<glyph unicode="&#xd;" horiz-adv-x="1050" />
<glyph horiz-adv-x="0" />
<glyph horiz-adv-x="0" />
<glyph unicode=" "  horiz-adv-x="1050" />
<glyph unicode="&#x09;" horiz-adv-x="1050" />
<glyph unicode="&#xa0;" horiz-adv-x="1050" />
<glyph unicode="!" horiz-adv-x="976" d="M231 260q0 117 71 188.5t190 71.5q117 0 188.5 -71.5t71.5 -188.5q0 -119 -72 -189.5t-188 -70.5q-119 0 -190 70.5t-71 189.5zM256 1638h471l-61 -1044h-349z" />
<glyph unicode="&#x22;" horiz-adv-x="1398" d="M186 1638h463l-57 -634h-344zM776 1638h463l-61 -634h-344z" />
<glyph unicode="#" horiz-adv-x="1722" d="M102 369v307h207v143h-207v307h207v127h381v-127h340v127h381v-127h209v-307h-209v-143h209v-307h-209v-125h-381v125h-340v-125h-381v125h-207zM690 676h340v143h-340v-143z" />
<glyph unicode="$" horiz-adv-x="1974" d="M25 444l471 37q-4 -37 18.5 -73.5t79.5 -65.5t153.5 -47.5t241.5 -18.5q135 0 225.5 11.5t145.5 31t78.5 47t23.5 60.5q0 57 -61.5 89t-162.5 50.5t-230 28.5t-264.5 24.5t-264.5 41t-230.5 75.5t-162.5 129t-61 201q0 55 25.5 113.5t82.5 113t149.5 99.5t225.5 75v176 h381v-133q18 2 37.5 2h42.5h39.5t40.5 -2v133h381v-172q143 -29 242.5 -73.5t159.5 -101t85 -120t16 -128.5l-471 -37q4 39 -17.5 72.5t-78.5 59t-153.5 41t-241.5 15.5q-133 0 -224.5 -10t-146.5 -27.5t-79.5 -41t-24.5 -50.5q0 -47 61 -72.5t162.5 -43t230.5 -29 t264.5 -29.5t264.5 -49t230 -83t162.5 -134t61.5 -201q0 -57 -26.5 -119.5t-86 -120t-155.5 -105.5t-235 -79v-172h-381v131h-58q-27 0 -52.5 1t-49.5 1v-133h-381v176q-135 31 -231.5 77t-155 103.5t-82 123t-14.5 132.5z" />
<glyph unicode="%" horiz-adv-x="2213" d="M109 1143q0 88 30.5 159.5t89 124t145.5 81t197 28.5q113 0 199 -28.5t144.5 -81t89 -124t30.5 -159.5q0 -90 -30.5 -163t-89 -124t-144.5 -79.5t-199 -28.5q-223 0 -342.5 108.5t-119.5 286.5zM119 0l1491 1495h483l-1491 -1495h-483zM467 1143q0 -72 31.5 -98.5 t72.5 -26.5q43 0 75 26.5t32 98.5q0 68 -32 95.5t-75 27.5q-41 0 -72.5 -28t-31.5 -95zM1182 354q0 88 30.5 161t89 124t145.5 80t198 29q225 0 343.5 -108t118.5 -286q0 -88 -30.5 -160.5t-89 -125t-144 -81t-198.5 -28.5q-111 0 -198 28.5t-145.5 81t-89 125t-30.5 160.5z M1540 354q0 -72 32 -98.5t73 -26.5q43 0 74.5 27t31.5 98q0 68 -31.5 95.5t-74.5 27.5q-41 0 -73 -27.5t-32 -95.5z" />
<glyph unicode="&#x26;" horiz-adv-x="1888" d="M49 403q0 117 65.5 197t170.5 137q-51 68 -79 146t-28 170q0 104 45 189t133 145.5t218 94.5t300 34q174 0 302.5 -36t211 -95.5t122.5 -135t38 -157.5q-2 -86 -49 -152t-123 -114t-173 -83.5t-197 -64.5q86 -16 178 -23.5t184 -5.5q4 41 0 90h307q2 -16 2 -30.5v-30.5 q70 12 129 31v-349q-88 -20 -194 -30q-86 -182 -284 -276.5t-513 -94.5q-209 0 -354.5 37t-236.5 98.5t-133 142t-42 166.5zM459 438q0 -66 102.5 -102.5t327.5 -36.5q162 0 266 39q-168 23 -328.5 70t-294.5 122q-74 -41 -73 -92zM545 1012q0 -84 57 -152q86 25 169 46.5 t151.5 43t116.5 43t67 49.5q12 18 9 40t-27.5 40.5t-77 31.5t-138.5 13q-102 0 -165.5 -14t-99.5 -37.5t-49 -51t-13 -52.5z" />
<glyph unicode="'" horiz-adv-x="839" d="M186 1638h471l-61 -634h-348z" />
<glyph unicode="(" horiz-adv-x="1249" d="M250 645q0 236 72.5 409t186.5 291.5t253 186t274 92.5l78 -211q-41 -23 -107.5 -69t-130 -134t-109.5 -225t-46 -340t46 -339t109.5 -224t130 -134t107.5 -71l-78 -211q-135 25 -274 92.5t-253 186t-186.5 291.5t-72.5 409z" />
<glyph unicode=")" horiz-adv-x="1249" d="M94 -123q41 20 107.5 67.5t130 135.5t109.5 225t46 340t-46 339t-109.5 224t-130 134.5t-107.5 70.5l78 211q135 -25 274.5 -92.5t253 -186t186 -291.5t72.5 -409t-72.5 -409t-186 -291.5t-253 -186t-274.5 -92.5z" />
<glyph unicode="*" horiz-adv-x="1714" d="M86 549v348h311l-233 291h506l170 -283l172 283h506l-234 -291h322v-348h-330l242 -299h-504l-174 287l-172 -287h-504l239 299h-317z" />
<glyph unicode="+" horiz-adv-x="1705" d="M102 573v349h576v413h348v-413h578v-349h-578v-411h-348v411h-576z" />
<glyph unicode="," horiz-adv-x="825" d="M150 260q0 51 17 98.5t51 83t82 57t110 21.5q80 0 149.5 -35.5t98 -116.5t1 -211t-140.5 -319h-237q25 55 34 98.5t4 75.5q-82 25 -125.5 91.5t-43.5 156.5z" />
<glyph unicode="-" horiz-adv-x="1411" d="M205 471v348h1001v-348h-1001z" />
<glyph unicode="." horiz-adv-x="813" d="M150 260q0 117 70.5 188.5t189.5 71.5q117 0 188.5 -71.5t71.5 -188.5q0 -119 -72 -189.5t-188 -70.5q-119 0 -189.5 70.5t-70.5 189.5z" />
<glyph unicode="/" horiz-adv-x="1843" d="M41 0l1286 1659h483l-1286 -1659h-483z" />
<glyph unicode="0" d="M109 831h47q23 41 55.5 81t73.5 63q12 10 32.5 11t24.5 -23q4 -12 -1 -25.5t-9 -24.5q-10 -23 -19.5 -45t-19.5 -45q-6 -16 -19.5 -41.5t-5.5 -44.5q-18 -4 -22 6.5t-1 24.5t9 29.5t10 21.5l-86 -6q-10 -16 -19 -38.5t-12 -45.5q-16 -4 -19 6t0 26.5t9 32t10 19.5l-28 -2 zM135 1122v361h72q51 0 67 -62q8 -33 6.5 -77t-18.5 -76q-14 -23 -35.5 -25t-44.5 -2v-119h-47zM152 -352h2361v-51h-2361v51zM152 1794v53h2361v-53h-2361zM154 545h63q10 -123 17.5 -242t11.5 -240q6 92 12 182.5t16 182.5l13 117h80q12 -98 20 -196.5t14 -196.5l7 -89 q6 96 9 190.5t11 186.5l10 105h86q10 -123 17.5 -242t13.5 -240q6 92 11 182.5t14 182.5q6 29 8 57.5t6 59.5h82q10 -98 18 -196.5t17 -196.5l4 -89q6 96 10 190.5t12 186.5l8 105h89q10 -123 17 -242t11 -240q6 92 11.5 182.5t15.5 182.5l12 117h82q10 -98 18.5 -196.5 t16.5 -196.5l6 -89q6 96 9 190.5t11 186.5q4 27 5.5 52.5t3.5 52.5h63l-43 -580h-96q-10 115 -19.5 229.5t-13.5 231.5q-4 -86 -10 -172t-14 -172l-9 -117h-98l-25 326l-24 -326h-94q-10 115 -20.5 229.5t-14.5 231.5q-4 -86 -9 -172t-14 -172l-10 -117h-96l-25 332 l-24 -332h-97q-10 115 -19 228.5t-13 230.5q-2 -88 -8.5 -172t-14.5 -170l-12 -117h-94zM182 1282q10 0 19.5 -1t15.5 9q10 12 11 34t1 38t-1 36.5t-11 33.5q-6 10 -15 10h-20v-160zM184 831h88l27 64q2 6 8 18.5t10.5 24.5t5 22.5t-7.5 12.5q-16 4 -38.5 -16.5t-32.5 -32.5 q-33 -41 -60 -93zM297 1122v361h115v-49h-70v-101h57v-53h-57v-109h70v-49h-115zM309 782q4 29 16.5 54.5t22.5 48.5q12 0 29 10q-8 -18 -14.5 -35.5t-14.5 -34.5q-2 -6 -8 -17t-10 -23.5t-4 -21.5t8 -11q18 -4 35.5 19.5t23.5 35.5q10 18 16.5 40.5t6.5 45.5q18 4 20 -12.5 t-2 -30.5q-8 -39 -37 -74q16 -6 30.5 6.5t23.5 28.5l14 27q10 18 25.5 32.5t33.5 18.5q16 6 32.5 -2t37.5 -2l-39 -80q-4 -8 -11 -24.5t1 -20.5q10 -10 23.5 4t23.5 31q4 12 10 23t12 24l17 43q18 0 31 10l-39 -90q-4 -8 -10.5 -23.5t1.5 -21.5q8 -10 20.5 3t20.5 30 q8 23 19.5 45t21.5 45t18.5 43t18.5 43q14 -6 29 6l-55 -131q-4 -12 -10.5 -24.5t-10.5 -22.5q-2 -6 -5 -14.5t-3 -14.5t2 -9t12 1t19.5 15t17.5 28q4 10 8 18t8 17q10 18 24.5 32.5t35.5 18.5q18 6 34.5 -2t34.5 -2q-10 -20 -18 -39t-18 -41q-4 -8 -10.5 -24.5t-0.5 -20.5 q6 -6 13.5 -2t14.5 13t13 19.5t11 16.5l2 4l67 158q16 0 27 6q-10 -29 -20.5 -56.5t-26.5 -52.5q14 16 33.5 26.5t33.5 -13.5q14 -23 2 -55.5t-26 -49.5q12 -2 23.5 4t21.5 17q8 23 18 44t21 44l37 86q10 -4 28 6q-16 -33 -28.5 -65.5t-28.5 -65.5q-4 -12 -9 -24.5 t-12 -22.5q-2 -6 -4 -14.5t-2 -14.5t2 -9t13 1q10 4 21 18.5t18 28.5q6 35 26 51q6 8 19.5 18.5t29 15.5t27.5 1t16 -25q2 -18 -7 -34.5t-24.5 -27.5t-34 -17.5t-32.5 -6.5q-2 -14 7 -22t22 -8q27 0 49 17t37 42l8 -4q-16 -33 -48 -53.5t-65 -12.5q-35 6 -35 41 q-8 -12 -16 -22t-18 -15q-14 -10 -30.5 -2.5t-12.5 29.5v4q-4 -4 -9 -4q-8 -8 -24 -8h-14q-4 0 -6.5 -4t-6.5 -4q-20 -16 -44.5 -13.5t-37.5 25.5q-16 -20 -35 -27q-18 -6 -26 7.5t0 29.5q-10 -16 -28.5 -31.5t-37.5 -1.5q-14 8 -14 33q-14 -25 -29 -33q-16 -10 -31.5 -3.5 t-13.5 24.5l-11 -11t-11 -10q-16 -10 -31.5 -3.5t-11.5 26.5q-10 -8 -18.5 -15.5t-18.5 -11.5q-18 -6 -25.5 7.5t0.5 29.5h-2q-10 -16 -27.5 -31.5t-37.5 -1.5q-10 4 -12.5 15.5t-0.5 21.5q-8 -8 -20 -14q-8 -4 -27 -4q-10 0 -12 -2t-8 -6q-23 -16 -49.5 -14.5t-18.5 40.5z M424 1122v361h47h30.5t26.5 -6q20 -12 26.5 -39t6.5 -49v-30t-3 -35t-9 -30.5t-19 -19.5l37 -152h-49l-26 144q-6 0 -12.5 1t-12.5 1v-146h-43zM467 1305q10 0 18.5 -1t14.5 3q12 10 14 29.5t2 35.5t-2 35.5t-14 30.5q-6 4 -14.5 4h-18.5v-137zM468 766q1 -10 13 -10 q14 0 26.5 13t22 32.5t16.5 40t13 35.5q-20 12 -40.5 -7.5t-31.5 -38.5l-8 -16t-9 -25.5t-2 -23.5zM578 1382q-4 27 4 53.5t32 41.5q18 10 45 9t43 -22q18 -20 18.5 -45.5t0.5 -50.5q-12 0 -24.5 1t-22.5 1q0 14 1 30.5t-9 26.5q-18 20 -29.5 4t-13.5 -36q0 -29 15 -44.5 t32 -29.5q16 -14 29.5 -31.5t17.5 -40.5q4 -25 1 -49t-14.5 -43.5t-30 -30t-42.5 -6.5q-43 8 -48 45t-3 76h43q0 -10 -1 -22.5t1 -26.5q4 -14 15 -22.5t24 1.5q10 10 12 30t-2 34q-4 18 -14.5 31.5t-24.5 23.5q-23 16 -37 39t-18 53zM647 946q2 10 10.5 13.5t15.5 1t10 -9.5 t-3 -17q-6 -16 -21.5 -10t-11.5 22zM737 1338q0 48 13 94q6 20 16 35.5t33 17.5q43 10 63 -31q16 -41 17.5 -89t1.5 -91q0 -23 -2 -49.5t-9.5 -49t-20.5 -39t-38 -16.5q-23 0 -36 12.5t-21.5 31t-10.5 40t-4 41.5q-2 45 -2 93zM749 766q1 -10 13 -10q14 0 27.5 13t22.5 32.5 t16.5 40t13.5 35.5q-23 12 -43.5 -7.5t-30.5 -38.5l-8 -16t-9 -25.5t-2 -23.5zM781 1270q-1 -23 1 -45.5t8.5 -41t20.5 -18.5q12 0 17.5 18.5t7.5 41t1 45t-1 33.5q0 8 1 31.5t-1 47t-7.5 42t-17.5 18.5q-14 0 -20.5 -18.5t-8.5 -42t-1 -47t1 -31.5q0 -10 -1 -33zM885 764 q12 -10 23.5 -9t21.5 9t18 18.5t13 20.5q2 6 8 18.5t8 24.5t0 21.5t-14 9.5q-14 0 -25.5 -12.5t-21 -31t-17.5 -38t-14 -31.5zM899 1122v361h41q16 -63 31.5 -125t27.5 -127q-4 61 -5 124.5t-1 127.5h43v-361h-45q-14 59 -29.5 122t-27.5 126q4 -43 4 -84t4 -84v-80h-43z M1049 1122l36 361h74l39 -361h-43l-10 88h-45l-8 -88h-43zM1090 14q0 25 12 36t27.5 11t28.5 -11t13 -36t-13 -36t-28.5 -11t-27.5 11.5t-12 35.5zM1104 1260h37q-4 43 -9.5 84.5t-7.5 85.5q-2 -27 -6 -55.5t-8 -57.5zM1110 793q23 0 51.5 22.5t28.5 50.5q0 16 -11.5 15.5 t-21.5 -9.5q-10 -8 -18.5 -21.5t-14.5 -25.5q-12 -20 -14 -32zM1194 -35l61 580h119l64 -580h-74l-14 137h-70l-16 -137h-70zM1208 1122v361h47v-316h66v-45h-113zM1284 184h62q-6 70 -17.5 138.5t-15.5 140.5q-2 -47 -7.5 -92t-9.5 -92q-4 -23 -6 -47.5t-6 -47.5zM1296 772 q0 18 9.5 35.5t15.5 34.5q14 18 20 43q20 0 31 10l-39 -90q-4 -8 -11 -23.5t-1 -21.5t15.5 0t17.5 16t14 20.5t8 14.5l31 76q12 -2 31 8q-8 -14 -13.5 -25.5t-13.5 -21.5v-4q12 16 30.5 32.5t37.5 18.5q25 0 23.5 -22.5t-9.5 -38.5q-2 -4 -8 -14.5t-11.5 -21t-9.5 -20.5 t0 -16q4 -10 13.5 -4t17.5 16t15.5 21.5t9.5 15.5l8 -4q-10 -16 -20.5 -33.5t-26.5 -28.5q-14 -10 -28.5 -5t-12.5 28q2 20 13 37.5t17 34.5q2 8 6.5 23.5t-10.5 13.5q-23 -4 -41 -33t-28 -49l-25 -58h-24l8 23q-4 -4 -8.5 -8t-8.5 -7q-16 -10 -31.5 -2.5t-11.5 29.5z M1356 946q6 20 24.5 14t10.5 -26q-8 -16 -23.5 -10t-11.5 22zM1390 1252.5q1 33.5 1 60.5v170h47v-252q0 -10 -1 -23.5t3 -23.5q4 -12 14 -17.5t21 4.5q10 10 11 31t1 35q2 29 1 57.5t-1 57.5v131h45v-170q0 -27 1 -60.5t-3 -62.5t-19.5 -49.5t-48.5 -20.5t-48 20.5 t-20 49.5t-4 62.5zM1470 -35v580h76h45.5t42.5 -10q37 -18 47.5 -64.5t10.5 -87.5v-45t-5.5 -52.5t-16.5 -46t-30 -28.5l64 -246h-82l-43 232h-35v-232h-74zM1544 256q12 0 25.5 -2t23.5 8q18 18 22.5 48t4.5 52q0 27 -4 58t-21 49q-10 10 -24.5 9t-26.5 -1v-221zM1550 676 l92 219h-30l8 14h31q6 18 16 38t31 24q12 4 31 -2q4 -4 11 -11.5t1 -15.5q-10 -8 -14.5 0t-2.5 19q-10 4 -18 -0.5t-14 -13.5t-10.5 -19t-6.5 -19h29l-6 -14h-29l-92 -213q-14 0 -27 -6zM1552 1202.5v38.5h45q0 -10 -2 -22.5t2 -26.5t14.5 -22.5t22.5 1.5q14 10 16.5 30 t-1.5 34q-4 18 -15.5 31.5t-25.5 23.5q-47 31 -56 92q-2 27 5.5 53.5t29.5 41.5q20 10 46 9t42 -22q18 -20 17.5 -45.5t-0.5 -50.5q-10 0 -20.5 1t-20.5 1q0 14 1 30.5t-12 26.5q-18 20 -29.5 4t-13.5 -36q0 -29 14.5 -44.5t30.5 -29.5q37 -27 50 -72q4 -25 1 -49 t-14.5 -43.5t-30 -30t-44.5 -6.5q-20 4 -30.5 16.5t-16 29t-5.5 37zM1658 769.5q3 16.5 9 33.5l35 82q14 0 29 10l-27 -64q-4 -10 -16.5 -34.5t-4.5 -34.5q12 -12 30 5t24 28q6 10 10 19t12 20l25 55q6 0 12 2l12 4q-8 -23 -17 -44.5t-19 -43.5q-4 -10 -10.5 -23.5 t-0.5 -23.5q8 -12 20.5 2t22.5 31q8 23 19.5 45t21.5 45q8 23 17.5 43t19.5 43q12 -6 29 6l-58 -131l-20 -47q-2 -6 -4 -14.5t-3 -14.5t2 -9t11 1q18 6 33 31q8 23 19.5 46t21.5 46q8 23 16 43t19 43q14 -6 30 6l-57 -131l-20 -47q-2 -6 -4.5 -14.5t-3.5 -14.5t1 -9t13 1 q14 4 24.5 20.5t16.5 30.5l8 -4q-10 -18 -20.5 -34.5t-26.5 -27.5q-14 -10 -28.5 -3.5t-12.5 24.5q-14 -14 -27 -21q-14 -10 -28.5 -3.5t-12.5 26.5q-10 -12 -19 -21.5t-22 -9.5q-20 0 -22 14.5t4 28.5q-12 -16 -34 -32.5t-38 -4.5q-14 10 -11 26.5zM1712 1122v361h113v-49 h-66v-101h56v-53h-56v-109h66v-49h-113zM1735 -35v580h73v-580h-73zM1853 14q0 25 12.5 36t28 11t28.5 -11t13 -36t-13 -36t-28.5 -11t-28 11.5t-12.5 35.5zM1894 1338q0 48 13 94q6 20 17 35.5t30 17.5q41 10 65 -31q18 -41 18.5 -89t0.5 -91q0 -23 -1 -49.5t-8.5 -49 t-21.5 -39t-39 -16.5q-23 0 -36 12.5t-20 31t-10.5 40t-3.5 41.5q-4 45 -4 93zM1938 1270q-1 -23 1.5 -45.5t8.5 -41t20 -18.5q12 0 18.5 18.5t8.5 41t1 45t-1 33.5q0 8 1 31.5t-1 47t-8.5 42t-18.5 18.5q-14 0 -20 -18.5t-8.5 -42t-1.5 -47t1 -31.5q0 -10 -1 -33zM1976 676 l97 219h-33l6 14h33q6 18 16 38t31 24q12 4 31 -2q4 -4 12 -11.5t-2 -15.5t-13.5 0t-1.5 19q-10 4 -18 -0.5t-14 -13.5t-10.5 -19t-6.5 -19h29l-6 -14h-29l-92 -213q-14 0 -29 -6zM1982 -35v580h66q27 -102 52.5 -201.5t45.5 -204.5q-8 102 -9 202.5t-1 203.5h68v-580h-70 q-25 98 -51.5 197.5t-44.5 199.5q4 -68 6 -134t6 -134v-129h-68zM2056 1122v361h41q16 -63 32.5 -125t29.5 -127q-4 61 -5.5 124.5t-1.5 127.5h43v-361h-45q-16 59 -31.5 122t-27.5 126q4 -43 5 -84t3 -84v-80h-43zM2094 789.5q3 25.5 11 48.5q10 23 28.5 40t45.5 17 q20 0 29.5 -14.5t9.5 -34t-7 -40t-16 -32.5q27 0 41 27l37 86q14 -2 29 8q-6 -14 -11 -25.5t-16 -21.5v-4q14 16 31.5 32.5t36.5 18.5q25 0 23.5 -22.5t-7.5 -38.5q-4 -4 -9 -14.5t-11 -21t-9 -20.5t1 -16q4 -8 11 -4t14 12t14.5 18.5t11.5 16.5l41 90h-17l7 14h16l16 39 q12 0 29 8l-20 -47h30l-8 -14h-29l-37 -88q-4 -10 -10 -23.5t-2 -23.5q6 -6 14.5 -1t17.5 16t15 21.5t9 14.5l8 -4q-10 -18 -24.5 -40t-37.5 -26q-20 -6 -26.5 3.5t-1.5 23.5q-6 -6 -12.5 -12t-12.5 -11q-14 -10 -29.5 -5t-13.5 28q2 20 13.5 37.5t17.5 34.5q2 8 7 23.5 t-9 13.5q-23 -4 -42.5 -33t-29.5 -49q-8 -12 -13 -26.5t-12 -31.5h-24l14 39l-2 -2q-6 -6 -20 -10h-19q-10 -14 -22.5 -18.5t-18.5 -4.5q-18 -12 -37 7q-16 16 -13 41.5zM2118 770.5q0 -20.5 16 -20.5q12 0 26.5 21.5t23.5 46t10 45t-13 20.5q-16 0 -31.5 -20.5t-23.5 -46 t-8 -46zM2212 1122v361h45v-316h67v-45h-112zM2249 325.5q2 63.5 16 120.5q4 25 15.5 49.5t31.5 36.5q43 29 94 9q25 -12 39.5 -36t20.5 -53.5t8 -60.5t2 -55l-70 -8q2 29 0 58.5t-10 53.5q-8 18 -23.5 29.5t-29.5 -10.5q-12 -20 -14 -50t-5 -55q-2 -29 -2 -55.5v-52.5 v-54.5t5 -54.5q0 -23 4 -52.5t22 -43.5q23 -14 34 4t16 48t6 59.5t1 40.5h-53v67h121v-291h-53l-2 78q-4 -25 -15.5 -51.5t-35.5 -34.5q-23 -8 -45.5 4t-36.5 31q-29 41 -34 100.5t-5 106.5q-4 59 -2 122.5zM2329 1483h43q8 -45 16 -91t12 -96q2 49 10.5 94.5t16.5 92.5h43 q-10 -51 -20.5 -101.5t-20.5 -101.5q-10 -37 -7 -78t3 -80h-49q0 39 1 80t-7 78q-10 51 -20.5 101.5t-20.5 101.5zM2460 766q8 18 23 10t7 -24t-23.5 -9t-6.5 23zM2480 1153q0 14 8.5 21.5t17.5 7.5t17 -7.5t8 -21.5q0 -16 -8 -23.5t-17 -7.5t-17.5 7.5t-8.5 23.5z M2482 1483h47q0 -66 -2 -133.5t-6 -135.5h-31q-4 68 -6 134.5t-2 134.5zM2505 877q8 14 22 7.5t6 -22.5q-6 -18 -22.5 -11t-5.5 26z" />
<glyph unicode="1" d="M109 831h47q23 41 55.5 81t73.5 63q12 10 32.5 11t24.5 -23q4 -12 -1 -25.5t-9 -24.5q-10 -23 -19.5 -45t-19.5 -45q-6 -16 -19.5 -41.5t-5.5 -44.5q-18 -4 -22 6.5t-1 24.5t9 29.5t10 21.5l-86 -6q-10 -16 -19 -38.5t-12 -45.5q-16 -4 -19 6t0 26.5t9 32t10 19.5l-28 -2 zM135 1122v361h72q51 0 67 -62q8 -33 6.5 -77t-18.5 -76q-14 -23 -35.5 -25t-44.5 -2v-119h-47zM152 -352h2361v-51h-2361v51zM152 1794v53h2361v-53h-2361zM154 545h63q10 -123 17.5 -242t11.5 -240q6 92 12 182.5t16 182.5l13 117h80q12 -98 20 -196.5t14 -196.5l7 -89 q6 96 9 190.5t11 186.5l10 105h86q10 -123 17.5 -242t13.5 -240q6 92 11 182.5t14 182.5q6 29 8 57.5t6 59.5h82q10 -98 18 -196.5t17 -196.5l4 -89q6 96 10 190.5t12 186.5l8 105h89q10 -123 17 -242t11 -240q6 92 11.5 182.5t15.5 182.5l12 117h82q10 -98 18.5 -196.5 t16.5 -196.5l6 -89q6 96 9 190.5t11 186.5q4 27 5.5 52.5t3.5 52.5h63l-43 -580h-96q-10 115 -19.5 229.5t-13.5 231.5q-4 -86 -10 -172t-14 -172l-9 -117h-98l-25 326l-24 -326h-94q-10 115 -20.5 229.5t-14.5 231.5q-4 -86 -9 -172t-14 -172l-10 -117h-96l-25 332 l-24 -332h-97q-10 115 -19 228.5t-13 230.5q-2 -88 -8.5 -172t-14.5 -170l-12 -117h-94zM182 1282q10 0 19.5 -1t15.5 9q10 12 11 34t1 38t-1 36.5t-11 33.5q-6 10 -15 10h-20v-160zM184 831h88l27 64q2 6 8 18.5t10.5 24.5t5 22.5t-7.5 12.5q-16 4 -38.5 -16.5t-32.5 -32.5 q-33 -41 -60 -93zM297 1122v361h115v-49h-70v-101h57v-53h-57v-109h70v-49h-115zM309 782q4 29 16.5 54.5t22.5 48.5q12 0 29 10q-8 -18 -14.5 -35.5t-14.5 -34.5q-2 -6 -8 -17t-10 -23.5t-4 -21.5t8 -11q18 -4 35.5 19.5t23.5 35.5q10 18 16.5 40.5t6.5 45.5q18 4 20 -12.5 t-2 -30.5q-8 -39 -37 -74q16 -6 30.5 6.5t23.5 28.5l14 27q10 18 25.5 32.5t33.5 18.5q16 6 32.5 -2t37.5 -2l-39 -80q-4 -8 -11 -24.5t1 -20.5q10 -10 23.5 4t23.5 31q4 12 10 23t12 24l17 43q18 0 31 10l-39 -90q-4 -8 -10.5 -23.5t1.5 -21.5q8 -10 20.5 3t20.5 30 q8 23 19.5 45t21.5 45t18.5 43t18.5 43q14 -6 29 6l-55 -131q-4 -12 -10.5 -24.5t-10.5 -22.5q-2 -6 -5 -14.5t-3 -14.5t2 -9t12 1t19.5 15t17.5 28q4 10 8 18t8 17q10 18 24.5 32.5t35.5 18.5q18 6 34.5 -2t34.5 -2q-10 -20 -18 -39t-18 -41q-4 -8 -10.5 -24.5t-0.5 -20.5 q6 -6 13.5 -2t14.5 13t13 19.5t11 16.5l2 4l67 158q16 0 27 6q-10 -29 -20.5 -56.5t-26.5 -52.5q14 16 33.5 26.5t33.5 -13.5q14 -23 2 -55.5t-26 -49.5q12 -2 23.5 4t21.5 17q8 23 18 44t21 44l37 86q10 -4 28 6q-16 -33 -28.5 -65.5t-28.5 -65.5q-4 -12 -9 -24.5 t-12 -22.5q-2 -6 -4 -14.5t-2 -14.5t2 -9t13 1q10 4 21 18.5t18 28.5q6 35 26 51q6 8 19.5 18.5t29 15.5t27.5 1t16 -25q2 -18 -7 -34.5t-24.5 -27.5t-34 -17.5t-32.5 -6.5q-2 -14 7 -22t22 -8q27 0 49 17t37 42l8 -4q-16 -33 -48 -53.5t-65 -12.5q-35 6 -35 41 q-8 -12 -16 -22t-18 -15q-14 -10 -30.5 -2.5t-12.5 29.5v4q-4 -4 -9 -4q-8 -8 -24 -8h-14q-4 0 -6.5 -4t-6.5 -4q-20 -16 -44.5 -13.5t-37.5 25.5q-16 -20 -35 -27q-18 -6 -26 7.5t0 29.5q-10 -16 -28.5 -31.5t-37.5 -1.5q-14 8 -14 33q-14 -25 -29 -33q-16 -10 -31.5 -3.5 t-13.5 24.5l-11 -11t-11 -10q-16 -10 -31.5 -3.5t-11.5 26.5q-10 -8 -18.5 -15.5t-18.5 -11.5q-18 -6 -25.5 7.5t0.5 29.5h-2q-10 -16 -27.5 -31.5t-37.5 -1.5q-10 4 -12.5 15.5t-0.5 21.5q-8 -8 -20 -14q-8 -4 -27 -4q-10 0 -12 -2t-8 -6q-23 -16 -49.5 -14.5t-18.5 40.5z M424 1122v361h47h30.5t26.5 -6q20 -12 26.5 -39t6.5 -49v-30t-3 -35t-9 -30.5t-19 -19.5l37 -152h-49l-26 144q-6 0 -12.5 1t-12.5 1v-146h-43zM467 1305q10 0 18.5 -1t14.5 3q12 10 14 29.5t2 35.5t-2 35.5t-14 30.5q-6 4 -14.5 4h-18.5v-137zM468 766q1 -10 13 -10 q14 0 26.5 13t22 32.5t16.5 40t13 35.5q-20 12 -40.5 -7.5t-31.5 -38.5l-8 -16t-9 -25.5t-2 -23.5zM578 1382q-4 27 4 53.5t32 41.5q18 10 45 9t43 -22q18 -20 18.5 -45.5t0.5 -50.5q-12 0 -24.5 1t-22.5 1q0 14 1 30.5t-9 26.5q-18 20 -29.5 4t-13.5 -36q0 -29 15 -44.5 t32 -29.5q16 -14 29.5 -31.5t17.5 -40.5q4 -25 1 -49t-14.5 -43.5t-30 -30t-42.5 -6.5q-43 8 -48 45t-3 76h43q0 -10 -1 -22.5t1 -26.5q4 -14 15 -22.5t24 1.5q10 10 12 30t-2 34q-4 18 -14.5 31.5t-24.5 23.5q-23 16 -37 39t-18 53zM647 946q2 10 10.5 13.5t15.5 1t10 -9.5 t-3 -17q-6 -16 -21.5 -10t-11.5 22zM737 1338q0 48 13 94q6 20 16 35.5t33 17.5q43 10 63 -31q16 -41 17.5 -89t1.5 -91q0 -23 -2 -49.5t-9.5 -49t-20.5 -39t-38 -16.5q-23 0 -36 12.5t-21.5 31t-10.5 40t-4 41.5q-2 45 -2 93zM749 766q1 -10 13 -10q14 0 27.5 13t22.5 32.5 t16.5 40t13.5 35.5q-23 12 -43.5 -7.5t-30.5 -38.5l-8 -16t-9 -25.5t-2 -23.5zM781 1270q-1 -23 1 -45.5t8.5 -41t20.5 -18.5q12 0 17.5 18.5t7.5 41t1 45t-1 33.5q0 8 1 31.5t-1 47t-7.5 42t-17.5 18.5q-14 0 -20.5 -18.5t-8.5 -42t-1 -47t1 -31.5q0 -10 -1 -33zM885 764 q12 -10 23.5 -9t21.5 9t18 18.5t13 20.5q2 6 8 18.5t8 24.5t0 21.5t-14 9.5q-14 0 -25.5 -12.5t-21 -31t-17.5 -38t-14 -31.5zM899 1122v361h41q16 -63 31.5 -125t27.5 -127q-4 61 -5 124.5t-1 127.5h43v-361h-45q-14 59 -29.5 122t-27.5 126q4 -43 4 -84t4 -84v-80h-43z M1049 1122l36 361h74l39 -361h-43l-10 88h-45l-8 -88h-43zM1090 14q0 25 12 36t27.5 11t28.5 -11t13 -36t-13 -36t-28.5 -11t-27.5 11.5t-12 35.5zM1104 1260h37q-4 43 -9.5 84.5t-7.5 85.5q-2 -27 -6 -55.5t-8 -57.5zM1110 793q23 0 51.5 22.5t28.5 50.5q0 16 -11.5 15.5 t-21.5 -9.5q-10 -8 -18.5 -21.5t-14.5 -25.5q-12 -20 -14 -32zM1194 -35l61 580h119l64 -580h-74l-14 137h-70l-16 -137h-70zM1208 1122v361h47v-316h66v-45h-113zM1284 184h62q-6 70 -17.5 138.5t-15.5 140.5q-2 -47 -7.5 -92t-9.5 -92q-4 -23 -6 -47.5t-6 -47.5zM1296 772 q0 18 9.5 35.5t15.5 34.5q14 18 20 43q20 0 31 10l-39 -90q-4 -8 -11 -23.5t-1 -21.5t15.5 0t17.5 16t14 20.5t8 14.5l31 76q12 -2 31 8q-8 -14 -13.5 -25.5t-13.5 -21.5v-4q12 16 30.5 32.5t37.5 18.5q25 0 23.5 -22.5t-9.5 -38.5q-2 -4 -8 -14.5t-11.5 -21t-9.5 -20.5 t0 -16q4 -10 13.5 -4t17.5 16t15.5 21.5t9.5 15.5l8 -4q-10 -16 -20.5 -33.5t-26.5 -28.5q-14 -10 -28.5 -5t-12.5 28q2 20 13 37.5t17 34.5q2 8 6.5 23.5t-10.5 13.5q-23 -4 -41 -33t-28 -49l-25 -58h-24l8 23q-4 -4 -8.5 -8t-8.5 -7q-16 -10 -31.5 -2.5t-11.5 29.5z M1356 946q6 20 24.5 14t10.5 -26q-8 -16 -23.5 -10t-11.5 22zM1390 1252.5q1 33.5 1 60.5v170h47v-252q0 -10 -1 -23.5t3 -23.5q4 -12 14 -17.5t21 4.5q10 10 11 31t1 35q2 29 1 57.5t-1 57.5v131h45v-170q0 -27 1 -60.5t-3 -62.5t-19.5 -49.5t-48.5 -20.5t-48 20.5 t-20 49.5t-4 62.5zM1470 -35v580h76h45.5t42.5 -10q37 -18 47.5 -64.5t10.5 -87.5v-45t-5.5 -52.5t-16.5 -46t-30 -28.5l64 -246h-82l-43 232h-35v-232h-74zM1544 256q12 0 25.5 -2t23.5 8q18 18 22.5 48t4.5 52q0 27 -4 58t-21 49q-10 10 -24.5 9t-26.5 -1v-221zM1550 676 l92 219h-30l8 14h31q6 18 16 38t31 24q12 4 31 -2q4 -4 11 -11.5t1 -15.5q-10 -8 -14.5 0t-2.5 19q-10 4 -18 -0.5t-14 -13.5t-10.5 -19t-6.5 -19h29l-6 -14h-29l-92 -213q-14 0 -27 -6zM1552 1202.5v38.5h45q0 -10 -2 -22.5t2 -26.5t14.5 -22.5t22.5 1.5q14 10 16.5 30 t-1.5 34q-4 18 -15.5 31.5t-25.5 23.5q-47 31 -56 92q-2 27 5.5 53.5t29.5 41.5q20 10 46 9t42 -22q18 -20 17.5 -45.5t-0.5 -50.5q-10 0 -20.5 1t-20.5 1q0 14 1 30.5t-12 26.5q-18 20 -29.5 4t-13.5 -36q0 -29 14.5 -44.5t30.5 -29.5q37 -27 50 -72q4 -25 1 -49 t-14.5 -43.5t-30 -30t-44.5 -6.5q-20 4 -30.5 16.5t-16 29t-5.5 37zM1658 769.5q3 16.5 9 33.5l35 82q14 0 29 10l-27 -64q-4 -10 -16.5 -34.5t-4.5 -34.5q12 -12 30 5t24 28q6 10 10 19t12 20l25 55q6 0 12 2l12 4q-8 -23 -17 -44.5t-19 -43.5q-4 -10 -10.5 -23.5 t-0.5 -23.5q8 -12 20.5 2t22.5 31q8 23 19.5 45t21.5 45q8 23 17.5 43t19.5 43q12 -6 29 6l-58 -131l-20 -47q-2 -6 -4 -14.5t-3 -14.5t2 -9t11 1q18 6 33 31q8 23 19.5 46t21.5 46q8 23 16 43t19 43q14 -6 30 6l-57 -131l-20 -47q-2 -6 -4.5 -14.5t-3.5 -14.5t1 -9t13 1 q14 4 24.5 20.5t16.5 30.5l8 -4q-10 -18 -20.5 -34.5t-26.5 -27.5q-14 -10 -28.5 -3.5t-12.5 24.5q-14 -14 -27 -21q-14 -10 -28.5 -3.5t-12.5 26.5q-10 -12 -19 -21.5t-22 -9.5q-20 0 -22 14.5t4 28.5q-12 -16 -34 -32.5t-38 -4.5q-14 10 -11 26.5zM1712 1122v361h113v-49 h-66v-101h56v-53h-56v-109h66v-49h-113zM1735 -35v580h73v-580h-73zM1853 14q0 25 12.5 36t28 11t28.5 -11t13 -36t-13 -36t-28.5 -11t-28 11.5t-12.5 35.5zM1894 1338q0 48 13 94q6 20 17 35.5t30 17.5q41 10 65 -31q18 -41 18.5 -89t0.5 -91q0 -23 -1 -49.5t-8.5 -49 t-21.5 -39t-39 -16.5q-23 0 -36 12.5t-20 31t-10.5 40t-3.5 41.5q-4 45 -4 93zM1938 1270q-1 -23 1.5 -45.5t8.5 -41t20 -18.5q12 0 18.5 18.5t8.5 41t1 45t-1 33.5q0 8 1 31.5t-1 47t-8.5 42t-18.5 18.5q-14 0 -20 -18.5t-8.5 -42t-1.5 -47t1 -31.5q0 -10 -1 -33zM1976 676 l97 219h-33l6 14h33q6 18 16 38t31 24q12 4 31 -2q4 -4 12 -11.5t-2 -15.5t-13.5 0t-1.5 19q-10 4 -18 -0.5t-14 -13.5t-10.5 -19t-6.5 -19h29l-6 -14h-29l-92 -213q-14 0 -29 -6zM1982 -35v580h66q27 -102 52.5 -201.5t45.5 -204.5q-8 102 -9 202.5t-1 203.5h68v-580h-70 q-25 98 -51.5 197.5t-44.5 199.5q4 -68 6 -134t6 -134v-129h-68zM2056 1122v361h41q16 -63 32.5 -125t29.5 -127q-4 61 -5.5 124.5t-1.5 127.5h43v-361h-45q-16 59 -31.5 122t-27.5 126q4 -43 5 -84t3 -84v-80h-43zM2094 789.5q3 25.5 11 48.5q10 23 28.5 40t45.5 17 q20 0 29.5 -14.5t9.5 -34t-7 -40t-16 -32.5q27 0 41 27l37 86q14 -2 29 8q-6 -14 -11 -25.5t-16 -21.5v-4q14 16 31.5 32.5t36.5 18.5q25 0 23.5 -22.5t-7.5 -38.5q-4 -4 -9 -14.5t-11 -21t-9 -20.5t1 -16q4 -8 11 -4t14 12t14.5 18.5t11.5 16.5l41 90h-17l7 14h16l16 39 q12 0 29 8l-20 -47h30l-8 -14h-29l-37 -88q-4 -10 -10 -23.5t-2 -23.5q6 -6 14.5 -1t17.5 16t15 21.5t9 14.5l8 -4q-10 -18 -24.5 -40t-37.5 -26q-20 -6 -26.5 3.5t-1.5 23.5q-6 -6 -12.5 -12t-12.5 -11q-14 -10 -29.5 -5t-13.5 28q2 20 13.5 37.5t17.5 34.5q2 8 7 23.5 t-9 13.5q-23 -4 -42.5 -33t-29.5 -49q-8 -12 -13 -26.5t-12 -31.5h-24l14 39l-2 -2q-6 -6 -20 -10h-19q-10 -14 -22.5 -18.5t-18.5 -4.5q-18 -12 -37 7q-16 16 -13 41.5zM2118 770.5q0 -20.5 16 -20.5q12 0 26.5 21.5t23.5 46t10 45t-13 20.5q-16 0 -31.5 -20.5t-23.5 -46 t-8 -46zM2212 1122v361h45v-316h67v-45h-112zM2249 325.5q2 63.5 16 120.5q4 25 15.5 49.5t31.5 36.5q43 29 94 9q25 -12 39.5 -36t20.5 -53.5t8 -60.5t2 -55l-70 -8q2 29 0 58.5t-10 53.5q-8 18 -23.5 29.5t-29.5 -10.5q-12 -20 -14 -50t-5 -55q-2 -29 -2 -55.5v-52.5 v-54.5t5 -54.5q0 -23 4 -52.5t22 -43.5q23 -14 34 4t16 48t6 59.5t1 40.5h-53v67h121v-291h-53l-2 78q-4 -25 -15.5 -51.5t-35.5 -34.5q-23 -8 -45.5 4t-36.5 31q-29 41 -34 100.5t-5 106.5q-4 59 -2 122.5zM2329 1483h43q8 -45 16 -91t12 -96q2 49 10.5 94.5t16.5 92.5h43 q-10 -51 -20.5 -101.5t-20.5 -101.5q-10 -37 -7 -78t3 -80h-49q0 39 1 80t-7 78q-10 51 -20.5 101.5t-20.5 101.5zM2460 766q8 18 23 10t7 -24t-23.5 -9t-6.5 23zM2480 1153q0 14 8.5 21.5t17.5 7.5t17 -7.5t8 -21.5q0 -16 -8 -23.5t-17 -7.5t-17.5 7.5t-8.5 23.5z M2482 1483h47q0 -66 -2 -133.5t-6 -135.5h-31q-4 68 -6 134.5t-2 134.5zM2505 877q8 14 22 7.5t6 -22.5q-6 -18 -22.5 -11t-5.5 26z" />
<glyph unicode="2" d="M109 831h47q23 41 55.5 81t73.5 63q12 10 32.5 11t24.5 -23q4 -12 -1 -25.5t-9 -24.5q-10 -23 -19.5 -45t-19.5 -45q-6 -16 -19.5 -41.5t-5.5 -44.5q-18 -4 -22 6.5t-1 24.5t9 29.5t10 21.5l-86 -6q-10 -16 -19 -38.5t-12 -45.5q-16 -4 -19 6t0 26.5t9 32t10 19.5l-28 -2 zM135 1122v361h72q51 0 67 -62q8 -33 6.5 -77t-18.5 -76q-14 -23 -35.5 -25t-44.5 -2v-119h-47zM152 -352h2361v-51h-2361v51zM152 1794v53h2361v-53h-2361zM154 545h63q10 -123 17.5 -242t11.5 -240q6 92 12 182.5t16 182.5l13 117h80q12 -98 20 -196.5t14 -196.5l7 -89 q6 96 9 190.5t11 186.5l10 105h86q10 -123 17.5 -242t13.5 -240q6 92 11 182.5t14 182.5q6 29 8 57.5t6 59.5h82q10 -98 18 -196.5t17 -196.5l4 -89q6 96 10 190.5t12 186.5l8 105h89q10 -123 17 -242t11 -240q6 92 11.5 182.5t15.5 182.5l12 117h82q10 -98 18.5 -196.5 t16.5 -196.5l6 -89q6 96 9 190.5t11 186.5q4 27 5.5 52.5t3.5 52.5h63l-43 -580h-96q-10 115 -19.5 229.5t-13.5 231.5q-4 -86 -10 -172t-14 -172l-9 -117h-98l-25 326l-24 -326h-94q-10 115 -20.5 229.5t-14.5 231.5q-4 -86 -9 -172t-14 -172l-10 -117h-96l-25 332 l-24 -332h-97q-10 115 -19 228.5t-13 230.5q-2 -88 -8.5 -172t-14.5 -170l-12 -117h-94zM182 1282q10 0 19.5 -1t15.5 9q10 12 11 34t1 38t-1 36.5t-11 33.5q-6 10 -15 10h-20v-160zM184 831h88l27 64q2 6 8 18.5t10.5 24.5t5 22.5t-7.5 12.5q-16 4 -38.5 -16.5t-32.5 -32.5 q-33 -41 -60 -93zM297 1122v361h115v-49h-70v-101h57v-53h-57v-109h70v-49h-115zM309 782q4 29 16.5 54.5t22.5 48.5q12 0 29 10q-8 -18 -14.5 -35.5t-14.5 -34.5q-2 -6 -8 -17t-10 -23.5t-4 -21.5t8 -11q18 -4 35.5 19.5t23.5 35.5q10 18 16.5 40.5t6.5 45.5q18 4 20 -12.5 t-2 -30.5q-8 -39 -37 -74q16 -6 30.5 6.5t23.5 28.5l14 27q10 18 25.5 32.5t33.5 18.5q16 6 32.5 -2t37.5 -2l-39 -80q-4 -8 -11 -24.5t1 -20.5q10 -10 23.5 4t23.5 31q4 12 10 23t12 24l17 43q18 0 31 10l-39 -90q-4 -8 -10.5 -23.5t1.5 -21.5q8 -10 20.5 3t20.5 30 q8 23 19.5 45t21.5 45t18.5 43t18.5 43q14 -6 29 6l-55 -131q-4 -12 -10.5 -24.5t-10.5 -22.5q-2 -6 -5 -14.5t-3 -14.5t2 -9t12 1t19.5 15t17.5 28q4 10 8 18t8 17q10 18 24.5 32.5t35.5 18.5q18 6 34.5 -2t34.5 -2q-10 -20 -18 -39t-18 -41q-4 -8 -10.5 -24.5t-0.5 -20.5 q6 -6 13.5 -2t14.5 13t13 19.5t11 16.5l2 4l67 158q16 0 27 6q-10 -29 -20.5 -56.5t-26.5 -52.5q14 16 33.5 26.5t33.5 -13.5q14 -23 2 -55.5t-26 -49.5q12 -2 23.5 4t21.5 17q8 23 18 44t21 44l37 86q10 -4 28 6q-16 -33 -28.5 -65.5t-28.5 -65.5q-4 -12 -9 -24.5 t-12 -22.5q-2 -6 -4 -14.5t-2 -14.5t2 -9t13 1q10 4 21 18.5t18 28.5q6 35 26 51q6 8 19.5 18.5t29 15.5t27.5 1t16 -25q2 -18 -7 -34.5t-24.5 -27.5t-34 -17.5t-32.5 -6.5q-2 -14 7 -22t22 -8q27 0 49 17t37 42l8 -4q-16 -33 -48 -53.5t-65 -12.5q-35 6 -35 41 q-8 -12 -16 -22t-18 -15q-14 -10 -30.5 -2.5t-12.5 29.5v4q-4 -4 -9 -4q-8 -8 -24 -8h-14q-4 0 -6.5 -4t-6.5 -4q-20 -16 -44.5 -13.5t-37.5 25.5q-16 -20 -35 -27q-18 -6 -26 7.5t0 29.5q-10 -16 -28.5 -31.5t-37.5 -1.5q-14 8 -14 33q-14 -25 -29 -33q-16 -10 -31.5 -3.5 t-13.5 24.5l-11 -11t-11 -10q-16 -10 -31.5 -3.5t-11.5 26.5q-10 -8 -18.5 -15.5t-18.5 -11.5q-18 -6 -25.5 7.5t0.5 29.5h-2q-10 -16 -27.5 -31.5t-37.5 -1.5q-10 4 -12.5 15.5t-0.5 21.5q-8 -8 -20 -14q-8 -4 -27 -4q-10 0 -12 -2t-8 -6q-23 -16 -49.5 -14.5t-18.5 40.5z M424 1122v361h47h30.5t26.5 -6q20 -12 26.5 -39t6.5 -49v-30t-3 -35t-9 -30.5t-19 -19.5l37 -152h-49l-26 144q-6 0 -12.5 1t-12.5 1v-146h-43zM467 1305q10 0 18.5 -1t14.5 3q12 10 14 29.5t2 35.5t-2 35.5t-14 30.5q-6 4 -14.5 4h-18.5v-137zM468 766q1 -10 13 -10 q14 0 26.5 13t22 32.5t16.5 40t13 35.5q-20 12 -40.5 -7.5t-31.5 -38.5l-8 -16t-9 -25.5t-2 -23.5zM578 1382q-4 27 4 53.5t32 41.5q18 10 45 9t43 -22q18 -20 18.5 -45.5t0.5 -50.5q-12 0 -24.5 1t-22.5 1q0 14 1 30.5t-9 26.5q-18 20 -29.5 4t-13.5 -36q0 -29 15 -44.5 t32 -29.5q16 -14 29.5 -31.5t17.5 -40.5q4 -25 1 -49t-14.5 -43.5t-30 -30t-42.5 -6.5q-43 8 -48 45t-3 76h43q0 -10 -1 -22.5t1 -26.5q4 -14 15 -22.5t24 1.5q10 10 12 30t-2 34q-4 18 -14.5 31.5t-24.5 23.5q-23 16 -37 39t-18 53zM647 946q2 10 10.5 13.5t15.5 1t10 -9.5 t-3 -17q-6 -16 -21.5 -10t-11.5 22zM737 1338q0 48 13 94q6 20 16 35.5t33 17.5q43 10 63 -31q16 -41 17.5 -89t1.5 -91q0 -23 -2 -49.5t-9.5 -49t-20.5 -39t-38 -16.5q-23 0 -36 12.5t-21.5 31t-10.5 40t-4 41.5q-2 45 -2 93zM749 766q1 -10 13 -10q14 0 27.5 13t22.5 32.5 t16.5 40t13.5 35.5q-23 12 -43.5 -7.5t-30.5 -38.5l-8 -16t-9 -25.5t-2 -23.5zM781 1270q-1 -23 1 -45.5t8.5 -41t20.5 -18.5q12 0 17.5 18.5t7.5 41t1 45t-1 33.5q0 8 1 31.5t-1 47t-7.5 42t-17.5 18.5q-14 0 -20.5 -18.5t-8.5 -42t-1 -47t1 -31.5q0 -10 -1 -33zM885 764 q12 -10 23.5 -9t21.5 9t18 18.5t13 20.5q2 6 8 18.5t8 24.5t0 21.5t-14 9.5q-14 0 -25.5 -12.5t-21 -31t-17.5 -38t-14 -31.5zM899 1122v361h41q16 -63 31.5 -125t27.5 -127q-4 61 -5 124.5t-1 127.5h43v-361h-45q-14 59 -29.5 122t-27.5 126q4 -43 4 -84t4 -84v-80h-43z M1049 1122l36 361h74l39 -361h-43l-10 88h-45l-8 -88h-43zM1090 14q0 25 12 36t27.5 11t28.5 -11t13 -36t-13 -36t-28.5 -11t-27.5 11.5t-12 35.5zM1104 1260h37q-4 43 -9.5 84.5t-7.5 85.5q-2 -27 -6 -55.5t-8 -57.5zM1110 793q23 0 51.5 22.5t28.5 50.5q0 16 -11.5 15.5 t-21.5 -9.5q-10 -8 -18.5 -21.5t-14.5 -25.5q-12 -20 -14 -32zM1194 -35l61 580h119l64 -580h-74l-14 137h-70l-16 -137h-70zM1208 1122v361h47v-316h66v-45h-113zM1284 184h62q-6 70 -17.5 138.5t-15.5 140.5q-2 -47 -7.5 -92t-9.5 -92q-4 -23 -6 -47.5t-6 -47.5zM1296 772 q0 18 9.5 35.5t15.5 34.5q14 18 20 43q20 0 31 10l-39 -90q-4 -8 -11 -23.5t-1 -21.5t15.5 0t17.5 16t14 20.5t8 14.5l31 76q12 -2 31 8q-8 -14 -13.5 -25.5t-13.5 -21.5v-4q12 16 30.5 32.5t37.5 18.5q25 0 23.5 -22.5t-9.5 -38.5q-2 -4 -8 -14.5t-11.5 -21t-9.5 -20.5 t0 -16q4 -10 13.5 -4t17.5 16t15.5 21.5t9.5 15.5l8 -4q-10 -16 -20.5 -33.5t-26.5 -28.5q-14 -10 -28.5 -5t-12.5 28q2 20 13 37.5t17 34.5q2 8 6.5 23.5t-10.5 13.5q-23 -4 -41 -33t-28 -49l-25 -58h-24l8 23q-4 -4 -8.5 -8t-8.5 -7q-16 -10 -31.5 -2.5t-11.5 29.5z M1356 946q6 20 24.5 14t10.5 -26q-8 -16 -23.5 -10t-11.5 22zM1390 1252.5q1 33.5 1 60.5v170h47v-252q0 -10 -1 -23.5t3 -23.5q4 -12 14 -17.5t21 4.5q10 10 11 31t1 35q2 29 1 57.5t-1 57.5v131h45v-170q0 -27 1 -60.5t-3 -62.5t-19.5 -49.5t-48.5 -20.5t-48 20.5 t-20 49.5t-4 62.5zM1470 -35v580h76h45.5t42.5 -10q37 -18 47.5 -64.5t10.5 -87.5v-45t-5.5 -52.5t-16.5 -46t-30 -28.5l64 -246h-82l-43 232h-35v-232h-74zM1544 256q12 0 25.5 -2t23.5 8q18 18 22.5 48t4.5 52q0 27 -4 58t-21 49q-10 10 -24.5 9t-26.5 -1v-221zM1550 676 l92 219h-30l8 14h31q6 18 16 38t31 24q12 4 31 -2q4 -4 11 -11.5t1 -15.5q-10 -8 -14.5 0t-2.5 19q-10 4 -18 -0.5t-14 -13.5t-10.5 -19t-6.5 -19h29l-6 -14h-29l-92 -213q-14 0 -27 -6zM1552 1202.5v38.5h45q0 -10 -2 -22.5t2 -26.5t14.5 -22.5t22.5 1.5q14 10 16.5 30 t-1.5 34q-4 18 -15.5 31.5t-25.5 23.5q-47 31 -56 92q-2 27 5.5 53.5t29.5 41.5q20 10 46 9t42 -22q18 -20 17.5 -45.5t-0.5 -50.5q-10 0 -20.5 1t-20.5 1q0 14 1 30.5t-12 26.5q-18 20 -29.5 4t-13.5 -36q0 -29 14.5 -44.5t30.5 -29.5q37 -27 50 -72q4 -25 1 -49 t-14.5 -43.5t-30 -30t-44.5 -6.5q-20 4 -30.5 16.5t-16 29t-5.5 37zM1658 769.5q3 16.5 9 33.5l35 82q14 0 29 10l-27 -64q-4 -10 -16.5 -34.5t-4.5 -34.5q12 -12 30 5t24 28q6 10 10 19t12 20l25 55q6 0 12 2l12 4q-8 -23 -17 -44.5t-19 -43.5q-4 -10 -10.5 -23.5 t-0.5 -23.5q8 -12 20.5 2t22.5 31q8 23 19.5 45t21.5 45q8 23 17.5 43t19.5 43q12 -6 29 6l-58 -131l-20 -47q-2 -6 -4 -14.5t-3 -14.5t2 -9t11 1q18 6 33 31q8 23 19.5 46t21.5 46q8 23 16 43t19 43q14 -6 30 6l-57 -131l-20 -47q-2 -6 -4.5 -14.5t-3.5 -14.5t1 -9t13 1 q14 4 24.5 20.5t16.5 30.5l8 -4q-10 -18 -20.5 -34.5t-26.5 -27.5q-14 -10 -28.5 -3.5t-12.5 24.5q-14 -14 -27 -21q-14 -10 -28.5 -3.5t-12.5 26.5q-10 -12 -19 -21.5t-22 -9.5q-20 0 -22 14.5t4 28.5q-12 -16 -34 -32.5t-38 -4.5q-14 10 -11 26.5zM1712 1122v361h113v-49 h-66v-101h56v-53h-56v-109h66v-49h-113zM1735 -35v580h73v-580h-73zM1853 14q0 25 12.5 36t28 11t28.5 -11t13 -36t-13 -36t-28.5 -11t-28 11.5t-12.5 35.5zM1894 1338q0 48 13 94q6 20 17 35.5t30 17.5q41 10 65 -31q18 -41 18.5 -89t0.5 -91q0 -23 -1 -49.5t-8.5 -49 t-21.5 -39t-39 -16.5q-23 0 -36 12.5t-20 31t-10.5 40t-3.5 41.5q-4 45 -4 93zM1938 1270q-1 -23 1.5 -45.5t8.5 -41t20 -18.5q12 0 18.5 18.5t8.5 41t1 45t-1 33.5q0 8 1 31.5t-1 47t-8.5 42t-18.5 18.5q-14 0 -20 -18.5t-8.5 -42t-1.5 -47t1 -31.5q0 -10 -1 -33zM1976 676 l97 219h-33l6 14h33q6 18 16 38t31 24q12 4 31 -2q4 -4 12 -11.5t-2 -15.5t-13.5 0t-1.5 19q-10 4 -18 -0.5t-14 -13.5t-10.5 -19t-6.5 -19h29l-6 -14h-29l-92 -213q-14 0 -29 -6zM1982 -35v580h66q27 -102 52.5 -201.5t45.5 -204.5q-8 102 -9 202.5t-1 203.5h68v-580h-70 q-25 98 -51.5 197.5t-44.5 199.5q4 -68 6 -134t6 -134v-129h-68zM2056 1122v361h41q16 -63 32.5 -125t29.5 -127q-4 61 -5.5 124.5t-1.5 127.5h43v-361h-45q-16 59 -31.5 122t-27.5 126q4 -43 5 -84t3 -84v-80h-43zM2094 789.5q3 25.5 11 48.5q10 23 28.5 40t45.5 17 q20 0 29.5 -14.5t9.5 -34t-7 -40t-16 -32.5q27 0 41 27l37 86q14 -2 29 8q-6 -14 -11 -25.5t-16 -21.5v-4q14 16 31.5 32.5t36.5 18.5q25 0 23.5 -22.5t-7.5 -38.5q-4 -4 -9 -14.5t-11 -21t-9 -20.5t1 -16q4 -8 11 -4t14 12t14.5 18.5t11.5 16.5l41 90h-17l7 14h16l16 39 q12 0 29 8l-20 -47h30l-8 -14h-29l-37 -88q-4 -10 -10 -23.5t-2 -23.5q6 -6 14.5 -1t17.5 16t15 21.5t9 14.5l8 -4q-10 -18 -24.5 -40t-37.5 -26q-20 -6 -26.5 3.5t-1.5 23.5q-6 -6 -12.5 -12t-12.5 -11q-14 -10 -29.5 -5t-13.5 28q2 20 13.5 37.5t17.5 34.5q2 8 7 23.5 t-9 13.5q-23 -4 -42.5 -33t-29.5 -49q-8 -12 -13 -26.5t-12 -31.5h-24l14 39l-2 -2q-6 -6 -20 -10h-19q-10 -14 -22.5 -18.5t-18.5 -4.5q-18 -12 -37 7q-16 16 -13 41.5zM2118 770.5q0 -20.5 16 -20.5q12 0 26.5 21.5t23.5 46t10 45t-13 20.5q-16 0 -31.5 -20.5t-23.5 -46 t-8 -46zM2212 1122v361h45v-316h67v-45h-112zM2249 325.5q2 63.5 16 120.5q4 25 15.5 49.5t31.5 36.5q43 29 94 9q25 -12 39.5 -36t20.5 -53.5t8 -60.5t2 -55l-70 -8q2 29 0 58.5t-10 53.5q-8 18 -23.5 29.5t-29.5 -10.5q-12 -20 -14 -50t-5 -55q-2 -29 -2 -55.5v-52.5 v-54.5t5 -54.5q0 -23 4 -52.5t22 -43.5q23 -14 34 4t16 48t6 59.5t1 40.5h-53v67h121v-291h-53l-2 78q-4 -25 -15.5 -51.5t-35.5 -34.5q-23 -8 -45.5 4t-36.5 31q-29 41 -34 100.5t-5 106.5q-4 59 -2 122.5zM2329 1483h43q8 -45 16 -91t12 -96q2 49 10.5 94.5t16.5 92.5h43 q-10 -51 -20.5 -101.5t-20.5 -101.5q-10 -37 -7 -78t3 -80h-49q0 39 1 80t-7 78q-10 51 -20.5 101.5t-20.5 101.5zM2460 766q8 18 23 10t7 -24t-23.5 -9t-6.5 23zM2480 1153q0 14 8.5 21.5t17.5 7.5t17 -7.5t8 -21.5q0 -16 -8 -23.5t-17 -7.5t-17.5 7.5t-8.5 23.5z M2482 1483h47q0 -66 -2 -133.5t-6 -135.5h-31q-4 68 -6 134.5t-2 134.5zM2505 877q8 14 22 7.5t6 -22.5q-6 -18 -22.5 -11t-5.5 26z" />
<glyph unicode="3" d="M109 831h47q23 41 55.5 81t73.5 63q12 10 32.5 11t24.5 -23q4 -12 -1 -25.5t-9 -24.5q-10 -23 -19.5 -45t-19.5 -45q-6 -16 -19.5 -41.5t-5.5 -44.5q-18 -4 -22 6.5t-1 24.5t9 29.5t10 21.5l-86 -6q-10 -16 -19 -38.5t-12 -45.5q-16 -4 -19 6t0 26.5t9 32t10 19.5l-28 -2 zM135 1122v361h72q51 0 67 -62q8 -33 6.5 -77t-18.5 -76q-14 -23 -35.5 -25t-44.5 -2v-119h-47zM152 -352h2361v-51h-2361v51zM152 1794v53h2361v-53h-2361zM154 545h63q10 -123 17.5 -242t11.5 -240q6 92 12 182.5t16 182.5l13 117h80q12 -98 20 -196.5t14 -196.5l7 -89 q6 96 9 190.5t11 186.5l10 105h86q10 -123 17.5 -242t13.5 -240q6 92 11 182.5t14 182.5q6 29 8 57.5t6 59.5h82q10 -98 18 -196.5t17 -196.5l4 -89q6 96 10 190.5t12 186.5l8 105h89q10 -123 17 -242t11 -240q6 92 11.5 182.5t15.5 182.5l12 117h82q10 -98 18.5 -196.5 t16.5 -196.5l6 -89q6 96 9 190.5t11 186.5q4 27 5.5 52.5t3.5 52.5h63l-43 -580h-96q-10 115 -19.5 229.5t-13.5 231.5q-4 -86 -10 -172t-14 -172l-9 -117h-98l-25 326l-24 -326h-94q-10 115 -20.5 229.5t-14.5 231.5q-4 -86 -9 -172t-14 -172l-10 -117h-96l-25 332 l-24 -332h-97q-10 115 -19 228.5t-13 230.5q-2 -88 -8.5 -172t-14.5 -170l-12 -117h-94zM182 1282q10 0 19.5 -1t15.5 9q10 12 11 34t1 38t-1 36.5t-11 33.5q-6 10 -15 10h-20v-160zM184 831h88l27 64q2 6 8 18.5t10.5 24.5t5 22.5t-7.5 12.5q-16 4 -38.5 -16.5t-32.5 -32.5 q-33 -41 -60 -93zM297 1122v361h115v-49h-70v-101h57v-53h-57v-109h70v-49h-115zM309 782q4 29 16.5 54.5t22.5 48.5q12 0 29 10q-8 -18 -14.5 -35.5t-14.5 -34.5q-2 -6 -8 -17t-10 -23.5t-4 -21.5t8 -11q18 -4 35.5 19.5t23.5 35.5q10 18 16.5 40.5t6.5 45.5q18 4 20 -12.5 t-2 -30.5q-8 -39 -37 -74q16 -6 30.5 6.5t23.5 28.5l14 27q10 18 25.5 32.5t33.5 18.5q16 6 32.5 -2t37.5 -2l-39 -80q-4 -8 -11 -24.5t1 -20.5q10 -10 23.5 4t23.5 31q4 12 10 23t12 24l17 43q18 0 31 10l-39 -90q-4 -8 -10.5 -23.5t1.5 -21.5q8 -10 20.5 3t20.5 30 q8 23 19.5 45t21.5 45t18.5 43t18.5 43q14 -6 29 6l-55 -131q-4 -12 -10.5 -24.5t-10.5 -22.5q-2 -6 -5 -14.5t-3 -14.5t2 -9t12 1t19.5 15t17.5 28q4 10 8 18t8 17q10 18 24.5 32.5t35.5 18.5q18 6 34.5 -2t34.5 -2q-10 -20 -18 -39t-18 -41q-4 -8 -10.5 -24.5t-0.5 -20.5 q6 -6 13.5 -2t14.5 13t13 19.5t11 16.5l2 4l67 158q16 0 27 6q-10 -29 -20.5 -56.5t-26.5 -52.5q14 16 33.5 26.5t33.5 -13.5q14 -23 2 -55.5t-26 -49.5q12 -2 23.5 4t21.5 17q8 23 18 44t21 44l37 86q10 -4 28 6q-16 -33 -28.5 -65.5t-28.5 -65.5q-4 -12 -9 -24.5 t-12 -22.5q-2 -6 -4 -14.5t-2 -14.5t2 -9t13 1q10 4 21 18.5t18 28.5q6 35 26 51q6 8 19.5 18.5t29 15.5t27.5 1t16 -25q2 -18 -7 -34.5t-24.5 -27.5t-34 -17.5t-32.5 -6.5q-2 -14 7 -22t22 -8q27 0 49 17t37 42l8 -4q-16 -33 -48 -53.5t-65 -12.5q-35 6 -35 41 q-8 -12 -16 -22t-18 -15q-14 -10 -30.5 -2.5t-12.5 29.5v4q-4 -4 -9 -4q-8 -8 -24 -8h-14q-4 0 -6.5 -4t-6.5 -4q-20 -16 -44.5 -13.5t-37.5 25.5q-16 -20 -35 -27q-18 -6 -26 7.5t0 29.5q-10 -16 -28.5 -31.5t-37.5 -1.5q-14 8 -14 33q-14 -25 -29 -33q-16 -10 -31.5 -3.5 t-13.5 24.5l-11 -11t-11 -10q-16 -10 -31.5 -3.5t-11.5 26.5q-10 -8 -18.5 -15.5t-18.5 -11.5q-18 -6 -25.5 7.5t0.5 29.5h-2q-10 -16 -27.5 -31.5t-37.5 -1.5q-10 4 -12.5 15.5t-0.5 21.5q-8 -8 -20 -14q-8 -4 -27 -4q-10 0 -12 -2t-8 -6q-23 -16 -49.5 -14.5t-18.5 40.5z M424 1122v361h47h30.5t26.5 -6q20 -12 26.5 -39t6.5 -49v-30t-3 -35t-9 -30.5t-19 -19.5l37 -152h-49l-26 144q-6 0 -12.5 1t-12.5 1v-146h-43zM467 1305q10 0 18.5 -1t14.5 3q12 10 14 29.5t2 35.5t-2 35.5t-14 30.5q-6 4 -14.5 4h-18.5v-137zM468 766q1 -10 13 -10 q14 0 26.5 13t22 32.5t16.5 40t13 35.5q-20 12 -40.5 -7.5t-31.5 -38.5l-8 -16t-9 -25.5t-2 -23.5zM578 1382q-4 27 4 53.5t32 41.5q18 10 45 9t43 -22q18 -20 18.5 -45.5t0.5 -50.5q-12 0 -24.5 1t-22.5 1q0 14 1 30.5t-9 26.5q-18 20 -29.5 4t-13.5 -36q0 -29 15 -44.5 t32 -29.5q16 -14 29.5 -31.5t17.5 -40.5q4 -25 1 -49t-14.5 -43.5t-30 -30t-42.5 -6.5q-43 8 -48 45t-3 76h43q0 -10 -1 -22.5t1 -26.5q4 -14 15 -22.5t24 1.5q10 10 12 30t-2 34q-4 18 -14.5 31.5t-24.5 23.5q-23 16 -37 39t-18 53zM647 946q2 10 10.5 13.5t15.5 1t10 -9.5 t-3 -17q-6 -16 -21.5 -10t-11.5 22zM737 1338q0 48 13 94q6 20 16 35.5t33 17.5q43 10 63 -31q16 -41 17.5 -89t1.5 -91q0 -23 -2 -49.5t-9.5 -49t-20.5 -39t-38 -16.5q-23 0 -36 12.5t-21.5 31t-10.5 40t-4 41.5q-2 45 -2 93zM749 766q1 -10 13 -10q14 0 27.5 13t22.5 32.5 t16.5 40t13.5 35.5q-23 12 -43.5 -7.5t-30.5 -38.5l-8 -16t-9 -25.5t-2 -23.5zM781 1270q-1 -23 1 -45.5t8.5 -41t20.5 -18.5q12 0 17.5 18.5t7.5 41t1 45t-1 33.5q0 8 1 31.5t-1 47t-7.5 42t-17.5 18.5q-14 0 -20.5 -18.5t-8.5 -42t-1 -47t1 -31.5q0 -10 -1 -33zM885 764 q12 -10 23.5 -9t21.5 9t18 18.5t13 20.5q2 6 8 18.5t8 24.5t0 21.5t-14 9.5q-14 0 -25.5 -12.5t-21 -31t-17.5 -38t-14 -31.5zM899 1122v361h41q16 -63 31.5 -125t27.5 -127q-4 61 -5 124.5t-1 127.5h43v-361h-45q-14 59 -29.5 122t-27.5 126q4 -43 4 -84t4 -84v-80h-43z M1049 1122l36 361h74l39 -361h-43l-10 88h-45l-8 -88h-43zM1090 14q0 25 12 36t27.5 11t28.5 -11t13 -36t-13 -36t-28.5 -11t-27.5 11.5t-12 35.5zM1104 1260h37q-4 43 -9.5 84.5t-7.5 85.5q-2 -27 -6 -55.5t-8 -57.5zM1110 793q23 0 51.5 22.5t28.5 50.5q0 16 -11.5 15.5 t-21.5 -9.5q-10 -8 -18.5 -21.5t-14.5 -25.5q-12 -20 -14 -32zM1194 -35l61 580h119l64 -580h-74l-14 137h-70l-16 -137h-70zM1208 1122v361h47v-316h66v-45h-113zM1284 184h62q-6 70 -17.5 138.5t-15.5 140.5q-2 -47 -7.5 -92t-9.5 -92q-4 -23 -6 -47.5t-6 -47.5zM1296 772 q0 18 9.5 35.5t15.5 34.5q14 18 20 43q20 0 31 10l-39 -90q-4 -8 -11 -23.5t-1 -21.5t15.5 0t17.5 16t14 20.5t8 14.5l31 76q12 -2 31 8q-8 -14 -13.5 -25.5t-13.5 -21.5v-4q12 16 30.5 32.5t37.5 18.5q25 0 23.5 -22.5t-9.5 -38.5q-2 -4 -8 -14.5t-11.5 -21t-9.5 -20.5 t0 -16q4 -10 13.5 -4t17.5 16t15.5 21.5t9.5 15.5l8 -4q-10 -16 -20.5 -33.5t-26.5 -28.5q-14 -10 -28.5 -5t-12.5 28q2 20 13 37.5t17 34.5q2 8 6.5 23.5t-10.5 13.5q-23 -4 -41 -33t-28 -49l-25 -58h-24l8 23q-4 -4 -8.5 -8t-8.5 -7q-16 -10 -31.5 -2.5t-11.5 29.5z M1356 946q6 20 24.5 14t10.5 -26q-8 -16 -23.5 -10t-11.5 22zM1390 1252.5q1 33.5 1 60.5v170h47v-252q0 -10 -1 -23.5t3 -23.5q4 -12 14 -17.5t21 4.5q10 10 11 31t1 35q2 29 1 57.5t-1 57.5v131h45v-170q0 -27 1 -60.5t-3 -62.5t-19.5 -49.5t-48.5 -20.5t-48 20.5 t-20 49.5t-4 62.5zM1470 -35v580h76h45.5t42.5 -10q37 -18 47.5 -64.5t10.5 -87.5v-45t-5.5 -52.5t-16.5 -46t-30 -28.5l64 -246h-82l-43 232h-35v-232h-74zM1544 256q12 0 25.5 -2t23.5 8q18 18 22.5 48t4.5 52q0 27 -4 58t-21 49q-10 10 -24.5 9t-26.5 -1v-221zM1550 676 l92 219h-30l8 14h31q6 18 16 38t31 24q12 4 31 -2q4 -4 11 -11.5t1 -15.5q-10 -8 -14.5 0t-2.5 19q-10 4 -18 -0.5t-14 -13.5t-10.5 -19t-6.5 -19h29l-6 -14h-29l-92 -213q-14 0 -27 -6zM1552 1202.5v38.5h45q0 -10 -2 -22.5t2 -26.5t14.5 -22.5t22.5 1.5q14 10 16.5 30 t-1.5 34q-4 18 -15.5 31.5t-25.5 23.5q-47 31 -56 92q-2 27 5.5 53.5t29.5 41.5q20 10 46 9t42 -22q18 -20 17.5 -45.5t-0.5 -50.5q-10 0 -20.5 1t-20.5 1q0 14 1 30.5t-12 26.5q-18 20 -29.5 4t-13.5 -36q0 -29 14.5 -44.5t30.5 -29.5q37 -27 50 -72q4 -25 1 -49 t-14.5 -43.5t-30 -30t-44.5 -6.5q-20 4 -30.5 16.5t-16 29t-5.5 37zM1658 769.5q3 16.5 9 33.5l35 82q14 0 29 10l-27 -64q-4 -10 -16.5 -34.5t-4.5 -34.5q12 -12 30 5t24 28q6 10 10 19t12 20l25 55q6 0 12 2l12 4q-8 -23 -17 -44.5t-19 -43.5q-4 -10 -10.5 -23.5 t-0.5 -23.5q8 -12 20.5 2t22.5 31q8 23 19.5 45t21.5 45q8 23 17.5 43t19.5 43q12 -6 29 6l-58 -131l-20 -47q-2 -6 -4 -14.5t-3 -14.5t2 -9t11 1q18 6 33 31q8 23 19.5 46t21.5 46q8 23 16 43t19 43q14 -6 30 6l-57 -131l-20 -47q-2 -6 -4.5 -14.5t-3.5 -14.5t1 -9t13 1 q14 4 24.5 20.5t16.5 30.5l8 -4q-10 -18 -20.5 -34.5t-26.5 -27.5q-14 -10 -28.5 -3.5t-12.5 24.5q-14 -14 -27 -21q-14 -10 -28.5 -3.5t-12.5 26.5q-10 -12 -19 -21.5t-22 -9.5q-20 0 -22 14.5t4 28.5q-12 -16 -34 -32.5t-38 -4.5q-14 10 -11 26.5zM1712 1122v361h113v-49 h-66v-101h56v-53h-56v-109h66v-49h-113zM1735 -35v580h73v-580h-73zM1853 14q0 25 12.5 36t28 11t28.5 -11t13 -36t-13 -36t-28.5 -11t-28 11.5t-12.5 35.5zM1894 1338q0 48 13 94q6 20 17 35.5t30 17.5q41 10 65 -31q18 -41 18.5 -89t0.5 -91q0 -23 -1 -49.5t-8.5 -49 t-21.5 -39t-39 -16.5q-23 0 -36 12.5t-20 31t-10.5 40t-3.5 41.5q-4 45 -4 93zM1938 1270q-1 -23 1.5 -45.5t8.5 -41t20 -18.5q12 0 18.5 18.5t8.5 41t1 45t-1 33.5q0 8 1 31.5t-1 47t-8.5 42t-18.5 18.5q-14 0 -20 -18.5t-8.5 -42t-1.5 -47t1 -31.5q0 -10 -1 -33zM1976 676 l97 219h-33l6 14h33q6 18 16 38t31 24q12 4 31 -2q4 -4 12 -11.5t-2 -15.5t-13.5 0t-1.5 19q-10 4 -18 -0.5t-14 -13.5t-10.5 -19t-6.5 -19h29l-6 -14h-29l-92 -213q-14 0 -29 -6zM1982 -35v580h66q27 -102 52.5 -201.5t45.5 -204.5q-8 102 -9 202.5t-1 203.5h68v-580h-70 q-25 98 -51.5 197.5t-44.5 199.5q4 -68 6 -134t6 -134v-129h-68zM2056 1122v361h41q16 -63 32.5 -125t29.5 -127q-4 61 -5.5 124.5t-1.5 127.5h43v-361h-45q-16 59 -31.5 122t-27.5 126q4 -43 5 -84t3 -84v-80h-43zM2094 789.5q3 25.5 11 48.5q10 23 28.5 40t45.5 17 q20 0 29.5 -14.5t9.5 -34t-7 -40t-16 -32.5q27 0 41 27l37 86q14 -2 29 8q-6 -14 -11 -25.5t-16 -21.5v-4q14 16 31.5 32.5t36.5 18.5q25 0 23.5 -22.5t-7.5 -38.5q-4 -4 -9 -14.5t-11 -21t-9 -20.5t1 -16q4 -8 11 -4t14 12t14.5 18.5t11.5 16.5l41 90h-17l7 14h16l16 39 q12 0 29 8l-20 -47h30l-8 -14h-29l-37 -88q-4 -10 -10 -23.5t-2 -23.5q6 -6 14.5 -1t17.5 16t15 21.5t9 14.5l8 -4q-10 -18 -24.5 -40t-37.5 -26q-20 -6 -26.5 3.5t-1.5 23.5q-6 -6 -12.5 -12t-12.5 -11q-14 -10 -29.5 -5t-13.5 28q2 20 13.5 37.5t17.5 34.5q2 8 7 23.5 t-9 13.5q-23 -4 -42.5 -33t-29.5 -49q-8 -12 -13 -26.5t-12 -31.5h-24l14 39l-2 -2q-6 -6 -20 -10h-19q-10 -14 -22.5 -18.5t-18.5 -4.5q-18 -12 -37 7q-16 16 -13 41.5zM2118 770.5q0 -20.5 16 -20.5q12 0 26.5 21.5t23.5 46t10 45t-13 20.5q-16 0 -31.5 -20.5t-23.5 -46 t-8 -46zM2212 1122v361h45v-316h67v-45h-112zM2249 325.5q2 63.5 16 120.5q4 25 15.5 49.5t31.5 36.5q43 29 94 9q25 -12 39.5 -36t20.5 -53.5t8 -60.5t2 -55l-70 -8q2 29 0 58.5t-10 53.5q-8 18 -23.5 29.5t-29.5 -10.5q-12 -20 -14 -50t-5 -55q-2 -29 -2 -55.5v-52.5 v-54.5t5 -54.5q0 -23 4 -52.5t22 -43.5q23 -14 34 4t16 48t6 59.5t1 40.5h-53v67h121v-291h-53l-2 78q-4 -25 -15.5 -51.5t-35.5 -34.5q-23 -8 -45.5 4t-36.5 31q-29 41 -34 100.5t-5 106.5q-4 59 -2 122.5zM2329 1483h43q8 -45 16 -91t12 -96q2 49 10.5 94.5t16.5 92.5h43 q-10 -51 -20.5 -101.5t-20.5 -101.5q-10 -37 -7 -78t3 -80h-49q0 39 1 80t-7 78q-10 51 -20.5 101.5t-20.5 101.5zM2460 766q8 18 23 10t7 -24t-23.5 -9t-6.5 23zM2480 1153q0 14 8.5 21.5t17.5 7.5t17 -7.5t8 -21.5q0 -16 -8 -23.5t-17 -7.5t-17.5 7.5t-8.5 23.5z M2482 1483h47q0 -66 -2 -133.5t-6 -135.5h-31q-4 68 -6 134.5t-2 134.5zM2505 877q8 14 22 7.5t6 -22.5q-6 -18 -22.5 -11t-5.5 26z" />
<glyph unicode="4" d="M109 831h47q23 41 55.5 81t73.5 63q12 10 32.5 11t24.5 -23q4 -12 -1 -25.5t-9 -24.5q-10 -23 -19.5 -45t-19.5 -45q-6 -16 -19.5 -41.5t-5.5 -44.5q-18 -4 -22 6.5t-1 24.5t9 29.5t10 21.5l-86 -6q-10 -16 -19 -38.5t-12 -45.5q-16 -4 -19 6t0 26.5t9 32t10 19.5l-28 -2 zM135 1122v361h72q51 0 67 -62q8 -33 6.5 -77t-18.5 -76q-14 -23 -35.5 -25t-44.5 -2v-119h-47zM152 -352h2361v-51h-2361v51zM152 1794v53h2361v-53h-2361zM154 545h63q10 -123 17.5 -242t11.5 -240q6 92 12 182.5t16 182.5l13 117h80q12 -98 20 -196.5t14 -196.5l7 -89 q6 96 9 190.5t11 186.5l10 105h86q10 -123 17.5 -242t13.5 -240q6 92 11 182.5t14 182.5q6 29 8 57.5t6 59.5h82q10 -98 18 -196.5t17 -196.5l4 -89q6 96 10 190.5t12 186.5l8 105h89q10 -123 17 -242t11 -240q6 92 11.5 182.5t15.5 182.5l12 117h82q10 -98 18.5 -196.5 t16.5 -196.5l6 -89q6 96 9 190.5t11 186.5q4 27 5.5 52.5t3.5 52.5h63l-43 -580h-96q-10 115 -19.5 229.5t-13.5 231.5q-4 -86 -10 -172t-14 -172l-9 -117h-98l-25 326l-24 -326h-94q-10 115 -20.5 229.5t-14.5 231.5q-4 -86 -9 -172t-14 -172l-10 -117h-96l-25 332 l-24 -332h-97q-10 115 -19 228.5t-13 230.5q-2 -88 -8.5 -172t-14.5 -170l-12 -117h-94zM182 1282q10 0 19.5 -1t15.5 9q10 12 11 34t1 38t-1 36.5t-11 33.5q-6 10 -15 10h-20v-160zM184 831h88l27 64q2 6 8 18.5t10.5 24.5t5 22.5t-7.5 12.5q-16 4 -38.5 -16.5t-32.5 -32.5 q-33 -41 -60 -93zM297 1122v361h115v-49h-70v-101h57v-53h-57v-109h70v-49h-115zM309 782q4 29 16.5 54.5t22.5 48.5q12 0 29 10q-8 -18 -14.5 -35.5t-14.5 -34.5q-2 -6 -8 -17t-10 -23.5t-4 -21.5t8 -11q18 -4 35.5 19.5t23.5 35.5q10 18 16.5 40.5t6.5 45.5q18 4 20 -12.5 t-2 -30.5q-8 -39 -37 -74q16 -6 30.5 6.5t23.5 28.5l14 27q10 18 25.5 32.5t33.5 18.5q16 6 32.5 -2t37.5 -2l-39 -80q-4 -8 -11 -24.5t1 -20.5q10 -10 23.5 4t23.5 31q4 12 10 23t12 24l17 43q18 0 31 10l-39 -90q-4 -8 -10.5 -23.5t1.5 -21.5q8 -10 20.5 3t20.5 30 q8 23 19.5 45t21.5 45t18.5 43t18.5 43q14 -6 29 6l-55 -131q-4 -12 -10.5 -24.5t-10.5 -22.5q-2 -6 -5 -14.5t-3 -14.5t2 -9t12 1t19.5 15t17.5 28q4 10 8 18t8 17q10 18 24.5 32.5t35.5 18.5q18 6 34.5 -2t34.5 -2q-10 -20 -18 -39t-18 -41q-4 -8 -10.5 -24.5t-0.5 -20.5 q6 -6 13.5 -2t14.5 13t13 19.5t11 16.5l2 4l67 158q16 0 27 6q-10 -29 -20.5 -56.5t-26.5 -52.5q14 16 33.5 26.5t33.5 -13.5q14 -23 2 -55.5t-26 -49.5q12 -2 23.5 4t21.5 17q8 23 18 44t21 44l37 86q10 -4 28 6q-16 -33 -28.5 -65.5t-28.5 -65.5q-4 -12 -9 -24.5 t-12 -22.5q-2 -6 -4 -14.5t-2 -14.5t2 -9t13 1q10 4 21 18.5t18 28.5q6 35 26 51q6 8 19.5 18.5t29 15.5t27.5 1t16 -25q2 -18 -7 -34.5t-24.5 -27.5t-34 -17.5t-32.5 -6.5q-2 -14 7 -22t22 -8q27 0 49 17t37 42l8 -4q-16 -33 -48 -53.5t-65 -12.5q-35 6 -35 41 q-8 -12 -16 -22t-18 -15q-14 -10 -30.5 -2.5t-12.5 29.5v4q-4 -4 -9 -4q-8 -8 -24 -8h-14q-4 0 -6.5 -4t-6.5 -4q-20 -16 -44.5 -13.5t-37.5 25.5q-16 -20 -35 -27q-18 -6 -26 7.5t0 29.5q-10 -16 -28.5 -31.5t-37.5 -1.5q-14 8 -14 33q-14 -25 -29 -33q-16 -10 -31.5 -3.5 t-13.5 24.5l-11 -11t-11 -10q-16 -10 -31.5 -3.5t-11.5 26.5q-10 -8 -18.5 -15.5t-18.5 -11.5q-18 -6 -25.5 7.5t0.5 29.5h-2q-10 -16 -27.5 -31.5t-37.5 -1.5q-10 4 -12.5 15.5t-0.5 21.5q-8 -8 -20 -14q-8 -4 -27 -4q-10 0 -12 -2t-8 -6q-23 -16 -49.5 -14.5t-18.5 40.5z M424 1122v361h47h30.5t26.5 -6q20 -12 26.5 -39t6.5 -49v-30t-3 -35t-9 -30.5t-19 -19.5l37 -152h-49l-26 144q-6 0 -12.5 1t-12.5 1v-146h-43zM467 1305q10 0 18.5 -1t14.5 3q12 10 14 29.5t2 35.5t-2 35.5t-14 30.5q-6 4 -14.5 4h-18.5v-137zM468 766q1 -10 13 -10 q14 0 26.5 13t22 32.5t16.5 40t13 35.5q-20 12 -40.5 -7.5t-31.5 -38.5l-8 -16t-9 -25.5t-2 -23.5zM578 1382q-4 27 4 53.5t32 41.5q18 10 45 9t43 -22q18 -20 18.5 -45.5t0.5 -50.5q-12 0 -24.5 1t-22.5 1q0 14 1 30.5t-9 26.5q-18 20 -29.5 4t-13.5 -36q0 -29 15 -44.5 t32 -29.5q16 -14 29.5 -31.5t17.5 -40.5q4 -25 1 -49t-14.5 -43.5t-30 -30t-42.5 -6.5q-43 8 -48 45t-3 76h43q0 -10 -1 -22.5t1 -26.5q4 -14 15 -22.5t24 1.5q10 10 12 30t-2 34q-4 18 -14.5 31.5t-24.5 23.5q-23 16 -37 39t-18 53zM647 946q2 10 10.5 13.5t15.5 1t10 -9.5 t-3 -17q-6 -16 -21.5 -10t-11.5 22zM737 1338q0 48 13 94q6 20 16 35.5t33 17.5q43 10 63 -31q16 -41 17.5 -89t1.5 -91q0 -23 -2 -49.5t-9.5 -49t-20.5 -39t-38 -16.5q-23 0 -36 12.5t-21.5 31t-10.5 40t-4 41.5q-2 45 -2 93zM749 766q1 -10 13 -10q14 0 27.5 13t22.5 32.5 t16.5 40t13.5 35.5q-23 12 -43.5 -7.5t-30.5 -38.5l-8 -16t-9 -25.5t-2 -23.5zM781 1270q-1 -23 1 -45.5t8.5 -41t20.5 -18.5q12 0 17.5 18.5t7.5 41t1 45t-1 33.5q0 8 1 31.5t-1 47t-7.5 42t-17.5 18.5q-14 0 -20.5 -18.5t-8.5 -42t-1 -47t1 -31.5q0 -10 -1 -33zM885 764 q12 -10 23.5 -9t21.5 9t18 18.5t13 20.5q2 6 8 18.5t8 24.5t0 21.5t-14 9.5q-14 0 -25.5 -12.5t-21 -31t-17.5 -38t-14 -31.5zM899 1122v361h41q16 -63 31.5 -125t27.5 -127q-4 61 -5 124.5t-1 127.5h43v-361h-45q-14 59 -29.5 122t-27.5 126q4 -43 4 -84t4 -84v-80h-43z M1049 1122l36 361h74l39 -361h-43l-10 88h-45l-8 -88h-43zM1090 14q0 25 12 36t27.5 11t28.5 -11t13 -36t-13 -36t-28.5 -11t-27.5 11.5t-12 35.5zM1104 1260h37q-4 43 -9.5 84.5t-7.5 85.5q-2 -27 -6 -55.5t-8 -57.5zM1110 793q23 0 51.5 22.5t28.5 50.5q0 16 -11.5 15.5 t-21.5 -9.5q-10 -8 -18.5 -21.5t-14.5 -25.5q-12 -20 -14 -32zM1194 -35l61 580h119l64 -580h-74l-14 137h-70l-16 -137h-70zM1208 1122v361h47v-316h66v-45h-113zM1284 184h62q-6 70 -17.5 138.5t-15.5 140.5q-2 -47 -7.5 -92t-9.5 -92q-4 -23 -6 -47.5t-6 -47.5zM1296 772 q0 18 9.5 35.5t15.5 34.5q14 18 20 43q20 0 31 10l-39 -90q-4 -8 -11 -23.5t-1 -21.5t15.5 0t17.5 16t14 20.5t8 14.5l31 76q12 -2 31 8q-8 -14 -13.5 -25.5t-13.5 -21.5v-4q12 16 30.5 32.5t37.5 18.5q25 0 23.5 -22.5t-9.5 -38.5q-2 -4 -8 -14.5t-11.5 -21t-9.5 -20.5 t0 -16q4 -10 13.5 -4t17.5 16t15.5 21.5t9.5 15.5l8 -4q-10 -16 -20.5 -33.5t-26.5 -28.5q-14 -10 -28.5 -5t-12.5 28q2 20 13 37.5t17 34.5q2 8 6.5 23.5t-10.5 13.5q-23 -4 -41 -33t-28 -49l-25 -58h-24l8 23q-4 -4 -8.5 -8t-8.5 -7q-16 -10 -31.5 -2.5t-11.5 29.5z M1356 946q6 20 24.5 14t10.5 -26q-8 -16 -23.5 -10t-11.5 22zM1390 1252.5q1 33.5 1 60.5v170h47v-252q0 -10 -1 -23.5t3 -23.5q4 -12 14 -17.5t21 4.5q10 10 11 31t1 35q2 29 1 57.5t-1 57.5v131h45v-170q0 -27 1 -60.5t-3 -62.5t-19.5 -49.5t-48.5 -20.5t-48 20.5 t-20 49.5t-4 62.5zM1470 -35v580h76h45.5t42.5 -10q37 -18 47.5 -64.5t10.5 -87.5v-45t-5.5 -52.5t-16.5 -46t-30 -28.5l64 -246h-82l-43 232h-35v-232h-74zM1544 256q12 0 25.5 -2t23.5 8q18 18 22.5 48t4.5 52q0 27 -4 58t-21 49q-10 10 -24.5 9t-26.5 -1v-221zM1550 676 l92 219h-30l8 14h31q6 18 16 38t31 24q12 4 31 -2q4 -4 11 -11.5t1 -15.5q-10 -8 -14.5 0t-2.5 19q-10 4 -18 -0.5t-14 -13.5t-10.5 -19t-6.5 -19h29l-6 -14h-29l-92 -213q-14 0 -27 -6zM1552 1202.5v38.5h45q0 -10 -2 -22.5t2 -26.5t14.5 -22.5t22.5 1.5q14 10 16.5 30 t-1.5 34q-4 18 -15.5 31.5t-25.5 23.5q-47 31 -56 92q-2 27 5.5 53.5t29.5 41.5q20 10 46 9t42 -22q18 -20 17.5 -45.5t-0.5 -50.5q-10 0 -20.5 1t-20.5 1q0 14 1 30.5t-12 26.5q-18 20 -29.5 4t-13.5 -36q0 -29 14.5 -44.5t30.5 -29.5q37 -27 50 -72q4 -25 1 -49 t-14.5 -43.5t-30 -30t-44.5 -6.5q-20 4 -30.5 16.5t-16 29t-5.5 37zM1658 769.5q3 16.5 9 33.5l35 82q14 0 29 10l-27 -64q-4 -10 -16.5 -34.5t-4.5 -34.5q12 -12 30 5t24 28q6 10 10 19t12 20l25 55q6 0 12 2l12 4q-8 -23 -17 -44.5t-19 -43.5q-4 -10 -10.5 -23.5 t-0.5 -23.5q8 -12 20.5 2t22.5 31q8 23 19.5 45t21.5 45q8 23 17.5 43t19.5 43q12 -6 29 6l-58 -131l-20 -47q-2 -6 -4 -14.5t-3 -14.5t2 -9t11 1q18 6 33 31q8 23 19.5 46t21.5 46q8 23 16 43t19 43q14 -6 30 6l-57 -131l-20 -47q-2 -6 -4.5 -14.5t-3.5 -14.5t1 -9t13 1 q14 4 24.5 20.5t16.5 30.5l8 -4q-10 -18 -20.5 -34.5t-26.5 -27.5q-14 -10 -28.5 -3.5t-12.5 24.5q-14 -14 -27 -21q-14 -10 -28.5 -3.5t-12.5 26.5q-10 -12 -19 -21.5t-22 -9.5q-20 0 -22 14.5t4 28.5q-12 -16 -34 -32.5t-38 -4.5q-14 10 -11 26.5zM1712 1122v361h113v-49 h-66v-101h56v-53h-56v-109h66v-49h-113zM1735 -35v580h73v-580h-73zM1853 14q0 25 12.5 36t28 11t28.5 -11t13 -36t-13 -36t-28.5 -11t-28 11.5t-12.5 35.5zM1894 1338q0 48 13 94q6 20 17 35.5t30 17.5q41 10 65 -31q18 -41 18.5 -89t0.5 -91q0 -23 -1 -49.5t-8.5 -49 t-21.5 -39t-39 -16.5q-23 0 -36 12.5t-20 31t-10.5 40t-3.5 41.5q-4 45 -4 93zM1938 1270q-1 -23 1.5 -45.5t8.5 -41t20 -18.5q12 0 18.5 18.5t8.5 41t1 45t-1 33.5q0 8 1 31.5t-1 47t-8.5 42t-18.5 18.5q-14 0 -20 -18.5t-8.5 -42t-1.5 -47t1 -31.5q0 -10 -1 -33zM1976 676 l97 219h-33l6 14h33q6 18 16 38t31 24q12 4 31 -2q4 -4 12 -11.5t-2 -15.5t-13.5 0t-1.5 19q-10 4 -18 -0.5t-14 -13.5t-10.5 -19t-6.5 -19h29l-6 -14h-29l-92 -213q-14 0 -29 -6zM1982 -35v580h66q27 -102 52.5 -201.5t45.5 -204.5q-8 102 -9 202.5t-1 203.5h68v-580h-70 q-25 98 -51.5 197.5t-44.5 199.5q4 -68 6 -134t6 -134v-129h-68zM2056 1122v361h41q16 -63 32.5 -125t29.5 -127q-4 61 -5.5 124.5t-1.5 127.5h43v-361h-45q-16 59 -31.5 122t-27.5 126q4 -43 5 -84t3 -84v-80h-43zM2094 789.5q3 25.5 11 48.5q10 23 28.5 40t45.5 17 q20 0 29.5 -14.5t9.5 -34t-7 -40t-16 -32.5q27 0 41 27l37 86q14 -2 29 8q-6 -14 -11 -25.5t-16 -21.5v-4q14 16 31.5 32.5t36.5 18.5q25 0 23.5 -22.5t-7.5 -38.5q-4 -4 -9 -14.5t-11 -21t-9 -20.5t1 -16q4 -8 11 -4t14 12t14.5 18.5t11.5 16.5l41 90h-17l7 14h16l16 39 q12 0 29 8l-20 -47h30l-8 -14h-29l-37 -88q-4 -10 -10 -23.5t-2 -23.5q6 -6 14.5 -1t17.5 16t15 21.5t9 14.5l8 -4q-10 -18 -24.5 -40t-37.5 -26q-20 -6 -26.5 3.5t-1.5 23.5q-6 -6 -12.5 -12t-12.5 -11q-14 -10 -29.5 -5t-13.5 28q2 20 13.5 37.5t17.5 34.5q2 8 7 23.5 t-9 13.5q-23 -4 -42.5 -33t-29.5 -49q-8 -12 -13 -26.5t-12 -31.5h-24l14 39l-2 -2q-6 -6 -20 -10h-19q-10 -14 -22.5 -18.5t-18.5 -4.5q-18 -12 -37 7q-16 16 -13 41.5zM2118 770.5q0 -20.5 16 -20.5q12 0 26.5 21.5t23.5 46t10 45t-13 20.5q-16 0 -31.5 -20.5t-23.5 -46 t-8 -46zM2212 1122v361h45v-316h67v-45h-112zM2249 325.5q2 63.5 16 120.5q4 25 15.5 49.5t31.5 36.5q43 29 94 9q25 -12 39.5 -36t20.5 -53.5t8 -60.5t2 -55l-70 -8q2 29 0 58.5t-10 53.5q-8 18 -23.5 29.5t-29.5 -10.5q-12 -20 -14 -50t-5 -55q-2 -29 -2 -55.5v-52.5 v-54.5t5 -54.5q0 -23 4 -52.5t22 -43.5q23 -14 34 4t16 48t6 59.5t1 40.5h-53v67h121v-291h-53l-2 78q-4 -25 -15.5 -51.5t-35.5 -34.5q-23 -8 -45.5 4t-36.5 31q-29 41 -34 100.5t-5 106.5q-4 59 -2 122.5zM2329 1483h43q8 -45 16 -91t12 -96q2 49 10.5 94.5t16.5 92.5h43 q-10 -51 -20.5 -101.5t-20.5 -101.5q-10 -37 -7 -78t3 -80h-49q0 39 1 80t-7 78q-10 51 -20.5 101.5t-20.5 101.5zM2460 766q8 18 23 10t7 -24t-23.5 -9t-6.5 23zM2480 1153q0 14 8.5 21.5t17.5 7.5t17 -7.5t8 -21.5q0 -16 -8 -23.5t-17 -7.5t-17.5 7.5t-8.5 23.5z M2482 1483h47q0 -66 -2 -133.5t-6 -135.5h-31q-4 68 -6 134.5t-2 134.5zM2505 877q8 14 22 7.5t6 -22.5q-6 -18 -22.5 -11t-5.5 26z" />
<glyph unicode="5" d="M109 831h47q23 41 55.5 81t73.5 63q12 10 32.5 11t24.5 -23q4 -12 -1 -25.5t-9 -24.5q-10 -23 -19.5 -45t-19.5 -45q-6 -16 -19.5 -41.5t-5.5 -44.5q-18 -4 -22 6.5t-1 24.5t9 29.5t10 21.5l-86 -6q-10 -16 -19 -38.5t-12 -45.5q-16 -4 -19 6t0 26.5t9 32t10 19.5l-28 -2 zM135 1122v361h72q51 0 67 -62q8 -33 6.5 -77t-18.5 -76q-14 -23 -35.5 -25t-44.5 -2v-119h-47zM152 -352h2361v-51h-2361v51zM152 1794v53h2361v-53h-2361zM154 545h63q10 -123 17.5 -242t11.5 -240q6 92 12 182.5t16 182.5l13 117h80q12 -98 20 -196.5t14 -196.5l7 -89 q6 96 9 190.5t11 186.5l10 105h86q10 -123 17.5 -242t13.5 -240q6 92 11 182.5t14 182.5q6 29 8 57.5t6 59.5h82q10 -98 18 -196.5t17 -196.5l4 -89q6 96 10 190.5t12 186.5l8 105h89q10 -123 17 -242t11 -240q6 92 11.5 182.5t15.5 182.5l12 117h82q10 -98 18.5 -196.5 t16.5 -196.5l6 -89q6 96 9 190.5t11 186.5q4 27 5.5 52.5t3.5 52.5h63l-43 -580h-96q-10 115 -19.5 229.5t-13.5 231.5q-4 -86 -10 -172t-14 -172l-9 -117h-98l-25 326l-24 -326h-94q-10 115 -20.5 229.5t-14.5 231.5q-4 -86 -9 -172t-14 -172l-10 -117h-96l-25 332 l-24 -332h-97q-10 115 -19 228.5t-13 230.5q-2 -88 -8.5 -172t-14.5 -170l-12 -117h-94zM182 1282q10 0 19.5 -1t15.5 9q10 12 11 34t1 38t-1 36.5t-11 33.5q-6 10 -15 10h-20v-160zM184 831h88l27 64q2 6 8 18.5t10.5 24.5t5 22.5t-7.5 12.5q-16 4 -38.5 -16.5t-32.5 -32.5 q-33 -41 -60 -93zM297 1122v361h115v-49h-70v-101h57v-53h-57v-109h70v-49h-115zM309 782q4 29 16.5 54.5t22.5 48.5q12 0 29 10q-8 -18 -14.5 -35.5t-14.5 -34.5q-2 -6 -8 -17t-10 -23.5t-4 -21.5t8 -11q18 -4 35.5 19.5t23.5 35.5q10 18 16.5 40.5t6.5 45.5q18 4 20 -12.5 t-2 -30.5q-8 -39 -37 -74q16 -6 30.5 6.5t23.5 28.5l14 27q10 18 25.5 32.5t33.5 18.5q16 6 32.5 -2t37.5 -2l-39 -80q-4 -8 -11 -24.5t1 -20.5q10 -10 23.5 4t23.5 31q4 12 10 23t12 24l17 43q18 0 31 10l-39 -90q-4 -8 -10.5 -23.5t1.5 -21.5q8 -10 20.5 3t20.5 30 q8 23 19.5 45t21.5 45t18.5 43t18.5 43q14 -6 29 6l-55 -131q-4 -12 -10.5 -24.5t-10.5 -22.5q-2 -6 -5 -14.5t-3 -14.5t2 -9t12 1t19.5 15t17.5 28q4 10 8 18t8 17q10 18 24.5 32.5t35.5 18.5q18 6 34.5 -2t34.5 -2q-10 -20 -18 -39t-18 -41q-4 -8 -10.5 -24.5t-0.5 -20.5 q6 -6 13.5 -2t14.5 13t13 19.5t11 16.5l2 4l67 158q16 0 27 6q-10 -29 -20.5 -56.5t-26.5 -52.5q14 16 33.5 26.5t33.5 -13.5q14 -23 2 -55.5t-26 -49.5q12 -2 23.5 4t21.5 17q8 23 18 44t21 44l37 86q10 -4 28 6q-16 -33 -28.5 -65.5t-28.5 -65.5q-4 -12 -9 -24.5 t-12 -22.5q-2 -6 -4 -14.5t-2 -14.5t2 -9t13 1q10 4 21 18.5t18 28.5q6 35 26 51q6 8 19.5 18.5t29 15.5t27.5 1t16 -25q2 -18 -7 -34.5t-24.5 -27.5t-34 -17.5t-32.5 -6.5q-2 -14 7 -22t22 -8q27 0 49 17t37 42l8 -4q-16 -33 -48 -53.5t-65 -12.5q-35 6 -35 41 q-8 -12 -16 -22t-18 -15q-14 -10 -30.5 -2.5t-12.5 29.5v4q-4 -4 -9 -4q-8 -8 -24 -8h-14q-4 0 -6.5 -4t-6.5 -4q-20 -16 -44.5 -13.5t-37.5 25.5q-16 -20 -35 -27q-18 -6 -26 7.5t0 29.5q-10 -16 -28.5 -31.5t-37.5 -1.5q-14 8 -14 33q-14 -25 -29 -33q-16 -10 -31.5 -3.5 t-13.5 24.5l-11 -11t-11 -10q-16 -10 -31.5 -3.5t-11.5 26.5q-10 -8 -18.5 -15.5t-18.5 -11.5q-18 -6 -25.5 7.5t0.5 29.5h-2q-10 -16 -27.5 -31.5t-37.5 -1.5q-10 4 -12.5 15.5t-0.5 21.5q-8 -8 -20 -14q-8 -4 -27 -4q-10 0 -12 -2t-8 -6q-23 -16 -49.5 -14.5t-18.5 40.5z M424 1122v361h47h30.5t26.5 -6q20 -12 26.5 -39t6.5 -49v-30t-3 -35t-9 -30.5t-19 -19.5l37 -152h-49l-26 144q-6 0 -12.5 1t-12.5 1v-146h-43zM467 1305q10 0 18.5 -1t14.5 3q12 10 14 29.5t2 35.5t-2 35.5t-14 30.5q-6 4 -14.5 4h-18.5v-137zM468 766q1 -10 13 -10 q14 0 26.5 13t22 32.5t16.5 40t13 35.5q-20 12 -40.5 -7.5t-31.5 -38.5l-8 -16t-9 -25.5t-2 -23.5zM578 1382q-4 27 4 53.5t32 41.5q18 10 45 9t43 -22q18 -20 18.5 -45.5t0.5 -50.5q-12 0 -24.5 1t-22.5 1q0 14 1 30.5t-9 26.5q-18 20 -29.5 4t-13.5 -36q0 -29 15 -44.5 t32 -29.5q16 -14 29.5 -31.5t17.5 -40.5q4 -25 1 -49t-14.5 -43.5t-30 -30t-42.5 -6.5q-43 8 -48 45t-3 76h43q0 -10 -1 -22.5t1 -26.5q4 -14 15 -22.5t24 1.5q10 10 12 30t-2 34q-4 18 -14.5 31.5t-24.5 23.5q-23 16 -37 39t-18 53zM647 946q2 10 10.5 13.5t15.5 1t10 -9.5 t-3 -17q-6 -16 -21.5 -10t-11.5 22zM737 1338q0 48 13 94q6 20 16 35.5t33 17.5q43 10 63 -31q16 -41 17.5 -89t1.5 -91q0 -23 -2 -49.5t-9.5 -49t-20.5 -39t-38 -16.5q-23 0 -36 12.5t-21.5 31t-10.5 40t-4 41.5q-2 45 -2 93zM749 766q1 -10 13 -10q14 0 27.5 13t22.5 32.5 t16.5 40t13.5 35.5q-23 12 -43.5 -7.5t-30.5 -38.5l-8 -16t-9 -25.5t-2 -23.5zM781 1270q-1 -23 1 -45.5t8.5 -41t20.5 -18.5q12 0 17.5 18.5t7.5 41t1 45t-1 33.5q0 8 1 31.5t-1 47t-7.5 42t-17.5 18.5q-14 0 -20.5 -18.5t-8.5 -42t-1 -47t1 -31.5q0 -10 -1 -33zM885 764 q12 -10 23.5 -9t21.5 9t18 18.5t13 20.5q2 6 8 18.5t8 24.5t0 21.5t-14 9.5q-14 0 -25.5 -12.5t-21 -31t-17.5 -38t-14 -31.5zM899 1122v361h41q16 -63 31.5 -125t27.5 -127q-4 61 -5 124.5t-1 127.5h43v-361h-45q-14 59 -29.5 122t-27.5 126q4 -43 4 -84t4 -84v-80h-43z M1049 1122l36 361h74l39 -361h-43l-10 88h-45l-8 -88h-43zM1090 14q0 25 12 36t27.5 11t28.5 -11t13 -36t-13 -36t-28.5 -11t-27.5 11.5t-12 35.5zM1104 1260h37q-4 43 -9.5 84.5t-7.5 85.5q-2 -27 -6 -55.5t-8 -57.5zM1110 793q23 0 51.5 22.5t28.5 50.5q0 16 -11.5 15.5 t-21.5 -9.5q-10 -8 -18.5 -21.5t-14.5 -25.5q-12 -20 -14 -32zM1194 -35l61 580h119l64 -580h-74l-14 137h-70l-16 -137h-70zM1208 1122v361h47v-316h66v-45h-113zM1284 184h62q-6 70 -17.5 138.5t-15.5 140.5q-2 -47 -7.5 -92t-9.5 -92q-4 -23 -6 -47.5t-6 -47.5zM1296 772 q0 18 9.5 35.5t15.5 34.5q14 18 20 43q20 0 31 10l-39 -90q-4 -8 -11 -23.5t-1 -21.5t15.5 0t17.5 16t14 20.5t8 14.5l31 76q12 -2 31 8q-8 -14 -13.5 -25.5t-13.5 -21.5v-4q12 16 30.5 32.5t37.5 18.5q25 0 23.5 -22.5t-9.5 -38.5q-2 -4 -8 -14.5t-11.5 -21t-9.5 -20.5 t0 -16q4 -10 13.5 -4t17.5 16t15.5 21.5t9.5 15.5l8 -4q-10 -16 -20.5 -33.5t-26.5 -28.5q-14 -10 -28.5 -5t-12.5 28q2 20 13 37.5t17 34.5q2 8 6.5 23.5t-10.5 13.5q-23 -4 -41 -33t-28 -49l-25 -58h-24l8 23q-4 -4 -8.5 -8t-8.5 -7q-16 -10 -31.5 -2.5t-11.5 29.5z M1356 946q6 20 24.5 14t10.5 -26q-8 -16 -23.5 -10t-11.5 22zM1390 1252.5q1 33.5 1 60.5v170h47v-252q0 -10 -1 -23.5t3 -23.5q4 -12 14 -17.5t21 4.5q10 10 11 31t1 35q2 29 1 57.5t-1 57.5v131h45v-170q0 -27 1 -60.5t-3 -62.5t-19.5 -49.5t-48.5 -20.5t-48 20.5 t-20 49.5t-4 62.5zM1470 -35v580h76h45.5t42.5 -10q37 -18 47.5 -64.5t10.5 -87.5v-45t-5.5 -52.5t-16.5 -46t-30 -28.5l64 -246h-82l-43 232h-35v-232h-74zM1544 256q12 0 25.5 -2t23.5 8q18 18 22.5 48t4.5 52q0 27 -4 58t-21 49q-10 10 -24.5 9t-26.5 -1v-221zM1550 676 l92 219h-30l8 14h31q6 18 16 38t31 24q12 4 31 -2q4 -4 11 -11.5t1 -15.5q-10 -8 -14.5 0t-2.5 19q-10 4 -18 -0.5t-14 -13.5t-10.5 -19t-6.5 -19h29l-6 -14h-29l-92 -213q-14 0 -27 -6zM1552 1202.5v38.5h45q0 -10 -2 -22.5t2 -26.5t14.5 -22.5t22.5 1.5q14 10 16.5 30 t-1.5 34q-4 18 -15.5 31.5t-25.5 23.5q-47 31 -56 92q-2 27 5.5 53.5t29.5 41.5q20 10 46 9t42 -22q18 -20 17.5 -45.5t-0.5 -50.5q-10 0 -20.5 1t-20.5 1q0 14 1 30.5t-12 26.5q-18 20 -29.5 4t-13.5 -36q0 -29 14.5 -44.5t30.5 -29.5q37 -27 50 -72q4 -25 1 -49 t-14.5 -43.5t-30 -30t-44.5 -6.5q-20 4 -30.5 16.5t-16 29t-5.5 37zM1658 769.5q3 16.5 9 33.5l35 82q14 0 29 10l-27 -64q-4 -10 -16.5 -34.5t-4.5 -34.5q12 -12 30 5t24 28q6 10 10 19t12 20l25 55q6 0 12 2l12 4q-8 -23 -17 -44.5t-19 -43.5q-4 -10 -10.5 -23.5 t-0.5 -23.5q8 -12 20.5 2t22.5 31q8 23 19.5 45t21.5 45q8 23 17.5 43t19.5 43q12 -6 29 6l-58 -131l-20 -47q-2 -6 -4 -14.5t-3 -14.5t2 -9t11 1q18 6 33 31q8 23 19.5 46t21.5 46q8 23 16 43t19 43q14 -6 30 6l-57 -131l-20 -47q-2 -6 -4.5 -14.5t-3.5 -14.5t1 -9t13 1 q14 4 24.5 20.5t16.5 30.5l8 -4q-10 -18 -20.5 -34.5t-26.5 -27.5q-14 -10 -28.5 -3.5t-12.5 24.5q-14 -14 -27 -21q-14 -10 -28.5 -3.5t-12.5 26.5q-10 -12 -19 -21.5t-22 -9.5q-20 0 -22 14.5t4 28.5q-12 -16 -34 -32.5t-38 -4.5q-14 10 -11 26.5zM1712 1122v361h113v-49 h-66v-101h56v-53h-56v-109h66v-49h-113zM1735 -35v580h73v-580h-73zM1853 14q0 25 12.5 36t28 11t28.5 -11t13 -36t-13 -36t-28.5 -11t-28 11.5t-12.5 35.5zM1894 1338q0 48 13 94q6 20 17 35.5t30 17.5q41 10 65 -31q18 -41 18.5 -89t0.5 -91q0 -23 -1 -49.5t-8.5 -49 t-21.5 -39t-39 -16.5q-23 0 -36 12.5t-20 31t-10.5 40t-3.5 41.5q-4 45 -4 93zM1938 1270q-1 -23 1.5 -45.5t8.5 -41t20 -18.5q12 0 18.5 18.5t8.5 41t1 45t-1 33.5q0 8 1 31.5t-1 47t-8.5 42t-18.5 18.5q-14 0 -20 -18.5t-8.5 -42t-1.5 -47t1 -31.5q0 -10 -1 -33zM1976 676 l97 219h-33l6 14h33q6 18 16 38t31 24q12 4 31 -2q4 -4 12 -11.5t-2 -15.5t-13.5 0t-1.5 19q-10 4 -18 -0.5t-14 -13.5t-10.5 -19t-6.5 -19h29l-6 -14h-29l-92 -213q-14 0 -29 -6zM1982 -35v580h66q27 -102 52.5 -201.5t45.5 -204.5q-8 102 -9 202.5t-1 203.5h68v-580h-70 q-25 98 -51.5 197.5t-44.5 199.5q4 -68 6 -134t6 -134v-129h-68zM2056 1122v361h41q16 -63 32.5 -125t29.5 -127q-4 61 -5.5 124.5t-1.5 127.5h43v-361h-45q-16 59 -31.5 122t-27.5 126q4 -43 5 -84t3 -84v-80h-43zM2094 789.5q3 25.5 11 48.5q10 23 28.5 40t45.5 17 q20 0 29.5 -14.5t9.5 -34t-7 -40t-16 -32.5q27 0 41 27l37 86q14 -2 29 8q-6 -14 -11 -25.5t-16 -21.5v-4q14 16 31.5 32.5t36.5 18.5q25 0 23.5 -22.5t-7.5 -38.5q-4 -4 -9 -14.5t-11 -21t-9 -20.5t1 -16q4 -8 11 -4t14 12t14.5 18.5t11.5 16.5l41 90h-17l7 14h16l16 39 q12 0 29 8l-20 -47h30l-8 -14h-29l-37 -88q-4 -10 -10 -23.5t-2 -23.5q6 -6 14.5 -1t17.5 16t15 21.5t9 14.5l8 -4q-10 -18 -24.5 -40t-37.5 -26q-20 -6 -26.5 3.5t-1.5 23.5q-6 -6 -12.5 -12t-12.5 -11q-14 -10 -29.5 -5t-13.5 28q2 20 13.5 37.5t17.5 34.5q2 8 7 23.5 t-9 13.5q-23 -4 -42.5 -33t-29.5 -49q-8 -12 -13 -26.5t-12 -31.5h-24l14 39l-2 -2q-6 -6 -20 -10h-19q-10 -14 -22.5 -18.5t-18.5 -4.5q-18 -12 -37 7q-16 16 -13 41.5zM2118 770.5q0 -20.5 16 -20.5q12 0 26.5 21.5t23.5 46t10 45t-13 20.5q-16 0 -31.5 -20.5t-23.5 -46 t-8 -46zM2212 1122v361h45v-316h67v-45h-112zM2249 325.5q2 63.5 16 120.5q4 25 15.5 49.5t31.5 36.5q43 29 94 9q25 -12 39.5 -36t20.5 -53.5t8 -60.5t2 -55l-70 -8q2 29 0 58.5t-10 53.5q-8 18 -23.5 29.5t-29.5 -10.5q-12 -20 -14 -50t-5 -55q-2 -29 -2 -55.5v-52.5 v-54.5t5 -54.5q0 -23 4 -52.5t22 -43.5q23 -14 34 4t16 48t6 59.5t1 40.5h-53v67h121v-291h-53l-2 78q-4 -25 -15.5 -51.5t-35.5 -34.5q-23 -8 -45.5 4t-36.5 31q-29 41 -34 100.5t-5 106.5q-4 59 -2 122.5zM2329 1483h43q8 -45 16 -91t12 -96q2 49 10.5 94.5t16.5 92.5h43 q-10 -51 -20.5 -101.5t-20.5 -101.5q-10 -37 -7 -78t3 -80h-49q0 39 1 80t-7 78q-10 51 -20.5 101.5t-20.5 101.5zM2460 766q8 18 23 10t7 -24t-23.5 -9t-6.5 23zM2480 1153q0 14 8.5 21.5t17.5 7.5t17 -7.5t8 -21.5q0 -16 -8 -23.5t-17 -7.5t-17.5 7.5t-8.5 23.5z M2482 1483h47q0 -66 -2 -133.5t-6 -135.5h-31q-4 68 -6 134.5t-2 134.5zM2505 877q8 14 22 7.5t6 -22.5q-6 -18 -22.5 -11t-5.5 26z" />
<glyph unicode="6" d="M109 831h47q23 41 55.5 81t73.5 63q12 10 32.5 11t24.5 -23q4 -12 -1 -25.5t-9 -24.5q-10 -23 -19.5 -45t-19.5 -45q-6 -16 -19.5 -41.5t-5.5 -44.5q-18 -4 -22 6.5t-1 24.5t9 29.5t10 21.5l-86 -6q-10 -16 -19 -38.5t-12 -45.5q-16 -4 -19 6t0 26.5t9 32t10 19.5l-28 -2 zM135 1122v361h72q51 0 67 -62q8 -33 6.5 -77t-18.5 -76q-14 -23 -35.5 -25t-44.5 -2v-119h-47zM152 -352h2361v-51h-2361v51zM152 1794v53h2361v-53h-2361zM154 545h63q10 -123 17.5 -242t11.5 -240q6 92 12 182.5t16 182.5l13 117h80q12 -98 20 -196.5t14 -196.5l7 -89 q6 96 9 190.5t11 186.5l10 105h86q10 -123 17.5 -242t13.5 -240q6 92 11 182.5t14 182.5q6 29 8 57.5t6 59.5h82q10 -98 18 -196.5t17 -196.5l4 -89q6 96 10 190.5t12 186.5l8 105h89q10 -123 17 -242t11 -240q6 92 11.5 182.5t15.5 182.5l12 117h82q10 -98 18.5 -196.5 t16.5 -196.5l6 -89q6 96 9 190.5t11 186.5q4 27 5.5 52.5t3.5 52.5h63l-43 -580h-96q-10 115 -19.5 229.5t-13.5 231.5q-4 -86 -10 -172t-14 -172l-9 -117h-98l-25 326l-24 -326h-94q-10 115 -20.5 229.5t-14.5 231.5q-4 -86 -9 -172t-14 -172l-10 -117h-96l-25 332 l-24 -332h-97q-10 115 -19 228.5t-13 230.5q-2 -88 -8.5 -172t-14.5 -170l-12 -117h-94zM182 1282q10 0 19.5 -1t15.5 9q10 12 11 34t1 38t-1 36.5t-11 33.5q-6 10 -15 10h-20v-160zM184 831h88l27 64q2 6 8 18.5t10.5 24.5t5 22.5t-7.5 12.5q-16 4 -38.5 -16.5t-32.5 -32.5 q-33 -41 -60 -93zM297 1122v361h115v-49h-70v-101h57v-53h-57v-109h70v-49h-115zM309 782q4 29 16.5 54.5t22.5 48.5q12 0 29 10q-8 -18 -14.5 -35.5t-14.5 -34.5q-2 -6 -8 -17t-10 -23.5t-4 -21.5t8 -11q18 -4 35.5 19.5t23.5 35.5q10 18 16.5 40.5t6.5 45.5q18 4 20 -12.5 t-2 -30.5q-8 -39 -37 -74q16 -6 30.5 6.5t23.5 28.5l14 27q10 18 25.5 32.5t33.5 18.5q16 6 32.5 -2t37.5 -2l-39 -80q-4 -8 -11 -24.5t1 -20.5q10 -10 23.5 4t23.5 31q4 12 10 23t12 24l17 43q18 0 31 10l-39 -90q-4 -8 -10.5 -23.5t1.5 -21.5q8 -10 20.5 3t20.5 30 q8 23 19.5 45t21.5 45t18.5 43t18.5 43q14 -6 29 6l-55 -131q-4 -12 -10.5 -24.5t-10.5 -22.5q-2 -6 -5 -14.5t-3 -14.5t2 -9t12 1t19.5 15t17.5 28q4 10 8 18t8 17q10 18 24.5 32.5t35.5 18.5q18 6 34.5 -2t34.5 -2q-10 -20 -18 -39t-18 -41q-4 -8 -10.5 -24.5t-0.5 -20.5 q6 -6 13.5 -2t14.5 13t13 19.5t11 16.5l2 4l67 158q16 0 27 6q-10 -29 -20.5 -56.5t-26.5 -52.5q14 16 33.5 26.5t33.5 -13.5q14 -23 2 -55.5t-26 -49.5q12 -2 23.5 4t21.5 17q8 23 18 44t21 44l37 86q10 -4 28 6q-16 -33 -28.5 -65.5t-28.5 -65.5q-4 -12 -9 -24.5 t-12 -22.5q-2 -6 -4 -14.5t-2 -14.5t2 -9t13 1q10 4 21 18.5t18 28.5q6 35 26 51q6 8 19.5 18.5t29 15.5t27.5 1t16 -25q2 -18 -7 -34.5t-24.5 -27.5t-34 -17.5t-32.5 -6.5q-2 -14 7 -22t22 -8q27 0 49 17t37 42l8 -4q-16 -33 -48 -53.5t-65 -12.5q-35 6 -35 41 q-8 -12 -16 -22t-18 -15q-14 -10 -30.5 -2.5t-12.5 29.5v4q-4 -4 -9 -4q-8 -8 -24 -8h-14q-4 0 -6.5 -4t-6.5 -4q-20 -16 -44.5 -13.5t-37.5 25.5q-16 -20 -35 -27q-18 -6 -26 7.5t0 29.5q-10 -16 -28.5 -31.5t-37.5 -1.5q-14 8 -14 33q-14 -25 -29 -33q-16 -10 -31.5 -3.5 t-13.5 24.5l-11 -11t-11 -10q-16 -10 -31.5 -3.5t-11.5 26.5q-10 -8 -18.5 -15.5t-18.5 -11.5q-18 -6 -25.5 7.5t0.5 29.5h-2q-10 -16 -27.5 -31.5t-37.5 -1.5q-10 4 -12.5 15.5t-0.5 21.5q-8 -8 -20 -14q-8 -4 -27 -4q-10 0 -12 -2t-8 -6q-23 -16 -49.5 -14.5t-18.5 40.5z M424 1122v361h47h30.5t26.5 -6q20 -12 26.5 -39t6.5 -49v-30t-3 -35t-9 -30.5t-19 -19.5l37 -152h-49l-26 144q-6 0 -12.5 1t-12.5 1v-146h-43zM467 1305q10 0 18.5 -1t14.5 3q12 10 14 29.5t2 35.5t-2 35.5t-14 30.5q-6 4 -14.5 4h-18.5v-137zM468 766q1 -10 13 -10 q14 0 26.5 13t22 32.5t16.5 40t13 35.5q-20 12 -40.5 -7.5t-31.5 -38.5l-8 -16t-9 -25.5t-2 -23.5zM578 1382q-4 27 4 53.5t32 41.5q18 10 45 9t43 -22q18 -20 18.5 -45.5t0.5 -50.5q-12 0 -24.5 1t-22.5 1q0 14 1 30.5t-9 26.5q-18 20 -29.5 4t-13.5 -36q0 -29 15 -44.5 t32 -29.5q16 -14 29.5 -31.5t17.5 -40.5q4 -25 1 -49t-14.5 -43.5t-30 -30t-42.5 -6.5q-43 8 -48 45t-3 76h43q0 -10 -1 -22.5t1 -26.5q4 -14 15 -22.5t24 1.5q10 10 12 30t-2 34q-4 18 -14.5 31.5t-24.5 23.5q-23 16 -37 39t-18 53zM647 946q2 10 10.5 13.5t15.5 1t10 -9.5 t-3 -17q-6 -16 -21.5 -10t-11.5 22zM737 1338q0 48 13 94q6 20 16 35.5t33 17.5q43 10 63 -31q16 -41 17.5 -89t1.5 -91q0 -23 -2 -49.5t-9.5 -49t-20.5 -39t-38 -16.5q-23 0 -36 12.5t-21.5 31t-10.5 40t-4 41.5q-2 45 -2 93zM749 766q1 -10 13 -10q14 0 27.5 13t22.5 32.5 t16.5 40t13.5 35.5q-23 12 -43.5 -7.5t-30.5 -38.5l-8 -16t-9 -25.5t-2 -23.5zM781 1270q-1 -23 1 -45.5t8.5 -41t20.5 -18.5q12 0 17.5 18.5t7.5 41t1 45t-1 33.5q0 8 1 31.5t-1 47t-7.5 42t-17.5 18.5q-14 0 -20.5 -18.5t-8.5 -42t-1 -47t1 -31.5q0 -10 -1 -33zM885 764 q12 -10 23.5 -9t21.5 9t18 18.5t13 20.5q2 6 8 18.5t8 24.5t0 21.5t-14 9.5q-14 0 -25.5 -12.5t-21 -31t-17.5 -38t-14 -31.5zM899 1122v361h41q16 -63 31.5 -125t27.5 -127q-4 61 -5 124.5t-1 127.5h43v-361h-45q-14 59 -29.5 122t-27.5 126q4 -43 4 -84t4 -84v-80h-43z M1049 1122l36 361h74l39 -361h-43l-10 88h-45l-8 -88h-43zM1090 14q0 25 12 36t27.5 11t28.5 -11t13 -36t-13 -36t-28.5 -11t-27.5 11.5t-12 35.5zM1104 1260h37q-4 43 -9.5 84.5t-7.5 85.5q-2 -27 -6 -55.5t-8 -57.5zM1110 793q23 0 51.5 22.5t28.5 50.5q0 16 -11.5 15.5 t-21.5 -9.5q-10 -8 -18.5 -21.5t-14.5 -25.5q-12 -20 -14 -32zM1194 -35l61 580h119l64 -580h-74l-14 137h-70l-16 -137h-70zM1208 1122v361h47v-316h66v-45h-113zM1284 184h62q-6 70 -17.5 138.5t-15.5 140.5q-2 -47 -7.5 -92t-9.5 -92q-4 -23 -6 -47.5t-6 -47.5zM1296 772 q0 18 9.5 35.5t15.5 34.5q14 18 20 43q20 0 31 10l-39 -90q-4 -8 -11 -23.5t-1 -21.5t15.5 0t17.5 16t14 20.5t8 14.5l31 76q12 -2 31 8q-8 -14 -13.5 -25.5t-13.5 -21.5v-4q12 16 30.5 32.5t37.5 18.5q25 0 23.5 -22.5t-9.5 -38.5q-2 -4 -8 -14.5t-11.5 -21t-9.5 -20.5 t0 -16q4 -10 13.5 -4t17.5 16t15.5 21.5t9.5 15.5l8 -4q-10 -16 -20.5 -33.5t-26.5 -28.5q-14 -10 -28.5 -5t-12.5 28q2 20 13 37.5t17 34.5q2 8 6.5 23.5t-10.5 13.5q-23 -4 -41 -33t-28 -49l-25 -58h-24l8 23q-4 -4 -8.5 -8t-8.5 -7q-16 -10 -31.5 -2.5t-11.5 29.5z M1356 946q6 20 24.5 14t10.5 -26q-8 -16 -23.5 -10t-11.5 22zM1390 1252.5q1 33.5 1 60.5v170h47v-252q0 -10 -1 -23.5t3 -23.5q4 -12 14 -17.5t21 4.5q10 10 11 31t1 35q2 29 1 57.5t-1 57.5v131h45v-170q0 -27 1 -60.5t-3 -62.5t-19.5 -49.5t-48.5 -20.5t-48 20.5 t-20 49.5t-4 62.5zM1470 -35v580h76h45.5t42.5 -10q37 -18 47.5 -64.5t10.5 -87.5v-45t-5.5 -52.5t-16.5 -46t-30 -28.5l64 -246h-82l-43 232h-35v-232h-74zM1544 256q12 0 25.5 -2t23.5 8q18 18 22.5 48t4.5 52q0 27 -4 58t-21 49q-10 10 -24.5 9t-26.5 -1v-221zM1550 676 l92 219h-30l8 14h31q6 18 16 38t31 24q12 4 31 -2q4 -4 11 -11.5t1 -15.5q-10 -8 -14.5 0t-2.5 19q-10 4 -18 -0.5t-14 -13.5t-10.5 -19t-6.5 -19h29l-6 -14h-29l-92 -213q-14 0 -27 -6zM1552 1202.5v38.5h45q0 -10 -2 -22.5t2 -26.5t14.5 -22.5t22.5 1.5q14 10 16.5 30 t-1.5 34q-4 18 -15.5 31.5t-25.5 23.5q-47 31 -56 92q-2 27 5.5 53.5t29.5 41.5q20 10 46 9t42 -22q18 -20 17.5 -45.5t-0.5 -50.5q-10 0 -20.5 1t-20.5 1q0 14 1 30.5t-12 26.5q-18 20 -29.5 4t-13.5 -36q0 -29 14.5 -44.5t30.5 -29.5q37 -27 50 -72q4 -25 1 -49 t-14.5 -43.5t-30 -30t-44.5 -6.5q-20 4 -30.5 16.5t-16 29t-5.5 37zM1658 769.5q3 16.5 9 33.5l35 82q14 0 29 10l-27 -64q-4 -10 -16.5 -34.5t-4.5 -34.5q12 -12 30 5t24 28q6 10 10 19t12 20l25 55q6 0 12 2l12 4q-8 -23 -17 -44.5t-19 -43.5q-4 -10 -10.5 -23.5 t-0.5 -23.5q8 -12 20.5 2t22.5 31q8 23 19.5 45t21.5 45q8 23 17.5 43t19.5 43q12 -6 29 6l-58 -131l-20 -47q-2 -6 -4 -14.5t-3 -14.5t2 -9t11 1q18 6 33 31q8 23 19.5 46t21.5 46q8 23 16 43t19 43q14 -6 30 6l-57 -131l-20 -47q-2 -6 -4.5 -14.5t-3.5 -14.5t1 -9t13 1 q14 4 24.5 20.5t16.5 30.5l8 -4q-10 -18 -20.5 -34.5t-26.5 -27.5q-14 -10 -28.5 -3.5t-12.5 24.5q-14 -14 -27 -21q-14 -10 -28.5 -3.5t-12.5 26.5q-10 -12 -19 -21.5t-22 -9.5q-20 0 -22 14.5t4 28.5q-12 -16 -34 -32.5t-38 -4.5q-14 10 -11 26.5zM1712 1122v361h113v-49 h-66v-101h56v-53h-56v-109h66v-49h-113zM1735 -35v580h73v-580h-73zM1853 14q0 25 12.5 36t28 11t28.5 -11t13 -36t-13 -36t-28.5 -11t-28 11.5t-12.5 35.5zM1894 1338q0 48 13 94q6 20 17 35.5t30 17.5q41 10 65 -31q18 -41 18.5 -89t0.5 -91q0 -23 -1 -49.5t-8.5 -49 t-21.5 -39t-39 -16.5q-23 0 -36 12.5t-20 31t-10.5 40t-3.5 41.5q-4 45 -4 93zM1938 1270q-1 -23 1.5 -45.5t8.5 -41t20 -18.5q12 0 18.5 18.5t8.5 41t1 45t-1 33.5q0 8 1 31.5t-1 47t-8.5 42t-18.5 18.5q-14 0 -20 -18.5t-8.5 -42t-1.5 -47t1 -31.5q0 -10 -1 -33zM1976 676 l97 219h-33l6 14h33q6 18 16 38t31 24q12 4 31 -2q4 -4 12 -11.5t-2 -15.5t-13.5 0t-1.5 19q-10 4 -18 -0.5t-14 -13.5t-10.5 -19t-6.5 -19h29l-6 -14h-29l-92 -213q-14 0 -29 -6zM1982 -35v580h66q27 -102 52.5 -201.5t45.5 -204.5q-8 102 -9 202.5t-1 203.5h68v-580h-70 q-25 98 -51.5 197.5t-44.5 199.5q4 -68 6 -134t6 -134v-129h-68zM2056 1122v361h41q16 -63 32.5 -125t29.5 -127q-4 61 -5.5 124.5t-1.5 127.5h43v-361h-45q-16 59 -31.5 122t-27.5 126q4 -43 5 -84t3 -84v-80h-43zM2094 789.5q3 25.5 11 48.5q10 23 28.5 40t45.5 17 q20 0 29.5 -14.5t9.5 -34t-7 -40t-16 -32.5q27 0 41 27l37 86q14 -2 29 8q-6 -14 -11 -25.5t-16 -21.5v-4q14 16 31.5 32.5t36.5 18.5q25 0 23.5 -22.5t-7.5 -38.5q-4 -4 -9 -14.5t-11 -21t-9 -20.5t1 -16q4 -8 11 -4t14 12t14.5 18.5t11.5 16.5l41 90h-17l7 14h16l16 39 q12 0 29 8l-20 -47h30l-8 -14h-29l-37 -88q-4 -10 -10 -23.5t-2 -23.5q6 -6 14.5 -1t17.5 16t15 21.5t9 14.5l8 -4q-10 -18 -24.5 -40t-37.5 -26q-20 -6 -26.5 3.5t-1.5 23.5q-6 -6 -12.5 -12t-12.5 -11q-14 -10 -29.5 -5t-13.5 28q2 20 13.5 37.5t17.5 34.5q2 8 7 23.5 t-9 13.5q-23 -4 -42.5 -33t-29.5 -49q-8 -12 -13 -26.5t-12 -31.5h-24l14 39l-2 -2q-6 -6 -20 -10h-19q-10 -14 -22.5 -18.5t-18.5 -4.5q-18 -12 -37 7q-16 16 -13 41.5zM2118 770.5q0 -20.5 16 -20.5q12 0 26.5 21.5t23.5 46t10 45t-13 20.5q-16 0 -31.5 -20.5t-23.5 -46 t-8 -46zM2212 1122v361h45v-316h67v-45h-112zM2249 325.5q2 63.5 16 120.5q4 25 15.5 49.5t31.5 36.5q43 29 94 9q25 -12 39.5 -36t20.5 -53.5t8 -60.5t2 -55l-70 -8q2 29 0 58.5t-10 53.5q-8 18 -23.5 29.5t-29.5 -10.5q-12 -20 -14 -50t-5 -55q-2 -29 -2 -55.5v-52.5 v-54.5t5 -54.5q0 -23 4 -52.5t22 -43.5q23 -14 34 4t16 48t6 59.5t1 40.5h-53v67h121v-291h-53l-2 78q-4 -25 -15.5 -51.5t-35.5 -34.5q-23 -8 -45.5 4t-36.5 31q-29 41 -34 100.5t-5 106.5q-4 59 -2 122.5zM2329 1483h43q8 -45 16 -91t12 -96q2 49 10.5 94.5t16.5 92.5h43 q-10 -51 -20.5 -101.5t-20.5 -101.5q-10 -37 -7 -78t3 -80h-49q0 39 1 80t-7 78q-10 51 -20.5 101.5t-20.5 101.5zM2460 766q8 18 23 10t7 -24t-23.5 -9t-6.5 23zM2480 1153q0 14 8.5 21.5t17.5 7.5t17 -7.5t8 -21.5q0 -16 -8 -23.5t-17 -7.5t-17.5 7.5t-8.5 23.5z M2482 1483h47q0 -66 -2 -133.5t-6 -135.5h-31q-4 68 -6 134.5t-2 134.5zM2505 877q8 14 22 7.5t6 -22.5q-6 -18 -22.5 -11t-5.5 26z" />
<glyph unicode="7" d="M109 831h47q23 41 55.5 81t73.5 63q12 10 32.5 11t24.5 -23q4 -12 -1 -25.5t-9 -24.5q-10 -23 -19.5 -45t-19.5 -45q-6 -16 -19.5 -41.5t-5.5 -44.5q-18 -4 -22 6.5t-1 24.5t9 29.5t10 21.5l-86 -6q-10 -16 -19 -38.5t-12 -45.5q-16 -4 -19 6t0 26.5t9 32t10 19.5l-28 -2 zM135 1122v361h72q51 0 67 -62q8 -33 6.5 -77t-18.5 -76q-14 -23 -35.5 -25t-44.5 -2v-119h-47zM152 -352h2361v-51h-2361v51zM152 1794v53h2361v-53h-2361zM154 545h63q10 -123 17.5 -242t11.5 -240q6 92 12 182.5t16 182.5l13 117h80q12 -98 20 -196.5t14 -196.5l7 -89 q6 96 9 190.5t11 186.5l10 105h86q10 -123 17.5 -242t13.5 -240q6 92 11 182.5t14 182.5q6 29 8 57.5t6 59.5h82q10 -98 18 -196.5t17 -196.5l4 -89q6 96 10 190.5t12 186.5l8 105h89q10 -123 17 -242t11 -240q6 92 11.5 182.5t15.5 182.5l12 117h82q10 -98 18.5 -196.5 t16.5 -196.5l6 -89q6 96 9 190.5t11 186.5q4 27 5.5 52.5t3.5 52.5h63l-43 -580h-96q-10 115 -19.5 229.5t-13.5 231.5q-4 -86 -10 -172t-14 -172l-9 -117h-98l-25 326l-24 -326h-94q-10 115 -20.5 229.5t-14.5 231.5q-4 -86 -9 -172t-14 -172l-10 -117h-96l-25 332 l-24 -332h-97q-10 115 -19 228.5t-13 230.5q-2 -88 -8.5 -172t-14.5 -170l-12 -117h-94zM182 1282q10 0 19.5 -1t15.5 9q10 12 11 34t1 38t-1 36.5t-11 33.5q-6 10 -15 10h-20v-160zM184 831h88l27 64q2 6 8 18.5t10.5 24.5t5 22.5t-7.5 12.5q-16 4 -38.5 -16.5t-32.5 -32.5 q-33 -41 -60 -93zM297 1122v361h115v-49h-70v-101h57v-53h-57v-109h70v-49h-115zM309 782q4 29 16.5 54.5t22.5 48.5q12 0 29 10q-8 -18 -14.5 -35.5t-14.5 -34.5q-2 -6 -8 -17t-10 -23.5t-4 -21.5t8 -11q18 -4 35.5 19.5t23.5 35.5q10 18 16.5 40.5t6.5 45.5q18 4 20 -12.5 t-2 -30.5q-8 -39 -37 -74q16 -6 30.5 6.5t23.5 28.5l14 27q10 18 25.5 32.5t33.5 18.5q16 6 32.5 -2t37.5 -2l-39 -80q-4 -8 -11 -24.5t1 -20.5q10 -10 23.5 4t23.5 31q4 12 10 23t12 24l17 43q18 0 31 10l-39 -90q-4 -8 -10.5 -23.5t1.5 -21.5q8 -10 20.5 3t20.5 30 q8 23 19.5 45t21.5 45t18.5 43t18.5 43q14 -6 29 6l-55 -131q-4 -12 -10.5 -24.5t-10.5 -22.5q-2 -6 -5 -14.5t-3 -14.5t2 -9t12 1t19.5 15t17.5 28q4 10 8 18t8 17q10 18 24.5 32.5t35.5 18.5q18 6 34.5 -2t34.5 -2q-10 -20 -18 -39t-18 -41q-4 -8 -10.5 -24.5t-0.5 -20.5 q6 -6 13.5 -2t14.5 13t13 19.5t11 16.5l2 4l67 158q16 0 27 6q-10 -29 -20.5 -56.5t-26.5 -52.5q14 16 33.5 26.5t33.5 -13.5q14 -23 2 -55.5t-26 -49.5q12 -2 23.5 4t21.5 17q8 23 18 44t21 44l37 86q10 -4 28 6q-16 -33 -28.5 -65.5t-28.5 -65.5q-4 -12 -9 -24.5 t-12 -22.5q-2 -6 -4 -14.5t-2 -14.5t2 -9t13 1q10 4 21 18.5t18 28.5q6 35 26 51q6 8 19.5 18.5t29 15.5t27.5 1t16 -25q2 -18 -7 -34.5t-24.5 -27.5t-34 -17.5t-32.5 -6.5q-2 -14 7 -22t22 -8q27 0 49 17t37 42l8 -4q-16 -33 -48 -53.5t-65 -12.5q-35 6 -35 41 q-8 -12 -16 -22t-18 -15q-14 -10 -30.5 -2.5t-12.5 29.5v4q-4 -4 -9 -4q-8 -8 -24 -8h-14q-4 0 -6.5 -4t-6.5 -4q-20 -16 -44.5 -13.5t-37.5 25.5q-16 -20 -35 -27q-18 -6 -26 7.5t0 29.5q-10 -16 -28.5 -31.5t-37.5 -1.5q-14 8 -14 33q-14 -25 -29 -33q-16 -10 -31.5 -3.5 t-13.5 24.5l-11 -11t-11 -10q-16 -10 -31.5 -3.5t-11.5 26.5q-10 -8 -18.5 -15.5t-18.5 -11.5q-18 -6 -25.5 7.5t0.5 29.5h-2q-10 -16 -27.5 -31.5t-37.5 -1.5q-10 4 -12.5 15.5t-0.5 21.5q-8 -8 -20 -14q-8 -4 -27 -4q-10 0 -12 -2t-8 -6q-23 -16 -49.5 -14.5t-18.5 40.5z M424 1122v361h47h30.5t26.5 -6q20 -12 26.5 -39t6.5 -49v-30t-3 -35t-9 -30.5t-19 -19.5l37 -152h-49l-26 144q-6 0 -12.5 1t-12.5 1v-146h-43zM467 1305q10 0 18.5 -1t14.5 3q12 10 14 29.5t2 35.5t-2 35.5t-14 30.5q-6 4 -14.5 4h-18.5v-137zM468 766q1 -10 13 -10 q14 0 26.5 13t22 32.5t16.5 40t13 35.5q-20 12 -40.5 -7.5t-31.5 -38.5l-8 -16t-9 -25.5t-2 -23.5zM578 1382q-4 27 4 53.5t32 41.5q18 10 45 9t43 -22q18 -20 18.5 -45.5t0.5 -50.5q-12 0 -24.5 1t-22.5 1q0 14 1 30.5t-9 26.5q-18 20 -29.5 4t-13.5 -36q0 -29 15 -44.5 t32 -29.5q16 -14 29.5 -31.5t17.5 -40.5q4 -25 1 -49t-14.5 -43.5t-30 -30t-42.5 -6.5q-43 8 -48 45t-3 76h43q0 -10 -1 -22.5t1 -26.5q4 -14 15 -22.5t24 1.5q10 10 12 30t-2 34q-4 18 -14.5 31.5t-24.5 23.5q-23 16 -37 39t-18 53zM647 946q2 10 10.5 13.5t15.5 1t10 -9.5 t-3 -17q-6 -16 -21.5 -10t-11.5 22zM737 1338q0 48 13 94q6 20 16 35.5t33 17.5q43 10 63 -31q16 -41 17.5 -89t1.5 -91q0 -23 -2 -49.5t-9.5 -49t-20.5 -39t-38 -16.5q-23 0 -36 12.5t-21.5 31t-10.5 40t-4 41.5q-2 45 -2 93zM749 766q1 -10 13 -10q14 0 27.5 13t22.5 32.5 t16.5 40t13.5 35.5q-23 12 -43.5 -7.5t-30.5 -38.5l-8 -16t-9 -25.5t-2 -23.5zM781 1270q-1 -23 1 -45.5t8.5 -41t20.5 -18.5q12 0 17.5 18.5t7.5 41t1 45t-1 33.5q0 8 1 31.5t-1 47t-7.5 42t-17.5 18.5q-14 0 -20.5 -18.5t-8.5 -42t-1 -47t1 -31.5q0 -10 -1 -33zM885 764 q12 -10 23.5 -9t21.5 9t18 18.5t13 20.5q2 6 8 18.5t8 24.5t0 21.5t-14 9.5q-14 0 -25.5 -12.5t-21 -31t-17.5 -38t-14 -31.5zM899 1122v361h41q16 -63 31.5 -125t27.5 -127q-4 61 -5 124.5t-1 127.5h43v-361h-45q-14 59 -29.5 122t-27.5 126q4 -43 4 -84t4 -84v-80h-43z M1049 1122l36 361h74l39 -361h-43l-10 88h-45l-8 -88h-43zM1090 14q0 25 12 36t27.5 11t28.5 -11t13 -36t-13 -36t-28.5 -11t-27.5 11.5t-12 35.5zM1104 1260h37q-4 43 -9.5 84.5t-7.5 85.5q-2 -27 -6 -55.5t-8 -57.5zM1110 793q23 0 51.5 22.5t28.5 50.5q0 16 -11.5 15.5 t-21.5 -9.5q-10 -8 -18.5 -21.5t-14.5 -25.5q-12 -20 -14 -32zM1194 -35l61 580h119l64 -580h-74l-14 137h-70l-16 -137h-70zM1208 1122v361h47v-316h66v-45h-113zM1284 184h62q-6 70 -17.5 138.5t-15.5 140.5q-2 -47 -7.5 -92t-9.5 -92q-4 -23 -6 -47.5t-6 -47.5zM1296 772 q0 18 9.5 35.5t15.5 34.5q14 18 20 43q20 0 31 10l-39 -90q-4 -8 -11 -23.5t-1 -21.5t15.5 0t17.5 16t14 20.5t8 14.5l31 76q12 -2 31 8q-8 -14 -13.5 -25.5t-13.5 -21.5v-4q12 16 30.5 32.5t37.5 18.5q25 0 23.5 -22.5t-9.5 -38.5q-2 -4 -8 -14.5t-11.5 -21t-9.5 -20.5 t0 -16q4 -10 13.5 -4t17.5 16t15.5 21.5t9.5 15.5l8 -4q-10 -16 -20.5 -33.5t-26.5 -28.5q-14 -10 -28.5 -5t-12.5 28q2 20 13 37.5t17 34.5q2 8 6.5 23.5t-10.5 13.5q-23 -4 -41 -33t-28 -49l-25 -58h-24l8 23q-4 -4 -8.5 -8t-8.5 -7q-16 -10 -31.5 -2.5t-11.5 29.5z M1356 946q6 20 24.5 14t10.5 -26q-8 -16 -23.5 -10t-11.5 22zM1390 1252.5q1 33.5 1 60.5v170h47v-252q0 -10 -1 -23.5t3 -23.5q4 -12 14 -17.5t21 4.5q10 10 11 31t1 35q2 29 1 57.5t-1 57.5v131h45v-170q0 -27 1 -60.5t-3 -62.5t-19.5 -49.5t-48.5 -20.5t-48 20.5 t-20 49.5t-4 62.5zM1470 -35v580h76h45.5t42.5 -10q37 -18 47.5 -64.5t10.5 -87.5v-45t-5.5 -52.5t-16.5 -46t-30 -28.5l64 -246h-82l-43 232h-35v-232h-74zM1544 256q12 0 25.5 -2t23.5 8q18 18 22.5 48t4.5 52q0 27 -4 58t-21 49q-10 10 -24.5 9t-26.5 -1v-221zM1550 676 l92 219h-30l8 14h31q6 18 16 38t31 24q12 4 31 -2q4 -4 11 -11.5t1 -15.5q-10 -8 -14.5 0t-2.5 19q-10 4 -18 -0.5t-14 -13.5t-10.5 -19t-6.5 -19h29l-6 -14h-29l-92 -213q-14 0 -27 -6zM1552 1202.5v38.5h45q0 -10 -2 -22.5t2 -26.5t14.5 -22.5t22.5 1.5q14 10 16.5 30 t-1.5 34q-4 18 -15.5 31.5t-25.5 23.5q-47 31 -56 92q-2 27 5.5 53.5t29.5 41.5q20 10 46 9t42 -22q18 -20 17.5 -45.5t-0.5 -50.5q-10 0 -20.5 1t-20.5 1q0 14 1 30.5t-12 26.5q-18 20 -29.5 4t-13.5 -36q0 -29 14.5 -44.5t30.5 -29.5q37 -27 50 -72q4 -25 1 -49 t-14.5 -43.5t-30 -30t-44.5 -6.5q-20 4 -30.5 16.5t-16 29t-5.5 37zM1658 769.5q3 16.5 9 33.5l35 82q14 0 29 10l-27 -64q-4 -10 -16.5 -34.5t-4.5 -34.5q12 -12 30 5t24 28q6 10 10 19t12 20l25 55q6 0 12 2l12 4q-8 -23 -17 -44.5t-19 -43.5q-4 -10 -10.5 -23.5 t-0.5 -23.5q8 -12 20.5 2t22.5 31q8 23 19.5 45t21.5 45q8 23 17.5 43t19.5 43q12 -6 29 6l-58 -131l-20 -47q-2 -6 -4 -14.5t-3 -14.5t2 -9t11 1q18 6 33 31q8 23 19.5 46t21.5 46q8 23 16 43t19 43q14 -6 30 6l-57 -131l-20 -47q-2 -6 -4.5 -14.5t-3.5 -14.5t1 -9t13 1 q14 4 24.5 20.5t16.5 30.5l8 -4q-10 -18 -20.5 -34.5t-26.5 -27.5q-14 -10 -28.5 -3.5t-12.5 24.5q-14 -14 -27 -21q-14 -10 -28.5 -3.5t-12.5 26.5q-10 -12 -19 -21.5t-22 -9.5q-20 0 -22 14.5t4 28.5q-12 -16 -34 -32.5t-38 -4.5q-14 10 -11 26.5zM1712 1122v361h113v-49 h-66v-101h56v-53h-56v-109h66v-49h-113zM1735 -35v580h73v-580h-73zM1853 14q0 25 12.5 36t28 11t28.5 -11t13 -36t-13 -36t-28.5 -11t-28 11.5t-12.5 35.5zM1894 1338q0 48 13 94q6 20 17 35.5t30 17.5q41 10 65 -31q18 -41 18.5 -89t0.5 -91q0 -23 -1 -49.5t-8.5 -49 t-21.5 -39t-39 -16.5q-23 0 -36 12.5t-20 31t-10.5 40t-3.5 41.5q-4 45 -4 93zM1938 1270q-1 -23 1.5 -45.5t8.5 -41t20 -18.5q12 0 18.5 18.5t8.5 41t1 45t-1 33.5q0 8 1 31.5t-1 47t-8.5 42t-18.5 18.5q-14 0 -20 -18.5t-8.5 -42t-1.5 -47t1 -31.5q0 -10 -1 -33zM1976 676 l97 219h-33l6 14h33q6 18 16 38t31 24q12 4 31 -2q4 -4 12 -11.5t-2 -15.5t-13.5 0t-1.5 19q-10 4 -18 -0.5t-14 -13.5t-10.5 -19t-6.5 -19h29l-6 -14h-29l-92 -213q-14 0 -29 -6zM1982 -35v580h66q27 -102 52.5 -201.5t45.5 -204.5q-8 102 -9 202.5t-1 203.5h68v-580h-70 q-25 98 -51.5 197.5t-44.5 199.5q4 -68 6 -134t6 -134v-129h-68zM2056 1122v361h41q16 -63 32.5 -125t29.5 -127q-4 61 -5.5 124.5t-1.5 127.5h43v-361h-45q-16 59 -31.5 122t-27.5 126q4 -43 5 -84t3 -84v-80h-43zM2094 789.5q3 25.5 11 48.5q10 23 28.5 40t45.5 17 q20 0 29.5 -14.5t9.5 -34t-7 -40t-16 -32.5q27 0 41 27l37 86q14 -2 29 8q-6 -14 -11 -25.5t-16 -21.5v-4q14 16 31.5 32.5t36.5 18.5q25 0 23.5 -22.5t-7.5 -38.5q-4 -4 -9 -14.5t-11 -21t-9 -20.5t1 -16q4 -8 11 -4t14 12t14.5 18.5t11.5 16.5l41 90h-17l7 14h16l16 39 q12 0 29 8l-20 -47h30l-8 -14h-29l-37 -88q-4 -10 -10 -23.5t-2 -23.5q6 -6 14.5 -1t17.5 16t15 21.5t9 14.5l8 -4q-10 -18 -24.5 -40t-37.5 -26q-20 -6 -26.5 3.5t-1.5 23.5q-6 -6 -12.5 -12t-12.5 -11q-14 -10 -29.5 -5t-13.5 28q2 20 13.5 37.5t17.5 34.5q2 8 7 23.5 t-9 13.5q-23 -4 -42.5 -33t-29.5 -49q-8 -12 -13 -26.5t-12 -31.5h-24l14 39l-2 -2q-6 -6 -20 -10h-19q-10 -14 -22.5 -18.5t-18.5 -4.5q-18 -12 -37 7q-16 16 -13 41.5zM2118 770.5q0 -20.5 16 -20.5q12 0 26.5 21.5t23.5 46t10 45t-13 20.5q-16 0 -31.5 -20.5t-23.5 -46 t-8 -46zM2212 1122v361h45v-316h67v-45h-112zM2249 325.5q2 63.5 16 120.5q4 25 15.5 49.5t31.5 36.5q43 29 94 9q25 -12 39.5 -36t20.5 -53.5t8 -60.5t2 -55l-70 -8q2 29 0 58.5t-10 53.5q-8 18 -23.5 29.5t-29.5 -10.5q-12 -20 -14 -50t-5 -55q-2 -29 -2 -55.5v-52.5 v-54.5t5 -54.5q0 -23 4 -52.5t22 -43.5q23 -14 34 4t16 48t6 59.5t1 40.5h-53v67h121v-291h-53l-2 78q-4 -25 -15.5 -51.5t-35.5 -34.5q-23 -8 -45.5 4t-36.5 31q-29 41 -34 100.5t-5 106.5q-4 59 -2 122.5zM2329 1483h43q8 -45 16 -91t12 -96q2 49 10.5 94.5t16.5 92.5h43 q-10 -51 -20.5 -101.5t-20.5 -101.5q-10 -37 -7 -78t3 -80h-49q0 39 1 80t-7 78q-10 51 -20.5 101.5t-20.5 101.5zM2460 766q8 18 23 10t7 -24t-23.5 -9t-6.5 23zM2480 1153q0 14 8.5 21.5t17.5 7.5t17 -7.5t8 -21.5q0 -16 -8 -23.5t-17 -7.5t-17.5 7.5t-8.5 23.5z M2482 1483h47q0 -66 -2 -133.5t-6 -135.5h-31q-4 68 -6 134.5t-2 134.5zM2505 877q8 14 22 7.5t6 -22.5q-6 -18 -22.5 -11t-5.5 26z" />
<glyph unicode="8" d="M109 831h47q23 41 55.5 81t73.5 63q12 10 32.5 11t24.5 -23q4 -12 -1 -25.5t-9 -24.5q-10 -23 -19.5 -45t-19.5 -45q-6 -16 -19.5 -41.5t-5.5 -44.5q-18 -4 -22 6.5t-1 24.5t9 29.5t10 21.5l-86 -6q-10 -16 -19 -38.5t-12 -45.5q-16 -4 -19 6t0 26.5t9 32t10 19.5l-28 -2 zM135 1122v361h72q51 0 67 -62q8 -33 6.5 -77t-18.5 -76q-14 -23 -35.5 -25t-44.5 -2v-119h-47zM152 -352h2361v-51h-2361v51zM152 1794v53h2361v-53h-2361zM154 545h63q10 -123 17.5 -242t11.5 -240q6 92 12 182.5t16 182.5l13 117h80q12 -98 20 -196.5t14 -196.5l7 -89 q6 96 9 190.5t11 186.5l10 105h86q10 -123 17.5 -242t13.5 -240q6 92 11 182.5t14 182.5q6 29 8 57.5t6 59.5h82q10 -98 18 -196.5t17 -196.5l4 -89q6 96 10 190.5t12 186.5l8 105h89q10 -123 17 -242t11 -240q6 92 11.5 182.5t15.5 182.5l12 117h82q10 -98 18.5 -196.5 t16.5 -196.5l6 -89q6 96 9 190.5t11 186.5q4 27 5.5 52.5t3.5 52.5h63l-43 -580h-96q-10 115 -19.5 229.5t-13.5 231.5q-4 -86 -10 -172t-14 -172l-9 -117h-98l-25 326l-24 -326h-94q-10 115 -20.5 229.5t-14.5 231.5q-4 -86 -9 -172t-14 -172l-10 -117h-96l-25 332 l-24 -332h-97q-10 115 -19 228.5t-13 230.5q-2 -88 -8.5 -172t-14.5 -170l-12 -117h-94zM182 1282q10 0 19.5 -1t15.5 9q10 12 11 34t1 38t-1 36.5t-11 33.5q-6 10 -15 10h-20v-160zM184 831h88l27 64q2 6 8 18.5t10.5 24.5t5 22.5t-7.5 12.5q-16 4 -38.5 -16.5t-32.5 -32.5 q-33 -41 -60 -93zM297 1122v361h115v-49h-70v-101h57v-53h-57v-109h70v-49h-115zM309 782q4 29 16.5 54.5t22.5 48.5q12 0 29 10q-8 -18 -14.5 -35.5t-14.5 -34.5q-2 -6 -8 -17t-10 -23.5t-4 -21.5t8 -11q18 -4 35.5 19.5t23.5 35.5q10 18 16.5 40.5t6.5 45.5q18 4 20 -12.5 t-2 -30.5q-8 -39 -37 -74q16 -6 30.5 6.5t23.5 28.5l14 27q10 18 25.5 32.5t33.5 18.5q16 6 32.5 -2t37.5 -2l-39 -80q-4 -8 -11 -24.5t1 -20.5q10 -10 23.5 4t23.5 31q4 12 10 23t12 24l17 43q18 0 31 10l-39 -90q-4 -8 -10.5 -23.5t1.5 -21.5q8 -10 20.5 3t20.5 30 q8 23 19.5 45t21.5 45t18.5 43t18.5 43q14 -6 29 6l-55 -131q-4 -12 -10.5 -24.5t-10.5 -22.5q-2 -6 -5 -14.5t-3 -14.5t2 -9t12 1t19.5 15t17.5 28q4 10 8 18t8 17q10 18 24.5 32.5t35.5 18.5q18 6 34.5 -2t34.5 -2q-10 -20 -18 -39t-18 -41q-4 -8 -10.5 -24.5t-0.5 -20.5 q6 -6 13.5 -2t14.5 13t13 19.5t11 16.5l2 4l67 158q16 0 27 6q-10 -29 -20.5 -56.5t-26.5 -52.5q14 16 33.5 26.5t33.5 -13.5q14 -23 2 -55.5t-26 -49.5q12 -2 23.5 4t21.5 17q8 23 18 44t21 44l37 86q10 -4 28 6q-16 -33 -28.5 -65.5t-28.5 -65.5q-4 -12 -9 -24.5 t-12 -22.5q-2 -6 -4 -14.5t-2 -14.5t2 -9t13 1q10 4 21 18.5t18 28.5q6 35 26 51q6 8 19.5 18.5t29 15.5t27.5 1t16 -25q2 -18 -7 -34.5t-24.5 -27.5t-34 -17.5t-32.5 -6.5q-2 -14 7 -22t22 -8q27 0 49 17t37 42l8 -4q-16 -33 -48 -53.5t-65 -12.5q-35 6 -35 41 q-8 -12 -16 -22t-18 -15q-14 -10 -30.5 -2.5t-12.5 29.5v4q-4 -4 -9 -4q-8 -8 -24 -8h-14q-4 0 -6.5 -4t-6.5 -4q-20 -16 -44.5 -13.5t-37.5 25.5q-16 -20 -35 -27q-18 -6 -26 7.5t0 29.5q-10 -16 -28.5 -31.5t-37.5 -1.5q-14 8 -14 33q-14 -25 -29 -33q-16 -10 -31.5 -3.5 t-13.5 24.5l-11 -11t-11 -10q-16 -10 -31.5 -3.5t-11.5 26.5q-10 -8 -18.5 -15.5t-18.5 -11.5q-18 -6 -25.5 7.5t0.5 29.5h-2q-10 -16 -27.5 -31.5t-37.5 -1.5q-10 4 -12.5 15.5t-0.5 21.5q-8 -8 -20 -14q-8 -4 -27 -4q-10 0 -12 -2t-8 -6q-23 -16 -49.5 -14.5t-18.5 40.5z M424 1122v361h47h30.5t26.5 -6q20 -12 26.5 -39t6.5 -49v-30t-3 -35t-9 -30.5t-19 -19.5l37 -152h-49l-26 144q-6 0 -12.5 1t-12.5 1v-146h-43zM467 1305q10 0 18.5 -1t14.5 3q12 10 14 29.5t2 35.5t-2 35.5t-14 30.5q-6 4 -14.5 4h-18.5v-137zM468 766q1 -10 13 -10 q14 0 26.5 13t22 32.5t16.5 40t13 35.5q-20 12 -40.5 -7.5t-31.5 -38.5l-8 -16t-9 -25.5t-2 -23.5zM578 1382q-4 27 4 53.5t32 41.5q18 10 45 9t43 -22q18 -20 18.5 -45.5t0.5 -50.5q-12 0 -24.5 1t-22.5 1q0 14 1 30.5t-9 26.5q-18 20 -29.5 4t-13.5 -36q0 -29 15 -44.5 t32 -29.5q16 -14 29.5 -31.5t17.5 -40.5q4 -25 1 -49t-14.5 -43.5t-30 -30t-42.5 -6.5q-43 8 -48 45t-3 76h43q0 -10 -1 -22.5t1 -26.5q4 -14 15 -22.5t24 1.5q10 10 12 30t-2 34q-4 18 -14.5 31.5t-24.5 23.5q-23 16 -37 39t-18 53zM647 946q2 10 10.5 13.5t15.5 1t10 -9.5 t-3 -17q-6 -16 -21.5 -10t-11.5 22zM737 1338q0 48 13 94q6 20 16 35.5t33 17.5q43 10 63 -31q16 -41 17.5 -89t1.5 -91q0 -23 -2 -49.5t-9.5 -49t-20.5 -39t-38 -16.5q-23 0 -36 12.5t-21.5 31t-10.5 40t-4 41.5q-2 45 -2 93zM749 766q1 -10 13 -10q14 0 27.5 13t22.5 32.5 t16.5 40t13.5 35.5q-23 12 -43.5 -7.5t-30.5 -38.5l-8 -16t-9 -25.5t-2 -23.5zM781 1270q-1 -23 1 -45.5t8.5 -41t20.5 -18.5q12 0 17.5 18.5t7.5 41t1 45t-1 33.5q0 8 1 31.5t-1 47t-7.5 42t-17.5 18.5q-14 0 -20.5 -18.5t-8.5 -42t-1 -47t1 -31.5q0 -10 -1 -33zM885 764 q12 -10 23.5 -9t21.5 9t18 18.5t13 20.5q2 6 8 18.5t8 24.5t0 21.5t-14 9.5q-14 0 -25.5 -12.5t-21 -31t-17.5 -38t-14 -31.5zM899 1122v361h41q16 -63 31.5 -125t27.5 -127q-4 61 -5 124.5t-1 127.5h43v-361h-45q-14 59 -29.5 122t-27.5 126q4 -43 4 -84t4 -84v-80h-43z M1049 1122l36 361h74l39 -361h-43l-10 88h-45l-8 -88h-43zM1090 14q0 25 12 36t27.5 11t28.5 -11t13 -36t-13 -36t-28.5 -11t-27.5 11.5t-12 35.5zM1104 1260h37q-4 43 -9.5 84.5t-7.5 85.5q-2 -27 -6 -55.5t-8 -57.5zM1110 793q23 0 51.5 22.5t28.5 50.5q0 16 -11.5 15.5 t-21.5 -9.5q-10 -8 -18.5 -21.5t-14.5 -25.5q-12 -20 -14 -32zM1194 -35l61 580h119l64 -580h-74l-14 137h-70l-16 -137h-70zM1208 1122v361h47v-316h66v-45h-113zM1284 184h62q-6 70 -17.5 138.5t-15.5 140.5q-2 -47 -7.5 -92t-9.5 -92q-4 -23 -6 -47.5t-6 -47.5zM1296 772 q0 18 9.5 35.5t15.5 34.5q14 18 20 43q20 0 31 10l-39 -90q-4 -8 -11 -23.5t-1 -21.5t15.5 0t17.5 16t14 20.5t8 14.5l31 76q12 -2 31 8q-8 -14 -13.5 -25.5t-13.5 -21.5v-4q12 16 30.5 32.5t37.5 18.5q25 0 23.5 -22.5t-9.5 -38.5q-2 -4 -8 -14.5t-11.5 -21t-9.5 -20.5 t0 -16q4 -10 13.5 -4t17.5 16t15.5 21.5t9.5 15.5l8 -4q-10 -16 -20.5 -33.5t-26.5 -28.5q-14 -10 -28.5 -5t-12.5 28q2 20 13 37.5t17 34.5q2 8 6.5 23.5t-10.5 13.5q-23 -4 -41 -33t-28 -49l-25 -58h-24l8 23q-4 -4 -8.5 -8t-8.5 -7q-16 -10 -31.5 -2.5t-11.5 29.5z M1356 946q6 20 24.5 14t10.5 -26q-8 -16 -23.5 -10t-11.5 22zM1390 1252.5q1 33.5 1 60.5v170h47v-252q0 -10 -1 -23.5t3 -23.5q4 -12 14 -17.5t21 4.5q10 10 11 31t1 35q2 29 1 57.5t-1 57.5v131h45v-170q0 -27 1 -60.5t-3 -62.5t-19.5 -49.5t-48.5 -20.5t-48 20.5 t-20 49.5t-4 62.5zM1470 -35v580h76h45.5t42.5 -10q37 -18 47.5 -64.5t10.5 -87.5v-45t-5.5 -52.5t-16.5 -46t-30 -28.5l64 -246h-82l-43 232h-35v-232h-74zM1544 256q12 0 25.5 -2t23.5 8q18 18 22.5 48t4.5 52q0 27 -4 58t-21 49q-10 10 -24.5 9t-26.5 -1v-221zM1550 676 l92 219h-30l8 14h31q6 18 16 38t31 24q12 4 31 -2q4 -4 11 -11.5t1 -15.5q-10 -8 -14.5 0t-2.5 19q-10 4 -18 -0.5t-14 -13.5t-10.5 -19t-6.5 -19h29l-6 -14h-29l-92 -213q-14 0 -27 -6zM1552 1202.5v38.5h45q0 -10 -2 -22.5t2 -26.5t14.5 -22.5t22.5 1.5q14 10 16.5 30 t-1.5 34q-4 18 -15.5 31.5t-25.5 23.5q-47 31 -56 92q-2 27 5.5 53.5t29.5 41.5q20 10 46 9t42 -22q18 -20 17.5 -45.5t-0.5 -50.5q-10 0 -20.5 1t-20.5 1q0 14 1 30.5t-12 26.5q-18 20 -29.5 4t-13.5 -36q0 -29 14.5 -44.5t30.5 -29.5q37 -27 50 -72q4 -25 1 -49 t-14.5 -43.5t-30 -30t-44.5 -6.5q-20 4 -30.5 16.5t-16 29t-5.5 37zM1658 769.5q3 16.5 9 33.5l35 82q14 0 29 10l-27 -64q-4 -10 -16.5 -34.5t-4.5 -34.5q12 -12 30 5t24 28q6 10 10 19t12 20l25 55q6 0 12 2l12 4q-8 -23 -17 -44.5t-19 -43.5q-4 -10 -10.5 -23.5 t-0.5 -23.5q8 -12 20.5 2t22.5 31q8 23 19.5 45t21.5 45q8 23 17.5 43t19.5 43q12 -6 29 6l-58 -131l-20 -47q-2 -6 -4 -14.5t-3 -14.5t2 -9t11 1q18 6 33 31q8 23 19.5 46t21.5 46q8 23 16 43t19 43q14 -6 30 6l-57 -131l-20 -47q-2 -6 -4.5 -14.5t-3.5 -14.5t1 -9t13 1 q14 4 24.5 20.5t16.5 30.5l8 -4q-10 -18 -20.5 -34.5t-26.5 -27.5q-14 -10 -28.5 -3.5t-12.5 24.5q-14 -14 -27 -21q-14 -10 -28.5 -3.5t-12.5 26.5q-10 -12 -19 -21.5t-22 -9.5q-20 0 -22 14.5t4 28.5q-12 -16 -34 -32.5t-38 -4.5q-14 10 -11 26.5zM1712 1122v361h113v-49 h-66v-101h56v-53h-56v-109h66v-49h-113zM1735 -35v580h73v-580h-73zM1853 14q0 25 12.5 36t28 11t28.5 -11t13 -36t-13 -36t-28.5 -11t-28 11.5t-12.5 35.5zM1894 1338q0 48 13 94q6 20 17 35.5t30 17.5q41 10 65 -31q18 -41 18.5 -89t0.5 -91q0 -23 -1 -49.5t-8.5 -49 t-21.5 -39t-39 -16.5q-23 0 -36 12.5t-20 31t-10.5 40t-3.5 41.5q-4 45 -4 93zM1938 1270q-1 -23 1.5 -45.5t8.5 -41t20 -18.5q12 0 18.5 18.5t8.5 41t1 45t-1 33.5q0 8 1 31.5t-1 47t-8.5 42t-18.5 18.5q-14 0 -20 -18.5t-8.5 -42t-1.5 -47t1 -31.5q0 -10 -1 -33zM1976 676 l97 219h-33l6 14h33q6 18 16 38t31 24q12 4 31 -2q4 -4 12 -11.5t-2 -15.5t-13.5 0t-1.5 19q-10 4 -18 -0.5t-14 -13.5t-10.5 -19t-6.5 -19h29l-6 -14h-29l-92 -213q-14 0 -29 -6zM1982 -35v580h66q27 -102 52.5 -201.5t45.5 -204.5q-8 102 -9 202.5t-1 203.5h68v-580h-70 q-25 98 -51.5 197.5t-44.5 199.5q4 -68 6 -134t6 -134v-129h-68zM2056 1122v361h41q16 -63 32.5 -125t29.5 -127q-4 61 -5.5 124.5t-1.5 127.5h43v-361h-45q-16 59 -31.5 122t-27.5 126q4 -43 5 -84t3 -84v-80h-43zM2094 789.5q3 25.5 11 48.5q10 23 28.5 40t45.5 17 q20 0 29.5 -14.5t9.5 -34t-7 -40t-16 -32.5q27 0 41 27l37 86q14 -2 29 8q-6 -14 -11 -25.5t-16 -21.5v-4q14 16 31.5 32.5t36.5 18.5q25 0 23.5 -22.5t-7.5 -38.5q-4 -4 -9 -14.5t-11 -21t-9 -20.5t1 -16q4 -8 11 -4t14 12t14.5 18.5t11.5 16.5l41 90h-17l7 14h16l16 39 q12 0 29 8l-20 -47h30l-8 -14h-29l-37 -88q-4 -10 -10 -23.5t-2 -23.5q6 -6 14.5 -1t17.5 16t15 21.5t9 14.5l8 -4q-10 -18 -24.5 -40t-37.5 -26q-20 -6 -26.5 3.5t-1.5 23.5q-6 -6 -12.5 -12t-12.5 -11q-14 -10 -29.5 -5t-13.5 28q2 20 13.5 37.5t17.5 34.5q2 8 7 23.5 t-9 13.5q-23 -4 -42.5 -33t-29.5 -49q-8 -12 -13 -26.5t-12 -31.5h-24l14 39l-2 -2q-6 -6 -20 -10h-19q-10 -14 -22.5 -18.5t-18.5 -4.5q-18 -12 -37 7q-16 16 -13 41.5zM2118 770.5q0 -20.5 16 -20.5q12 0 26.5 21.5t23.5 46t10 45t-13 20.5q-16 0 -31.5 -20.5t-23.5 -46 t-8 -46zM2212 1122v361h45v-316h67v-45h-112zM2249 325.5q2 63.5 16 120.5q4 25 15.5 49.5t31.5 36.5q43 29 94 9q25 -12 39.5 -36t20.5 -53.5t8 -60.5t2 -55l-70 -8q2 29 0 58.5t-10 53.5q-8 18 -23.5 29.5t-29.5 -10.5q-12 -20 -14 -50t-5 -55q-2 -29 -2 -55.5v-52.5 v-54.5t5 -54.5q0 -23 4 -52.5t22 -43.5q23 -14 34 4t16 48t6 59.5t1 40.5h-53v67h121v-291h-53l-2 78q-4 -25 -15.5 -51.5t-35.5 -34.5q-23 -8 -45.5 4t-36.5 31q-29 41 -34 100.5t-5 106.5q-4 59 -2 122.5zM2329 1483h43q8 -45 16 -91t12 -96q2 49 10.5 94.5t16.5 92.5h43 q-10 -51 -20.5 -101.5t-20.5 -101.5q-10 -37 -7 -78t3 -80h-49q0 39 1 80t-7 78q-10 51 -20.5 101.5t-20.5 101.5zM2460 766q8 18 23 10t7 -24t-23.5 -9t-6.5 23zM2480 1153q0 14 8.5 21.5t17.5 7.5t17 -7.5t8 -21.5q0 -16 -8 -23.5t-17 -7.5t-17.5 7.5t-8.5 23.5z M2482 1483h47q0 -66 -2 -133.5t-6 -135.5h-31q-4 68 -6 134.5t-2 134.5zM2505 877q8 14 22 7.5t6 -22.5q-6 -18 -22.5 -11t-5.5 26z" />
<glyph unicode="9" d="M109 831h47q23 41 55.5 81t73.5 63q12 10 32.5 11t24.5 -23q4 -12 -1 -25.5t-9 -24.5q-10 -23 -19.5 -45t-19.5 -45q-6 -16 -19.5 -41.5t-5.5 -44.5q-18 -4 -22 6.5t-1 24.5t9 29.5t10 21.5l-86 -6q-10 -16 -19 -38.5t-12 -45.5q-16 -4 -19 6t0 26.5t9 32t10 19.5l-28 -2 zM135 1122v361h72q51 0 67 -62q8 -33 6.5 -77t-18.5 -76q-14 -23 -35.5 -25t-44.5 -2v-119h-47zM152 -352h2361v-51h-2361v51zM152 1794v53h2361v-53h-2361zM154 545h63q10 -123 17.5 -242t11.5 -240q6 92 12 182.5t16 182.5l13 117h80q12 -98 20 -196.5t14 -196.5l7 -89 q6 96 9 190.5t11 186.5l10 105h86q10 -123 17.5 -242t13.5 -240q6 92 11 182.5t14 182.5q6 29 8 57.5t6 59.5h82q10 -98 18 -196.5t17 -196.5l4 -89q6 96 10 190.5t12 186.5l8 105h89q10 -123 17 -242t11 -240q6 92 11.5 182.5t15.5 182.5l12 117h82q10 -98 18.5 -196.5 t16.5 -196.5l6 -89q6 96 9 190.5t11 186.5q4 27 5.5 52.5t3.5 52.5h63l-43 -580h-96q-10 115 -19.5 229.5t-13.5 231.5q-4 -86 -10 -172t-14 -172l-9 -117h-98l-25 326l-24 -326h-94q-10 115 -20.5 229.5t-14.5 231.5q-4 -86 -9 -172t-14 -172l-10 -117h-96l-25 332 l-24 -332h-97q-10 115 -19 228.5t-13 230.5q-2 -88 -8.5 -172t-14.5 -170l-12 -117h-94zM182 1282q10 0 19.5 -1t15.5 9q10 12 11 34t1 38t-1 36.5t-11 33.5q-6 10 -15 10h-20v-160zM184 831h88l27 64q2 6 8 18.5t10.5 24.5t5 22.5t-7.5 12.5q-16 4 -38.5 -16.5t-32.5 -32.5 q-33 -41 -60 -93zM297 1122v361h115v-49h-70v-101h57v-53h-57v-109h70v-49h-115zM309 782q4 29 16.5 54.5t22.5 48.5q12 0 29 10q-8 -18 -14.5 -35.5t-14.5 -34.5q-2 -6 -8 -17t-10 -23.5t-4 -21.5t8 -11q18 -4 35.5 19.5t23.5 35.5q10 18 16.5 40.5t6.5 45.5q18 4 20 -12.5 t-2 -30.5q-8 -39 -37 -74q16 -6 30.5 6.5t23.5 28.5l14 27q10 18 25.5 32.5t33.5 18.5q16 6 32.5 -2t37.5 -2l-39 -80q-4 -8 -11 -24.5t1 -20.5q10 -10 23.5 4t23.5 31q4 12 10 23t12 24l17 43q18 0 31 10l-39 -90q-4 -8 -10.5 -23.5t1.5 -21.5q8 -10 20.5 3t20.5 30 q8 23 19.5 45t21.5 45t18.5 43t18.5 43q14 -6 29 6l-55 -131q-4 -12 -10.5 -24.5t-10.5 -22.5q-2 -6 -5 -14.5t-3 -14.5t2 -9t12 1t19.5 15t17.5 28q4 10 8 18t8 17q10 18 24.5 32.5t35.5 18.5q18 6 34.5 -2t34.5 -2q-10 -20 -18 -39t-18 -41q-4 -8 -10.5 -24.5t-0.5 -20.5 q6 -6 13.5 -2t14.5 13t13 19.5t11 16.5l2 4l67 158q16 0 27 6q-10 -29 -20.5 -56.5t-26.5 -52.5q14 16 33.5 26.5t33.5 -13.5q14 -23 2 -55.5t-26 -49.5q12 -2 23.5 4t21.5 17q8 23 18 44t21 44l37 86q10 -4 28 6q-16 -33 -28.5 -65.5t-28.5 -65.5q-4 -12 -9 -24.5 t-12 -22.5q-2 -6 -4 -14.5t-2 -14.5t2 -9t13 1q10 4 21 18.5t18 28.5q6 35 26 51q6 8 19.5 18.5t29 15.5t27.5 1t16 -25q2 -18 -7 -34.5t-24.5 -27.5t-34 -17.5t-32.5 -6.5q-2 -14 7 -22t22 -8q27 0 49 17t37 42l8 -4q-16 -33 -48 -53.5t-65 -12.5q-35 6 -35 41 q-8 -12 -16 -22t-18 -15q-14 -10 -30.5 -2.5t-12.5 29.5v4q-4 -4 -9 -4q-8 -8 -24 -8h-14q-4 0 -6.5 -4t-6.5 -4q-20 -16 -44.5 -13.5t-37.5 25.5q-16 -20 -35 -27q-18 -6 -26 7.5t0 29.5q-10 -16 -28.5 -31.5t-37.5 -1.5q-14 8 -14 33q-14 -25 -29 -33q-16 -10 -31.5 -3.5 t-13.5 24.5l-11 -11t-11 -10q-16 -10 -31.5 -3.5t-11.5 26.5q-10 -8 -18.5 -15.5t-18.5 -11.5q-18 -6 -25.5 7.5t0.5 29.5h-2q-10 -16 -27.5 -31.5t-37.5 -1.5q-10 4 -12.5 15.5t-0.5 21.5q-8 -8 -20 -14q-8 -4 -27 -4q-10 0 -12 -2t-8 -6q-23 -16 -49.5 -14.5t-18.5 40.5z M424 1122v361h47h30.5t26.5 -6q20 -12 26.5 -39t6.5 -49v-30t-3 -35t-9 -30.5t-19 -19.5l37 -152h-49l-26 144q-6 0 -12.5 1t-12.5 1v-146h-43zM467 1305q10 0 18.5 -1t14.5 3q12 10 14 29.5t2 35.5t-2 35.5t-14 30.5q-6 4 -14.5 4h-18.5v-137zM468 766q1 -10 13 -10 q14 0 26.5 13t22 32.5t16.5 40t13 35.5q-20 12 -40.5 -7.5t-31.5 -38.5l-8 -16t-9 -25.5t-2 -23.5zM578 1382q-4 27 4 53.5t32 41.5q18 10 45 9t43 -22q18 -20 18.5 -45.5t0.5 -50.5q-12 0 -24.5 1t-22.5 1q0 14 1 30.5t-9 26.5q-18 20 -29.5 4t-13.5 -36q0 -29 15 -44.5 t32 -29.5q16 -14 29.5 -31.5t17.5 -40.5q4 -25 1 -49t-14.5 -43.5t-30 -30t-42.5 -6.5q-43 8 -48 45t-3 76h43q0 -10 -1 -22.5t1 -26.5q4 -14 15 -22.5t24 1.5q10 10 12 30t-2 34q-4 18 -14.5 31.5t-24.5 23.5q-23 16 -37 39t-18 53zM647 946q2 10 10.5 13.5t15.5 1t10 -9.5 t-3 -17q-6 -16 -21.5 -10t-11.5 22zM737 1338q0 48 13 94q6 20 16 35.5t33 17.5q43 10 63 -31q16 -41 17.5 -89t1.5 -91q0 -23 -2 -49.5t-9.5 -49t-20.5 -39t-38 -16.5q-23 0 -36 12.5t-21.5 31t-10.5 40t-4 41.5q-2 45 -2 93zM749 766q1 -10 13 -10q14 0 27.5 13t22.5 32.5 t16.5 40t13.5 35.5q-23 12 -43.5 -7.5t-30.5 -38.5l-8 -16t-9 -25.5t-2 -23.5zM781 1270q-1 -23 1 -45.5t8.5 -41t20.5 -18.5q12 0 17.5 18.5t7.5 41t1 45t-1 33.5q0 8 1 31.5t-1 47t-7.5 42t-17.5 18.5q-14 0 -20.5 -18.5t-8.5 -42t-1 -47t1 -31.5q0 -10 -1 -33zM885 764 q12 -10 23.5 -9t21.5 9t18 18.5t13 20.5q2 6 8 18.5t8 24.5t0 21.5t-14 9.5q-14 0 -25.5 -12.5t-21 -31t-17.5 -38t-14 -31.5zM899 1122v361h41q16 -63 31.5 -125t27.5 -127q-4 61 -5 124.5t-1 127.5h43v-361h-45q-14 59 -29.5 122t-27.5 126q4 -43 4 -84t4 -84v-80h-43z M1049 1122l36 361h74l39 -361h-43l-10 88h-45l-8 -88h-43zM1090 14q0 25 12 36t27.5 11t28.5 -11t13 -36t-13 -36t-28.5 -11t-27.5 11.5t-12 35.5zM1104 1260h37q-4 43 -9.5 84.5t-7.5 85.5q-2 -27 -6 -55.5t-8 -57.5zM1110 793q23 0 51.5 22.5t28.5 50.5q0 16 -11.5 15.5 t-21.5 -9.5q-10 -8 -18.5 -21.5t-14.5 -25.5q-12 -20 -14 -32zM1194 -35l61 580h119l64 -580h-74l-14 137h-70l-16 -137h-70zM1208 1122v361h47v-316h66v-45h-113zM1284 184h62q-6 70 -17.5 138.5t-15.5 140.5q-2 -47 -7.5 -92t-9.5 -92q-4 -23 -6 -47.5t-6 -47.5zM1296 772 q0 18 9.5 35.5t15.5 34.5q14 18 20 43q20 0 31 10l-39 -90q-4 -8 -11 -23.5t-1 -21.5t15.5 0t17.5 16t14 20.5t8 14.5l31 76q12 -2 31 8q-8 -14 -13.5 -25.5t-13.5 -21.5v-4q12 16 30.5 32.5t37.5 18.5q25 0 23.5 -22.5t-9.5 -38.5q-2 -4 -8 -14.5t-11.5 -21t-9.5 -20.5 t0 -16q4 -10 13.5 -4t17.5 16t15.5 21.5t9.5 15.5l8 -4q-10 -16 -20.5 -33.5t-26.5 -28.5q-14 -10 -28.5 -5t-12.5 28q2 20 13 37.5t17 34.5q2 8 6.5 23.5t-10.5 13.5q-23 -4 -41 -33t-28 -49l-25 -58h-24l8 23q-4 -4 -8.5 -8t-8.5 -7q-16 -10 -31.5 -2.5t-11.5 29.5z M1356 946q6 20 24.5 14t10.5 -26q-8 -16 -23.5 -10t-11.5 22zM1390 1252.5q1 33.5 1 60.5v170h47v-252q0 -10 -1 -23.5t3 -23.5q4 -12 14 -17.5t21 4.5q10 10 11 31t1 35q2 29 1 57.5t-1 57.5v131h45v-170q0 -27 1 -60.5t-3 -62.5t-19.5 -49.5t-48.5 -20.5t-48 20.5 t-20 49.5t-4 62.5zM1470 -35v580h76h45.5t42.5 -10q37 -18 47.5 -64.5t10.5 -87.5v-45t-5.5 -52.5t-16.5 -46t-30 -28.5l64 -246h-82l-43 232h-35v-232h-74zM1544 256q12 0 25.5 -2t23.5 8q18 18 22.5 48t4.5 52q0 27 -4 58t-21 49q-10 10 -24.5 9t-26.5 -1v-221zM1550 676 l92 219h-30l8 14h31q6 18 16 38t31 24q12 4 31 -2q4 -4 11 -11.5t1 -15.5q-10 -8 -14.5 0t-2.5 19q-10 4 -18 -0.5t-14 -13.5t-10.5 -19t-6.5 -19h29l-6 -14h-29l-92 -213q-14 0 -27 -6zM1552 1202.5v38.5h45q0 -10 -2 -22.5t2 -26.5t14.5 -22.5t22.5 1.5q14 10 16.5 30 t-1.5 34q-4 18 -15.5 31.5t-25.5 23.5q-47 31 -56 92q-2 27 5.5 53.5t29.5 41.5q20 10 46 9t42 -22q18 -20 17.5 -45.5t-0.5 -50.5q-10 0 -20.5 1t-20.5 1q0 14 1 30.5t-12 26.5q-18 20 -29.5 4t-13.5 -36q0 -29 14.5 -44.5t30.5 -29.5q37 -27 50 -72q4 -25 1 -49 t-14.5 -43.5t-30 -30t-44.5 -6.5q-20 4 -30.5 16.5t-16 29t-5.5 37zM1658 769.5q3 16.5 9 33.5l35 82q14 0 29 10l-27 -64q-4 -10 -16.5 -34.5t-4.5 -34.5q12 -12 30 5t24 28q6 10 10 19t12 20l25 55q6 0 12 2l12 4q-8 -23 -17 -44.5t-19 -43.5q-4 -10 -10.5 -23.5 t-0.5 -23.5q8 -12 20.5 2t22.5 31q8 23 19.5 45t21.5 45q8 23 17.5 43t19.5 43q12 -6 29 6l-58 -131l-20 -47q-2 -6 -4 -14.5t-3 -14.5t2 -9t11 1q18 6 33 31q8 23 19.5 46t21.5 46q8 23 16 43t19 43q14 -6 30 6l-57 -131l-20 -47q-2 -6 -4.5 -14.5t-3.5 -14.5t1 -9t13 1 q14 4 24.5 20.5t16.5 30.5l8 -4q-10 -18 -20.5 -34.5t-26.5 -27.5q-14 -10 -28.5 -3.5t-12.5 24.5q-14 -14 -27 -21q-14 -10 -28.5 -3.5t-12.5 26.5q-10 -12 -19 -21.5t-22 -9.5q-20 0 -22 14.5t4 28.5q-12 -16 -34 -32.5t-38 -4.5q-14 10 -11 26.5zM1712 1122v361h113v-49 h-66v-101h56v-53h-56v-109h66v-49h-113zM1735 -35v580h73v-580h-73zM1853 14q0 25 12.5 36t28 11t28.5 -11t13 -36t-13 -36t-28.5 -11t-28 11.5t-12.5 35.5zM1894 1338q0 48 13 94q6 20 17 35.5t30 17.5q41 10 65 -31q18 -41 18.5 -89t0.5 -91q0 -23 -1 -49.5t-8.5 -49 t-21.5 -39t-39 -16.5q-23 0 -36 12.5t-20 31t-10.5 40t-3.5 41.5q-4 45 -4 93zM1938 1270q-1 -23 1.5 -45.5t8.5 -41t20 -18.5q12 0 18.5 18.5t8.5 41t1 45t-1 33.5q0 8 1 31.5t-1 47t-8.5 42t-18.5 18.5q-14 0 -20 -18.5t-8.5 -42t-1.5 -47t1 -31.5q0 -10 -1 -33zM1976 676 l97 219h-33l6 14h33q6 18 16 38t31 24q12 4 31 -2q4 -4 12 -11.5t-2 -15.5t-13.5 0t-1.5 19q-10 4 -18 -0.5t-14 -13.5t-10.5 -19t-6.5 -19h29l-6 -14h-29l-92 -213q-14 0 -29 -6zM1982 -35v580h66q27 -102 52.5 -201.5t45.5 -204.5q-8 102 -9 202.5t-1 203.5h68v-580h-70 q-25 98 -51.5 197.5t-44.5 199.5q4 -68 6 -134t6 -134v-129h-68zM2056 1122v361h41q16 -63 32.5 -125t29.5 -127q-4 61 -5.5 124.5t-1.5 127.5h43v-361h-45q-16 59 -31.5 122t-27.5 126q4 -43 5 -84t3 -84v-80h-43zM2094 789.5q3 25.5 11 48.5q10 23 28.5 40t45.5 17 q20 0 29.5 -14.5t9.5 -34t-7 -40t-16 -32.5q27 0 41 27l37 86q14 -2 29 8q-6 -14 -11 -25.5t-16 -21.5v-4q14 16 31.5 32.5t36.5 18.5q25 0 23.5 -22.5t-7.5 -38.5q-4 -4 -9 -14.5t-11 -21t-9 -20.5t1 -16q4 -8 11 -4t14 12t14.5 18.5t11.5 16.5l41 90h-17l7 14h16l16 39 q12 0 29 8l-20 -47h30l-8 -14h-29l-37 -88q-4 -10 -10 -23.5t-2 -23.5q6 -6 14.5 -1t17.5 16t15 21.5t9 14.5l8 -4q-10 -18 -24.5 -40t-37.5 -26q-20 -6 -26.5 3.5t-1.5 23.5q-6 -6 -12.5 -12t-12.5 -11q-14 -10 -29.5 -5t-13.5 28q2 20 13.5 37.5t17.5 34.5q2 8 7 23.5 t-9 13.5q-23 -4 -42.5 -33t-29.5 -49q-8 -12 -13 -26.5t-12 -31.5h-24l14 39l-2 -2q-6 -6 -20 -10h-19q-10 -14 -22.5 -18.5t-18.5 -4.5q-18 -12 -37 7q-16 16 -13 41.5zM2118 770.5q0 -20.5 16 -20.5q12 0 26.5 21.5t23.5 46t10 45t-13 20.5q-16 0 -31.5 -20.5t-23.5 -46 t-8 -46zM2212 1122v361h45v-316h67v-45h-112zM2249 325.5q2 63.5 16 120.5q4 25 15.5 49.5t31.5 36.5q43 29 94 9q25 -12 39.5 -36t20.5 -53.5t8 -60.5t2 -55l-70 -8q2 29 0 58.5t-10 53.5q-8 18 -23.5 29.5t-29.5 -10.5q-12 -20 -14 -50t-5 -55q-2 -29 -2 -55.5v-52.5 v-54.5t5 -54.5q0 -23 4 -52.5t22 -43.5q23 -14 34 4t16 48t6 59.5t1 40.5h-53v67h121v-291h-53l-2 78q-4 -25 -15.5 -51.5t-35.5 -34.5q-23 -8 -45.5 4t-36.5 31q-29 41 -34 100.5t-5 106.5q-4 59 -2 122.5zM2329 1483h43q8 -45 16 -91t12 -96q2 49 10.5 94.5t16.5 92.5h43 q-10 -51 -20.5 -101.5t-20.5 -101.5q-10 -37 -7 -78t3 -80h-49q0 39 1 80t-7 78q-10 51 -20.5 101.5t-20.5 101.5zM2460 766q8 18 23 10t7 -24t-23.5 -9t-6.5 23zM2480 1153q0 14 8.5 21.5t17.5 7.5t17 -7.5t8 -21.5q0 -16 -8 -23.5t-17 -7.5t-17.5 7.5t-8.5 23.5z M2482 1483h47q0 -66 -2 -133.5t-6 -135.5h-31q-4 68 -6 134.5t-2 134.5zM2505 877q8 14 22 7.5t6 -22.5q-6 -18 -22.5 -11t-5.5 26z" />
<glyph unicode=":" horiz-adv-x="813" d="M150 260q0 117 70.5 188.5t189.5 71.5q117 0 188.5 -71.5t71.5 -188.5q0 -119 -72 -189.5t-188 -70.5q-119 0 -189.5 70.5t-70.5 189.5zM150 977q0 117 70.5 188.5t189.5 71.5q117 0 188.5 -71.5t71.5 -188.5q0 -119 -72 -189.5t-188 -70.5q-119 0 -189.5 70.5 t-70.5 189.5z" />
<glyph unicode=";" horiz-adv-x="813" d="M150 260q0 51 17 98.5t51 83t82 57t110 21.5q80 0 149.5 -35.5t98 -116.5t1 -211t-140.5 -319h-237q25 55 34 98.5t4 75.5q-82 25 -125.5 91.5t-43.5 156.5zM150 977q0 117 70.5 188.5t189.5 71.5q117 0 188.5 -71.5t71.5 -188.5q0 -119 -72 -189.5t-188 -70.5 q-119 0 -189.5 70.5t-70.5 189.5z" />
<glyph unicode="&#x3c;" horiz-adv-x="1845" d="M254 678l627 469h678l-676 -469l676 -469h-678z" />
<glyph unicode="=" horiz-adv-x="1705" d="M102 369v348h1502v-348h-1502zM102 778v348h1502v-348h-1502z" />
<glyph unicode="&#x3e;" horiz-adv-x="1845" d="M254 209l676 469l-676 469h678l627 -469l-627 -469h-678z" />
<glyph unicode="?" horiz-adv-x="1697" d="M18 1112q0 125 44 229.5t141.5 180t250 116.5t369.5 41q236 0 396.5 -34.5t261 -98t144.5 -149.5t44 -187q0 -115 -49 -189.5t-122 -125.5t-158 -84t-157.5 -62.5t-121.5 -65.5t-49 -89h-348q0 113 37.5 184.5t95 117.5t125 73.5t127 53.5t101.5 55.5t48 78.5 q10 88 -73 131t-271 43q-184 0 -275.5 -57t-91.5 -203zM578 260q0 117 70.5 188.5t189.5 71.5q117 0 188.5 -71.5t71.5 -188.5q0 -119 -72 -189.5t-188 -70.5q-119 0 -189.5 70.5t-70.5 189.5z" />
<glyph unicode="@" horiz-adv-x="2500" d="M102 594q0 244 74 440.5t219.5 334.5t359.5 213t494 75q281 0 496 -75t360.5 -213t219 -334.5t73.5 -440.5q0 -160 -32.5 -272.5t-89 -184t-134.5 -104.5t-168 -33q-111 0 -201 46t-145 157q-59 -113 -189 -178.5t-323 -65.5q-143 0 -253.5 28.5t-185.5 80t-114 122 t-39 154.5q0 106 44 177t118 115t167 65.5t189.5 31.5t189.5 12.5t167 6.5t118 15t44 38q0 35 -24 60.5t-64.5 43t-96 25.5t-116.5 8q-90 0 -148.5 -13.5t-93.5 -35t-49.5 -50t-14.5 -59.5l-409 41q-10 100 21.5 185.5t115.5 148t223 97t346 34.5q213 0 353.5 -36.5 t223.5 -101.5t116.5 -154t33.5 -193v-242q0 -84 3.5 -132t11.5 -74.5t20 -34t29 -7.5q14 0 27.5 11.5t21.5 42t13 85t5 140.5q0 209 -54 357.5t-161.5 242.5t-269.5 137t-375 43t-373.5 -43t-269 -137t-163 -242.5t-54.5 -357.5q0 -213 54.5 -360.5t163 -241.5t269 -136 t373.5 -42q135 0 248 16t205 51l166 -227q-127 -59 -279.5 -91t-339.5 -32q-281 0 -494.5 75t-359 213t-219.5 334.5t-74 440.5zM940 381q0 -14 11.5 -27.5t40 -24t77.5 -16.5t127 -6q86 0 152.5 14.5t112.5 37t72 52t28 58.5v88q-49 -41 -115 -59.5t-135.5 -26.5t-136 -10 t-118.5 -8.5t-84 -21.5t-32 -50z" />
<glyph unicode="A" horiz-adv-x="1888" d="M-41 0l748 1638h479l747 -1638h-469l-131 297h-776l-129 -297h-469zM711 645h469l-195 447l-41 192l-39 -192z" />
<glyph unicode="B" horiz-adv-x="1783" d="M41 0v1638h926q231 0 379.5 -34.5t233.5 -93t118 -136.5t33 -164q0 -131 -62.5 -219t-169.5 -135q131 -55 191.5 -159.5t60.5 -239.5q0 -115 -34 -201t-120 -143.5t-233 -85t-377 -27.5h-946zM512 348h475q160 0 226.5 36t66.5 122t-66.5 124t-226.5 38h-475v-320z M512 1016h455q86 0 142 9t90 26.5t47.5 42t13.5 55.5t-13.5 56.5t-47.5 44t-90 29.5t-142 11h-455v-274z" />
<glyph unicode="C" horiz-adv-x="1937" d="M31 819q0 229 65.5 392t189.5 267.5t302 152.5t401 48q201 0 369 -46t288.5 -124.5t187.5 -186.5t67 -230l-471 -41q0 70 -32 122t-90.5 87.5t-139.5 53t-179 17.5q-246 0 -366.5 -131t-120.5 -381q0 -512 487 -512q203 0 323 77t120 216l471 -41q0 -125 -67 -234.5 t-187.5 -190.5t-288.5 -128t-371 -47q-223 0 -401 49t-302 153.5t-189.5 267.5t-65.5 390z" />
<glyph unicode="D" horiz-adv-x="1847" d="M41 0v1638h846q248 0 424 -56t287.5 -161.5t164 -258t52.5 -343.5q0 -190 -52.5 -341.5t-164 -258t-287.5 -163t-424 -56.5h-846zM512 348h375q231 0 343.5 114.5t112.5 356.5q0 471 -456 471h-375v-942z" />
<glyph unicode="E" horiz-adv-x="1576" d="M41 0v1638h1479v-348h-1008v-246h864v-348h-864v-348h1028v-348h-1499z" />
<glyph unicode="F" horiz-adv-x="1540" d="M41 0v1638h1499v-348h-1028v-368h864v-349h-864v-573h-471z" />
<glyph unicode="G" horiz-adv-x="1886" d="M31 819q0 436 243.5 648t698.5 212q205 0 361.5 -44t265 -118.5t169 -174t74.5 -209.5h-440q-4 37 -32 72.5t-81 63t-132 45t-185 17.5q-74 0 -157 -21.5t-152.5 -78.5t-115.5 -156.5t-46 -255.5q0 -158 46 -257t115.5 -156.5t152.5 -78t157 -20.5q100 0 180 15.5 t136.5 39t86 54t29.5 61.5v117h-483v348h923v-942h-370l-25 115q-92 -70 -237.5 -113t-362.5 -43q-152 0 -298 47t-262 150.5t-187.5 267.5t-71.5 395z" />
<glyph unicode="H" horiz-adv-x="1748" d="M41 0v1638h471v-634h725v634h471v-1638h-471v655h-725v-655h-471z" />
<glyph unicode="I" horiz-adv-x="614" d="M72 0v1638h471v-1638h-471z" />
<glyph unicode="J" horiz-adv-x="1755" d="M10 580h471q0 -125 95.5 -199t277.5 -74q94 0 167 24.5t122 68.5t74.5 103.5t25.5 129.5v1005h471v-1005q0 -152 -45 -276t-147.5 -213t-266 -137t-401.5 -48t-399.5 44t-260 125t-141.5 195.5t-43 256.5z" />
<glyph unicode="K" horiz-adv-x="1728" d="M41 0v1638h471v-690l721 690h600l-834 -772l834 -866h-606l-565 614l-150 -104v-510h-471z" />
<glyph unicode="L" horiz-adv-x="1579" d="M41 0v1638h471v-1290h1028v-348h-1499z" />
<glyph unicode="M" horiz-adv-x="2205" d="M41 0v1638h594l436 -989l33 -166l31 166l436 989h594v-1638h-410v1208l-94 -301l-373 -809h-370l-390 807l-98 309v-1214h-389z" />
<glyph unicode="N" horiz-adv-x="1875" d="M41 0v1638h467l860 -1005v1005h467v-1638h-467l-860 1008v-1008h-467z" />
<glyph unicode="O" horiz-adv-x="1918" d="M41 819q0 197 59.5 356.5t175 271.5t287.5 172t398 60q225 0 397 -60t287.5 -172t175 -271.5t59.5 -356.5t-59.5 -356.5t-175 -271t-287.5 -172t-397 -60.5t-397.5 60.5t-288 172t-175 271.5t-59.5 356zM512 819q0 -276 113 -394t336 -118t335.5 118t112.5 394 q0 272 -112.5 392t-335.5 120t-336 -119.5t-113 -392.5z" />
<glyph unicode="P" horiz-adv-x="1753" d="M41 0v1638h885q244 0 400.5 -38.5t247.5 -110.5t126 -173.5t35 -225.5q0 -125 -35 -225.5t-126 -172t-248 -110.5t-400 -39h-414v-543h-471zM512 891h414q104 0 169.5 12t102.5 37t51.5 62.5t14.5 87.5q0 49 -14.5 85.5t-51.5 62.5t-102.5 39t-169.5 13h-414v-399z" />
<glyph unicode="Q" horiz-adv-x="1921" d="M41 819q0 197 58.5 356.5t174 271.5t287.5 172t400 60q227 0 399 -60t287.5 -172t174 -271.5t58.5 -356.5q0 -193 -54 -348.5t-165 -265.5l102 -86l-247 -262l-175 155q-169 -53 -380 -53q-227 0 -399.5 60.5t-288 172t-174 271.5t-58.5 356zM512 819q0 -141 28.5 -238.5 t85 -158t140.5 -88t195 -27.5h27t28 2l-109 99l232 235l196 -166q74 119 74 342q0 139 -28.5 236.5t-85 159t-140.5 89t-194 27.5q-111 0 -195 -27.5t-140.5 -89t-85 -159t-28.5 -236.5z" />
<glyph unicode="R" horiz-adv-x="1814" d="M41 0v1638h883q227 0 388 -34.5t263 -101t149.5 -165t47.5 -227.5q0 -199 -114 -323.5t-370 -174.5l60 -34l471 -578h-562l-434 584h-311v-584h-471zM512 932h412q102 0 173.5 9t117 29.5t65.5 54.5t20 85q0 102 -86 141t-290 39h-412v-358z" />
<glyph unicode="S" horiz-adv-x="1974" d="M25 494l471 41q-1 -6 -1 -12q-1 -35 19 -70q22 -41 79.5 -73t154 -52.5t241.5 -20.5q135 0 225.5 12.5t145.5 35t78.5 52t23.5 66.5q0 63 -61.5 99t-162.5 55.5t-230 32t-264.5 29t-264.5 45t-230.5 83.5t-162.5 143.5t-61 223.5q0 84 48 172t158.5 159.5t290.5 117.5 t447 46q272 0 461.5 -44t303.5 -117q114 -72 162 -165q39 -76 39 -154q0 -18 -2 -36l-471 -41q1 7 1 13q-1 36 -19 68q-22 38 -78.5 66.5t-153 45t-241.5 16.5q-133 0 -224.5 -11t-146.5 -30.5t-79.5 -46t-24.5 -55.5q0 -53 61 -82t162.5 -47.5t230.5 -31.5t264.5 -33.5 t264.5 -54.5t230 -92.5t162.5 -148.5t61.5 -223q0 -84 -47 -175t-157.5 -167t-291 -125t-446.5 -49q-270 0 -459.5 45t-305.5 120t-164 171q-40 78 -39 161q0 19 2 38z" />
<glyph unicode="T" horiz-adv-x="1867" d="M0 1290v348h1868v-348h-690v-1290h-471v1290h-707z" />
<glyph unicode="U" horiz-adv-x="1978" d="M41 676v962h471v-962q0 -92 24.5 -161t80 -115t146.5 -69.5t226 -23.5t226.5 23.5t146.5 69.5t79.5 115t24.5 161v962h471v-962q0 -170 -44 -303t-152.5 -225.5t-291.5 -140.5t-460 -48q-276 0 -459.5 48t-292 140.5t-152.5 225.5t-44 303z" />
<glyph unicode="V" horiz-adv-x="1933" d="M-41 1638h475l504 -1140l27 -148l28 148l506 1140h475l-784 -1638h-449z" />
<glyph unicode="W" horiz-adv-x="2670" d="M-41 1638h487l308 -1116l389 973h379l393 -987l334 1130h458l-514 -1638h-524l-336 870l-336 -870h-524z" />
<glyph unicode="X" horiz-adv-x="1853" d="M-35 0l707 831l-684 807h512l428 -503l428 503h512l-684 -807l706 -831h-512l-450 530l-451 -530h-512z" />
<glyph unicode="Y" horiz-adv-x="1796" d="M-123 1638h537l483 -792l492 792h536l-788 -1165v-473h-471v481z" />
<glyph unicode="Z" horiz-adv-x="1626" d="M-57 0v348l1091 942h-1091v348h1720v-348l-1083 -942h1083v-348h-1720z" />
<glyph unicode="[" horiz-adv-x="1472" d="M287 -340v1978h1016v-245h-566v-1487h566v-246h-1016z" />
<glyph unicode="\" horiz-adv-x="1843" d="M41 1659h483l1286 -1659h-483z" />
<glyph unicode="]" horiz-adv-x="1472" d="M82 -94h565v1487h-565v245h1016v-1978h-1016v246z" />
<glyph unicode="^" horiz-adv-x="1452" d="M123 1055v338l592 348l592 -348v-338l-592 368z" />
<glyph unicode="_" horiz-adv-x="1705" d="M102 0h1502v-348h-1502v348z" />
<glyph unicode="`" horiz-adv-x="1239" d="M55 1716l602 2l488 -395h-465z" />
<glyph unicode="a" horiz-adv-x="1505" d="M10 344q0 106 44 177t118 115t167 65.5t189.5 31.5t189.5 12.5t166.5 6.5t118 15t44.5 38q0 35 -24 60.5t-64.5 43t-95 25.5t-118.5 8q-90 0 -148 -13.5t-93 -35t-49.5 -50t-14.5 -59.5l-409 41q-2 24 -2 47q-1 72 23 138q32 86 116 148.5t223 97t346 34.5 q213 0 353.5 -36.5t223.5 -101.5t116.5 -154t33.5 -193v-805h-348l-37 145q-68 -88 -188.5 -137t-288.5 -49q-143 0 -253.5 28.5t-185.5 80t-114 122t-39 154.5zM428 381q0 -14 11.5 -27.5t39 -24t76.5 -16.5t127 -6q86 0 152.5 14.5t112.5 37t71.5 52t28.5 58.5v88 q-49 -41 -115 -59.5t-134.5 -26.5t-135 -10t-118.5 -8.5t-84 -21.5t-32 -50z" />
<glyph unicode="b" horiz-adv-x="1683" d="M41 0v1659h471v-539q84 90 206 130t263 40q160 0 286 -46t214 -133t135 -210t47 -276q0 -154 -53.5 -277t-145.5 -210t-216 -133t-267 -46q-160 0 -295 51t-217 168l-49 -178h-379zM512 516q0 -57 35 -97t86 -64.5t111.5 -36t113.5 -11.5q154 0 244 82t90 236t-90 235.5 t-244 81.5q-51 0 -110.5 -11t-110.5 -36t-86 -62.5t-39 -89.5v-227z" />
<glyph unicode="c" horiz-adv-x="1632" d="M31 625q0 162 54 286.5t156.5 208.5t248 127t329.5 43q182 0 323.5 -38t240 -106.5t151.5 -163.5t59 -212l-452 -27q-4 88 -72 143.5t-209 55.5q-72 0 -137.5 -12t-114.5 -48t-77.5 -97.5t-28.5 -159.5q0 -102 28.5 -164t76.5 -96.5t113.5 -46t139.5 -11.5q72 0 126 18.5 t90 47t54.5 63.5t18.5 70l446 -27q0 -115 -61 -211t-165.5 -164.5t-246 -106.5t-303.5 -38q-184 0 -329.5 43t-248 127t-156.5 208t-54 288z" />
<glyph unicode="d" horiz-adv-x="1683" d="M20 625q0 154 47.5 276.5t135.5 209.5t214 133t285 46q141 0 262 -40t207 -130v539h471v-1659h-378l-52 178q-80 -117 -215 -168t-295 -51q-143 0 -267 46t-216 133t-145.5 210t-53.5 277zM492 625q0 -154 89.5 -236t243.5 -82q51 0 112.5 11.5t113 36t86 64.5t34.5 97 v217q0 55 -34.5 95t-86 65t-112.5 37t-113 12q-154 0 -243.5 -82t-89.5 -235z" />
<glyph unicode="e" horiz-adv-x="1654" d="M41 625q0 162 54.5 286.5t156.5 208.5t247.5 127t329.5 43q383 0 584 -169t201 -492v-140h-1102q2 -92 83 -137t234 -45q80 0 136.5 10.5t93.5 22.5t54 25.5t20 19.5h471q-51 -201 -254 -313.5t-521 -112.5q-184 0 -329.5 43t-247.5 127t-156.5 208t-54.5 288zM512 766 h631v22q0 61 -73 107.5t-241 46.5q-172 0 -243.5 -46t-73.5 -110v-20z" />
<glyph unicode="f" horiz-adv-x="1181" d="M20 799v348h277v108q0 145 52 244.5t159 150.5q102 48 258 48h12q164 -2 385 -60v-348q-121 33 -197 42q-42 5 -75 5q-25 0 -45 -3q-45 -7 -61.5 -28.5t-16.5 -50.5v-108h397v-348h-397v-799h-471v799h-277z" />
<glyph unicode="g" horiz-adv-x="1687" d="M20 645q0 154 49.5 273.5t139.5 202.5t216 126t277 43q162 0 298.5 -53t216.5 -174l61 186h364v-1186q0 -111 -38.5 -208t-132 -169.5t-247 -114.5t-382.5 -42q-238 0 -392.5 28.5t-243.5 80t-121 122.5q-26 56 -26 120q0 16 2 32l455 14q2 -14 18.5 -29.5t53.5 -27.5 t98 -21q50 -6 119 -6h33q94 2 158.5 19.5t103.5 47.5t55 72t16 93v94q-86 -90 -206.5 -129t-262.5 -39q-135 0 -259 43t-218 126t-149.5 202.5t-55.5 273.5zM492 645q0 -76 26.5 -132t71.5 -93t105 -54.5t130 -17.5q51 0 112.5 11.5t113 36t86 64.5t34.5 97v186 q-4 51 -39.5 89t-87 63t-109.5 36t-110 11q-70 0 -130 -17.5t-105 -54t-71.5 -93t-26.5 -132.5z" />
<glyph unicode="h" horiz-adv-x="1642" d="M41 0v1659h471v-520q72 72 189.5 111.5t291.5 39.5q315 0 462 -142t147 -433v-715h-472v715q0 55 -14 97t-51 71.5t-99.5 44t-156.5 14.5q-80 0 -136.5 -13.5t-91 -35t-51 -51t-18.5 -60.5v-782h-471z" />
<glyph unicode="i" horiz-adv-x="673" d="M76 1544q0 117 70.5 188.5t189.5 71.5q117 0 188.5 -71.5t71.5 -188.5q0 -119 -71.5 -189.5t-188.5 -70.5q-119 0 -189.5 70.5t-70.5 189.5zM100 0v1249h471v-1249h-471z" />
<glyph unicode="j" horiz-adv-x="673" d="M-193 -82q94 -20 151 -24h17q46 0 73 16q32 20 42 62t10 112v1165h471v-1226q0 -340 -184 -441q-84 -47 -212 -47q-153 0 -368 66v317zM76 1544q0 117 70.5 188.5t189.5 71.5q117 0 188.5 -71.5t71.5 -188.5q0 -119 -71.5 -189.5t-188.5 -70.5q-119 0 -189.5 70.5 t-70.5 189.5z" />
<glyph unicode="k" horiz-adv-x="1613" d="M41 0v1659h471v-932l518 522h612l-671 -608l708 -641h-645l-418 410l-104 -27v-383h-471z" />
<glyph unicode="l" horiz-adv-x="673" d="M100 0v1659h471v-1659h-471z" />
<glyph unicode="m" horiz-adv-x="2179" d="M41 0v1249h307l64 -153q72 98 176 144t213 46q135 0 240.5 -52t166.5 -157q37 55 85 95t104.5 67t116 39t118.5 12q102 0 194.5 -28.5t161 -89t109.5 -154.5t41 -225v-793h-471v793q0 66 -41 107.5t-127 41.5q-90 0 -132 -44t-42 -105v-793h-471v793q0 66 -41 107.5 t-127 41.5t-128 -40t-46 -114v-788h-471z" />
<glyph unicode="n" horiz-adv-x="1642" d="M41 0v1249h379l53 -153q70 92 196 143t324 51q315 0 462 -142t147 -433v-715h-472v715q0 55 -14 97t-51 71.5t-99.5 44t-156.5 14.5q-80 0 -136.5 -13.5t-91 -35t-51 -51t-18.5 -60.5v-782h-471z" />
<glyph unicode="o" horiz-adv-x="1740" d="M41 625q0 145 51 267t154.5 211t259.5 138t364 49q209 0 365 -49t259 -138t154.5 -211t51.5 -267t-51.5 -267t-154.5 -210.5t-259 -138.5t-365 -50t-364.5 50t-259 138.5t-154.5 210t-51 267.5zM512 625q0 -166 95 -242t263 -76t263.5 76t95.5 242q0 164 -95.5 240.5 t-263.5 76.5t-263 -77t-95 -240z" />
<glyph unicode="p" horiz-adv-x="1703" d="M41 -430v1679h379l51 -180q80 119 215 170t295 51t286 -46t214 -133t135 -209.5t47 -276.5t-53.5 -277t-145.5 -210t-216 -133t-267 -46q-141 0 -263 39t-206 129v-557h-471zM512 516q0 -57 35 -97t86 -64.5t111.5 -36t113.5 -11.5q154 0 244 82t90 236t-90 235.5 t-244 81.5q-51 0 -110.5 -11t-110.5 -36t-86 -62.5t-39 -89.5v-227z" />
<glyph unicode="q" horiz-adv-x="1703" d="M41 625q0 154 47 276.5t135 209.5t214 133t286 46t294 -51t216 -170l51 180h379v-1679h-471v557q-86 -90 -207 -129t-262 -39q-143 0 -267 46t-216.5 133t-145.5 210t-53 277zM512 625q0 -154 90 -236t244 -82q51 0 112.5 11.5t112.5 36t86 64.5t35 97v227q-4 51 -40 89 t-87 63t-109.5 36t-109.5 11q-154 0 -244 -82t-90 -235z" />
<glyph unicode="r" horiz-adv-x="1226" d="M117 0v1249h317l60 -176q35 109 112.5 170.5t175.5 79.5q43 8 88 8q58 1 118 -13q108 -24 204 -85v-426q-138 87 -248 111q-52 12 -96 11q-50 -1 -92 -15q-78 -28 -121 -99.5t-47 -177.5v-637h-471z" />
<glyph unicode="s" horiz-adv-x="1622" d="M18 416l410 28q-2 -66 87 -101.5t300 -35.5q88 0 148.5 9.5t97.5 22.5t53 28.5t16 29.5q0 29 -47 43.5t-122.5 22.5t-173 15t-200 21.5t-199.5 40t-173 70.5t-123 115t-47 172q0 80 43 151.5t135 125t234.5 85t339.5 31.5q227 0 378.5 -30.5t242.5 -86t129 -133 t38 -174.5l-434 -35q2 25 -11.5 45.5t-50 35t-104 22.5t-174.5 8q-84 0 -141.5 -8t-93 -21.5t-51 -28t-15.5 -26.5q0 -29 46 -42t122 -21.5t173 -15.5t198.5 -20.5t199 -37t173 -65.5t121.5 -107.5t46 -161.5q0 -94 -45 -173t-139 -135t-239.5 -88t-346.5 -32 q-223 0 -379.5 34t-253 95.5t-136.5 145.5q-33 70 -33 149q0 17 1 33z" />
<glyph unicode="t" horiz-adv-x="1265" d="M-2 901v348h195v369h471v-369h561v-348h-561v-459q0 -51 22 -87q24 -36 86 -50q38 -9 93 -8q35 0 79 3q110 9 289 48v-348q-288 -67 -495 -67q-173 1 -289 47q-256 102 -256 462v459h-195z" />
<glyph unicode="u" horiz-adv-x="1642" d="M41 535v714h471v-714q0 -49 13.5 -91.5t49 -73t98 -47t161.5 -16.5q78 0 134 14.5t92 38t53 53t17 60.5v776h472v-1249h-379l-54 154q-70 -92 -195.5 -143.5t-324.5 -51.5q-315 0 -461.5 142.5t-146.5 433.5z" />
<glyph unicode="v" horiz-adv-x="1691" d="M-72 1249h527l389 -860l391 860h528l-645 -1249h-545z" />
<glyph unicode="w" horiz-adv-x="2273" d="M-41 1249h447l258 -739l264 668h415l261 -668l262 739h446l-489 -1249h-418l-270 690l-269 -690h-417z" />
<glyph unicode="x" horiz-adv-x="1607" d="M-82 0l610 639l-581 610h534l316 -329l315 329h537l-584 -610l612 -639h-536l-344 358l-344 -358h-535z" />
<glyph unicode="y" horiz-adv-x="1689" d="M-41 1249h494l387 -674l-2 -131l409 805h486l-883 -1679h-455l264 522z" />
<glyph unicode="z" horiz-adv-x="1503" d="M35 0v225l739 676h-739v348h1433v-225l-729 -676h729v-348h-1433z" />
<glyph unicode="{" horiz-adv-x="1249" d="M123 473v344q61 0 114.5 10.5t92.5 38t60.5 74.5t21.5 121q-2 166 36.5 274.5t118.5 172t203 88t289 24.5l80 -221q-94 0 -147.5 -18.5t-78 -60.5t-29.5 -109.5t-1 -166.5q6 -182 -68 -276t-229 -123q160 -29 232.5 -128t68.5 -286q-4 -98 1 -164.5t30.5 -107.5t78 -58.5 t144.5 -17.5l-88 -225q-168 0 -289 26.5t-199 92t-113.5 173t-35.5 267.5q0 74 -21.5 124t-60.5 79t-93.5 41t-117.5 12z" />
<glyph unicode="|" horiz-adv-x="663" d="M96 -410v2069h471v-2069h-471z" />
<glyph unicode="}" horiz-adv-x="1249" d="M29 -117q92 0 144 17.5t79 58.5t31 107.5t2 164.5q-4 186 68.5 285.5t232.5 128.5q-156 29 -229.5 123t-67.5 276q2 98 -2 166t-30 110t-79 60.5t-147 18.5l82 221q166 0 288.5 -24.5t202.5 -88t118 -172t36 -274.5q0 -74 21.5 -121t60.5 -74.5t92 -38t115 -10.5v-344 q-66 0 -119.5 -12t-92 -41t-60 -79t-21.5 -124q0 -160 -36 -267.5t-114 -173t-197.5 -92t-287.5 -26.5z" />
<glyph unicode="~" horiz-adv-x="1425" d="M188 502v248q84 84 157 120.5t139.5 44t127 -9t120 -38t118.5 -42t122.5 -21.5t132.5 22.5t146 91.5v-248q-90 -88 -165.5 -127t-141 -46.5t-123 9t-114 40t-113.5 46t-118.5 24.5t-132.5 -21.5t-155 -92.5z" />
<glyph unicode="&#xa1;" horiz-adv-x="976" d="M231 1174q0 119 72 189.5t189 70.5q119 0 189.5 -70.5t70.5 -189.5q0 -117 -71 -189t-189 -72q-117 0 -189 72t-72 189zM256 -205l61 1045h349l61 -1045h-471z" />
<glyph unicode="&#xa2;" horiz-adv-x="1609" d="M20 727q0 268 143.5 431t405.5 212v227h471v-223q256 -43 394.5 -176t148.5 -326l-453 -26q-4 88 -71.5 143t-208.5 55q-72 0 -137.5 -12t-114.5 -48t-77.5 -97.5t-28.5 -159.5q0 -102 28.5 -163.5t76.5 -96.5t113.5 -46t139.5 -11q72 0 126 18t90 47t54.5 63.5 t18.5 69.5l446 -26q0 -94 -41 -175t-113.5 -145.5t-172 -111t-218.5 -68.5v-205h-471v205q-262 51 -405.5 213t-143.5 432z" />
<glyph unicode="&#xa3;" horiz-adv-x="1579" d="M-20 516v313h61v93q0 166 56.5 278.5t156.5 181t238.5 99t304.5 30.5t298 -40.5t222 -112.5t138 -168t48 -207l-471 -37q0 252 -235 252q-63 0 -115.5 -14.5t-90.5 -46t-58.5 -85t-20.5 -130.5v-93h748v-313h-748v-203h1028v-313h-1499v516h-61z" />
<glyph unicode="&#xa4;" horiz-adv-x="1705" d="M102 250l299 317q-35 33 -49 72t-14 80q0 39 11 74.5t40 66.5l-287 328h506l152 -213q23 0 45 1t47 1q20 0 39.5 -1t38.5 -1l168 213h506l-297 -320q35 -33 47 -70.5t12 -78.5t-14.5 -81t-48.5 -73l301 -315h-504l-172 213q-18 -2 -37 -2h-39h-42t-38 2l-166 -213h-504z M604 719q0 -39 66.5 -59.5t181.5 -20.5q117 0 182.5 20.5t65.5 59.5q0 16 -19.5 30.5t-53.5 24.5t-79 16.5t-96 6.5q-115 0 -181.5 -23.5t-66.5 -54.5z" />
<glyph unicode="&#xa5;" horiz-adv-x="1796" d="M-123 1475h537l483 -713l492 713h536l-625 -830h347v-258h-510v-37h510v-258h-510v-92h-471v92h-521v258h521v37h-521v258h359z" />
<glyph unicode="&#xa6;" horiz-adv-x="663" d="M96 -410v938h471v-938h-471zM96 707v952h471v-952h-471z" />
<glyph unicode="&#xa7;" horiz-adv-x="1622" d="M18 252l410 29q-2 -66 87 -102t300 -36q88 0 148.5 9.5t97.5 22.5t53 28.5t16 29.5q0 29 -47 43.5t-122.5 22.5t-173 15.5t-200 21.5t-199.5 39.5t-173 71t-123 115t-47 171.5q0 53 18.5 103.5t59.5 93.5q-37 41 -57.5 93t-20.5 120q0 80 43 151.5t135 125t234.5 85 t339.5 31.5q227 0 378.5 -30.5t242.5 -86t129 -133.5t38 -174l-434 -35q2 25 -11.5 45.5t-50 34.5t-104 22.5t-174.5 8.5q-84 0 -141.5 -8.5t-93 -21.5t-51 -27.5t-15.5 -26.5q0 -29 46 -42t122 -21.5t173 -15.5t198.5 -20.5t199 -37t173 -65.5t121.5 -107.5t46 -161.5 q0 -123 -76 -217q35 -37 55.5 -85t20.5 -108q0 -94 -45 -173t-139 -135t-239.5 -88t-346.5 -32q-223 0 -379.5 34t-253 95.5t-136.5 145.5t-32 182zM465 694q0 -31 59.5 -45t154.5 -22.5t212 -16.5t233 -28q23 14 37.5 34.5t14.5 30.5q0 31 -59.5 44.5t-154 20.5t-211 15 t-233.5 29q-29 -14 -41 -32.5t-12 -29.5z" />
<glyph unicode="&#xa8;" horiz-adv-x="987" d="M27 1495q0 90 53 144.5t145 54.5q90 0 144.5 -54.5t54.5 -144.5q0 -92 -54.5 -145.5t-144.5 -53.5q-92 0 -145 53.5t-53 145.5zM563 1495q0 90 53.5 144.5t145.5 54.5q90 0 144.5 -54.5t54.5 -144.5q0 -92 -54.5 -145.5t-144.5 -53.5q-92 0 -145.5 53.5t-53.5 145.5z" />
<glyph unicode="&#xa9;" horiz-adv-x="2609" d="M102 614q0 217 80 412t233.5 339t378 229t511.5 85t511 -85t377.5 -229t233.5 -339t80 -412q0 -219 -80 -412.5t-233.5 -338t-377.5 -229.5t-511 -85t-511.5 85t-378 229.5t-233.5 338t-80 412.5zM410 614q0 -170 64.5 -311t181 -242.5t281.5 -158t368 -56.5t367.5 56.5 t281.5 158t181.5 242.5t64.5 311q0 168 -64.5 309.5t-181.5 243t-282 158.5t-367 57q-203 0 -368 -57t-281.5 -158.5t-181 -243t-64.5 -309.5zM498 625q0 162 54 286.5t156.5 208.5t248 127t329.5 43q182 0 323.5 -38t240 -106.5t151.5 -163.5t59 -212l-452 -27 q-4 88 -72 143.5t-209 55.5q-72 0 -137.5 -12t-114.5 -48t-77.5 -97.5t-28.5 -159.5q0 -102 28.5 -164t76.5 -96.5t113.5 -46t139.5 -11.5q72 0 126 18.5t90 47t54.5 63.5t18.5 70l446 -27q0 -115 -61.5 -211t-165.5 -164.5t-245.5 -106.5t-303.5 -38q-184 0 -329.5 43 t-248 127t-156.5 208t-54 288z" />
<glyph unicode="&#xaa;" horiz-adv-x="1495" d="M0 952q0 86 44 142.5t118 91.5t167 52t189 24.5t189.5 9.5t167 5t117.5 11t44 31v-197q-49 -33 -114.5 -47t-134 -20t-135 -8.5t-119 -7.5t-84 -17t-31.5 -41q0 -12 11 -22.5t39 -18.5t77 -13t127 -5q172 0 266 41t98 88v-152l33 -106q-70 -70 -189.5 -110t-287.5 -40 q-289 0 -440.5 86t-151.5 223zM20 1335q-10 80 22 148.5t116 118t223 78t346 28.5q213 0 353.5 -28.5t223 -81t116.5 -124t34 -155.5v-643h-348l-37 117q113 113 70 282l-103 -18v65q47 29 75 77t28 120h-103q0 29 -23.5 50.5t-64.5 34.5t-95 19.5t-118 6.5 q-90 0 -148.5 -10.5t-93 -28t-49 -41t-14.5 -47.5z" />
<glyph unicode="&#xab;" horiz-adv-x="2369" d="M102 678l627 469h678l-676 -469l676 -469h-678zM963 678l626 469h678l-676 -469l676 -469h-678z" />
<glyph unicode="&#xac;" horiz-adv-x="1705" d="M102 573v349h1502v-658h-349v309h-1153z" />
<glyph unicode="&#xad;" horiz-adv-x="1411" d="M205 471v348h1001v-348h-1001z" />
<glyph unicode="&#xae;" horiz-adv-x="2609" d="M102 614q0 217 80 412t233.5 339t378 229t511.5 85t511 -85t377.5 -229t233.5 -339t80 -412q0 -219 -80 -412.5t-233.5 -338t-377.5 -229.5t-511 -85t-511.5 85t-378 229.5t-233.5 338t-80 412.5zM410 614q0 -170 62.5 -309t178.5 -242v1100q-117 -104 -179 -243.5 t-62 -305.5zM735 0q113 -72 256.5 -113t313.5 -41t313 41t254 113h-385l-311 236h-62v-236h-379zM848 1290h330q227 0 389 -34.5t266 -101.5t152.5 -165t48.5 -227q0 -180 -94.5 -299t-301.5 -176l314 -230q119 102 183.5 243.5t64.5 313.5q0 168 -64.5 309.5t-181.5 243 t-281.5 158.5t-367.5 57q-131 0 -245 -23.5t-212 -68.5zM1114 584h72q205 0 295 38t90 140t-90 141t-295 39h-72v-358z" />
<glyph unicode="&#xaf;" horiz-adv-x="1247" d="M20 1352v348h1207v-348h-1207z" />
<glyph unicode="&#xb0;" horiz-adv-x="1234" d="M106 1237q0 51 20.5 97t78 82t158 57.5t258.5 21.5t258 -21.5t156.5 -57.5t78 -82t21.5 -97q0 -49 -21.5 -96t-78 -83t-156.5 -57.5t-258 -21.5t-258.5 21.5t-158 57.5t-78 83t-20.5 96zM373 1237q0 -37 66.5 -58.5t181.5 -21.5t181 21.5t66 58.5q0 16 -19.5 30.5t-53 25 t-78.5 16.5t-96 6q-115 0 -181.5 -23.5t-66.5 -54.5z" />
<glyph unicode="&#xb1;" horiz-adv-x="1705" d="M102 123v348h1502v-348h-1502zM102 778v348h576v250h348v-250h578v-348h-578v-248h-348v248h-576z" />
<glyph unicode="&#xb2;" horiz-adv-x="1730" d="M41 1245q0 100 50 184t150.5 143.5t252 93.5t352.5 34q225 0 386 -33t263 -88t149.5 -130t47.5 -159q0 -96 -43 -165.5t-115 -118t-166 -80t-197.5 -53t-208 -37t-197.5 -33t-168 -38t-116 -52.5l242 37h969v-279h-1639v33q0 131 50.5 221t132 150.5t187 96.5t214 60.5 t214 42t187.5 40t132.5 56t50.5 89.5q0 86 -98.5 123.5t-260.5 37.5q-74 0 -138.5 -12t-112.5 -36.5t-74.5 -64.5t-26.5 -96z" />
<glyph unicode="&#xb3;" horiz-adv-x="1812" d="M41 840l471 65q0 -94 95 -141t300 -47t300.5 40t95.5 99t-95.5 91t-300.5 32h-254v229h254q193 0 284 27t91 80q0 51 -87 78.5t-288 27.5q-102 0 -173.5 -11t-116 -29.5t-65 -44t-20.5 -54.5l-471 57q0 76 50.5 141.5t154 115t263 77t378.5 27.5t379 -22.5t263.5 -65.5 t153.5 -103.5t50 -136.5q0 -100 -86 -168.5t-270 -103.5q201 -45 289 -126t88 -183q0 -76 -53.5 -140.5t-161 -111.5t-270.5 -74t-382 -27q-438 0 -652 109.5t-214 292.5z" />
<glyph unicode="&#xb4;" horiz-adv-x="1239" d="M55 1323l486 395l604 -2l-625 -393h-465z" />
<glyph unicode="&#xb5;" horiz-adv-x="1642" d="M41 -410v1659h471v-714q0 -49 13.5 -91.5t49 -73t98 -47t161.5 -16.5q78 0 134 14.5t92 38t53 53t17 60.5v776h472v-1249h-379l-54 154q-70 -92 -195.5 -143.5t-324.5 -51.5q-139 0 -250 29l113 -398h-471z" />
<glyph unicode="&#xb6;" horiz-adv-x="2105" d="M102 1313q0 78 25 141.5t70 109.5t108.5 70.5t143.5 24.5h1554v-348h-305v-1721h-471v1721h-307v-1721h-471v1379q-160 0 -253.5 93t-93.5 251z" />
<glyph unicode="&#xb7;" horiz-adv-x="813" d="M150 670q0 117 70.5 188.5t189.5 71.5q117 0 188.5 -72t71.5 -188q0 -119 -72 -189.5t-188 -70.5q-119 0 -189.5 70.5t-70.5 189.5z" />
<glyph unicode="&#xb8;" horiz-adv-x="1234" d="M106 -336h267q0 -37 66.5 -58.5t181.5 -21.5t181 21.5t66 58.5q0 16 -19.5 30.5t-53 25t-78.5 16.5t-96 6h-172l61 340h213l29 -164q117 -8 190.5 -31.5t116.5 -58.5t59.5 -77t16.5 -87q0 -49 -21.5 -96t-78 -83t-157 -57.5t-257.5 -21.5q-158 0 -258.5 21.5t-158 57.5 t-78 83t-20.5 96z" />
<glyph unicode="&#xb9;" horiz-adv-x="974" d="M164 1305v106l217 256h348v-1196h-471v834h-94z" />
<glyph unicode="&#xba;" horiz-adv-x="1937" d="M41 1069q0 141 61.5 257t179 199t290.5 129t397 46q223 0 396 -46t291 -129t179 -199t61 -257t-61 -258t-179 -200t-291 -128t-396 -45t-396.5 45t-291 128t-179 200t-61.5 258zM512 1069q0 -96 37 -162.5t100.5 -108.5t146.5 -61.5t173 -19.5t173 19.5t145.5 61.5 t100 108.5t37.5 162.5q0 94 -37.5 160.5t-100 109.5t-145.5 62.5t-173 19.5t-173 -19.5t-146.5 -62.5t-100.5 -109.5t-37 -160.5z" />
<glyph unicode="&#xbb;" horiz-adv-x="2369" d="M102 209l676 469l-676 469h678l627 -469l-627 -469h-678zM963 209l675 469l-675 469h677l627 -469l-627 -469h-677z" />
<glyph unicode="&#xbc;" horiz-adv-x="3039" d="M102 1202v107l217 256h349v-1196h-471v833h-95zM397 -102l1286 1658h484l-1286 -1658h-484zM1278 76v172l1200 846h348v-766h111v-252h-111v-178h-430v178h-1118zM1907 328h489v368z" />
<glyph unicode="&#xbd;" horiz-adv-x="3411" d="M102 1202v107l217 256h349v-1196h-471v833h-95zM397 -102l1286 1658h484l-1286 -1658h-484zM1659 672q0 100 50 184t150.5 143.5t252 93t352.5 33.5q225 0 386 -32.5t263 -88t149.5 -130t47.5 -158.5q0 -96 -43 -166t-115 -118t-166 -79.5t-197.5 -53t-208 -37 t-197.5 -33t-168 -38t-116 -53.5l242 37h969v-278h-1639v32q0 131 50.5 221.5t132 150.5t187 96t214 60.5t214 42t187.5 40t132.5 56.5t50.5 89q0 86 -98.5 124t-260.5 38q-74 0 -138.5 -12.5t-112.5 -37t-74.5 -64.5t-26.5 -95z" />
<glyph unicode="&#xbe;" horiz-adv-x="3952" d="M102 737l471 66q0 -94 95.5 -141.5t300.5 -47.5t300 40t95 100q0 59 -95 91t-300 32h-254v229h254q193 0 283.5 26.5t90.5 79.5q0 51 -87 79t-287 28q-102 0 -174 -11.5t-116 -29.5t-64.5 -44t-20.5 -54l-471 57q0 76 50 141.5t153.5 114.5t263.5 76.5t379 27.5 t378.5 -22.5t263 -65.5t154 -103t50.5 -136q0 -100 -86.5 -169t-270.5 -104q201 -45 289 -125.5t88 -183.5q0 -76 -53 -140.5t-161 -111.5t-270.5 -73.5t-381.5 -26.5q-438 0 -652.5 109.5t-214.5 291.5zM1372 -102l1286 1658h484l-1287 -1658h-483zM2191 76v172l1200 846 h349v-766h110v-252h-110v-178h-430v178h-1119zM2820 328h490v368z" />
<glyph unicode="&#xbf;" horiz-adv-x="1697" d="M18 264q0 115 49.5 189.5t122 126t157.5 84t158 62.5t122 64.5t49 90.5h348q0 -113 -38 -184.5t-95 -118t-125 -74t-127 -53t-101 -55t-49 -79.5q-10 -88 73 -131t272 -43q184 0 275 57.5t91 202.5l469 -41q0 -127 -45 -230t-141.5 -179t-249 -117t-369.5 -41 q-236 0 -397.5 35t-261 98.5t-143.5 148.5t-44 187zM590 1214q0 119 71.5 190t188.5 71q119 0 189.5 -71t70.5 -190q0 -117 -70.5 -188.5t-189.5 -71.5q-117 0 -188.5 72t-71.5 188z" />
<glyph unicode="&#xc0;" horiz-adv-x="1888" d="M-41 0l748 1638h479l747 -1638h-469l-131 297h-776l-129 -297h-469zM399 2105l602 2l488 -395h-465zM711 645h469l-195 447l-41 192l-39 -192z" />
<glyph unicode="&#xc1;" horiz-adv-x="1888" d="M-41 0l748 1638h479l747 -1638h-469l-131 297h-776l-129 -297h-469zM399 1712l486 395l604 -2l-625 -393h-465zM711 645h469l-195 447l-41 192l-39 -192z" />
<glyph unicode="&#xc2;" horiz-adv-x="1888" d="M-41 0l748 1638h479l747 -1638h-469l-131 297h-776l-129 -297h-469zM352 1659v307l592 164l592 -164v-307l-592 184zM711 645h469l-195 447l-41 192l-39 -192z" />
<glyph unicode="&#xc3;" horiz-adv-x="1888" d="M-41 0l748 1638h479l747 -1638h-469l-131 297h-776l-129 -297h-469zM412 1718v248q84 84 156.5 121t139 44t127 -9.5t120 -38t119 -42t123 -21.5t133 22.5t147.5 91.5v-248q-90 -88 -166 -127t-141.5 -46t-124 9.5t-115 40t-113.5 46t-118.5 24.5t-132 -21.5 t-154.5 -93.5zM711 645h469l-195 447l-41 192l-39 -192z" />
<glyph unicode="&#xc4;" horiz-adv-x="1888" d="M-41 0l748 1638h479l747 -1638h-469l-131 297h-776l-129 -297h-469zM477 1884q0 90 53.5 144.5t145.5 54.5q90 0 144 -54.5t54 -144.5q0 -92 -54 -145t-144 -53q-92 0 -145.5 53t-53.5 145zM711 645h469l-195 447l-41 192l-39 -192zM1014 1884q0 90 53 144.5t145 54.5 q90 0 144.5 -54.5t54.5 -144.5q0 -92 -54 -145t-145 -53q-92 0 -145 53t-53 145z" />
<glyph unicode="&#xc5;" horiz-adv-x="1888" d="M-41 0l748 1638h479l747 -1638h-469l-131 297h-776l-129 -297h-469zM430 1958q0 51 20.5 97t78 82t157.5 57.5t258 21.5t258.5 -21.5t156.5 -57.5t77.5 -82t21.5 -97q0 -49 -21.5 -96t-77.5 -83t-156.5 -57.5t-258.5 -21.5t-258 21.5t-157.5 57.5t-78 83t-20.5 96z M696 1958q0 -37 66.5 -58.5t181.5 -21.5t181.5 21.5t66.5 58.5q0 16 -19.5 30.5t-53.5 24.5t-79 16.5t-96 6.5q-115 0 -181.5 -23.5t-66.5 -54.5zM711 645h469l-195 447l-41 192l-39 -192z" />
<glyph unicode="&#xc6;" horiz-adv-x="3135" d="M-41 0l1595 1638h1526v-348h-1007v-246h864v-348h-864v-348h1028v-348h-1499v297h-842l-279 -297h-522zM1085 645h517v551z" />
<glyph unicode="&#xc7;" horiz-adv-x="1937" d="M31 819q0 229 65.5 392t189.5 267.5t302 152.5t401 48q201 0 369 -46t288.5 -124.5t187.5 -186.5t67 -230l-471 -41q0 70 -32 122t-90.5 87.5t-139.5 53t-179 17.5q-246 0 -366.5 -131t-120.5 -381q0 -512 487 -512q203 0 323 77t120 216l471 -41q0 -117 -58.5 -220 t-166 -183t-257 -130.5t-329.5 -62.5l8 -45q117 -8 190.5 -31.5t116.5 -58.5t59.5 -77t16.5 -87q0 -49 -21.5 -96t-78 -83t-157 -57.5t-257.5 -21.5q-158 0 -258.5 21.5t-157.5 57.5t-77.5 83t-20.5 96h266q0 -37 66.5 -58.5t181.5 -21.5t181.5 21.5t66.5 58.5 q0 31 -66 53.5t-162 24.5h-192l39 223q-188 14 -338 71.5t-253.5 162t-158.5 258t-55 362.5z" />
<glyph unicode="&#xc8;" horiz-adv-x="1576" d="M41 0v1638h1479v-348h-1008v-246h864v-348h-864v-348h1028v-348h-1499zM242 2105l602 2l487 -395h-465z" />
<glyph unicode="&#xc9;" horiz-adv-x="1576" d="M41 0v1638h1479v-348h-1008v-246h864v-348h-864v-348h1028v-348h-1499zM242 1712l485 395l604 -2l-624 -393h-465z" />
<glyph unicode="&#xca;" horiz-adv-x="1576" d="M41 0v1638h1479v-348h-1008v-246h864v-348h-864v-348h1028v-348h-1499zM195 1659v307l591 164l592 -164v-307l-592 184z" />
<glyph unicode="&#xcb;" horiz-adv-x="1576" d="M41 0v1638h1479v-348h-1008v-246h864v-348h-864v-348h1028v-348h-1499zM319 1884q0 90 53.5 144.5t145.5 54.5q90 0 144.5 -54.5t54.5 -144.5q0 -92 -54.5 -145t-144.5 -53q-92 0 -145.5 53t-53.5 145zM856 1884q0 90 53.5 144.5t145.5 54.5q90 0 144 -54.5t54 -144.5 q0 -92 -54 -145t-144 -53q-92 0 -145.5 53t-53.5 145z" />
<glyph unicode="&#xcc;" horiz-adv-x="614" d="M-399 2105l602 2l487 -395h-465zM72 0v1638h471v-1638h-471z" />
<glyph unicode="&#xcd;" horiz-adv-x="614" d="M-72 1712l486 395l604 -2l-625 -393h-465zM72 0v1638h471v-1638h-471z" />
<glyph unicode="&#xce;" horiz-adv-x="614" d="M-285 1659v307l592 164l592 -164v-307l-592 184zM72 0v1638h471v-1638h-471z" />
<glyph unicode="&#xcf;" horiz-adv-x="614" d="M-160 1884q0 90 53.5 144.5t145.5 54.5q90 0 144.5 -54.5t54.5 -144.5q0 -92 -54.5 -145t-144.5 -53q-92 0 -145.5 53t-53.5 145zM72 0v1638h471v-1638h-471zM377 1884q0 90 53 144.5t145 54.5q90 0 144.5 -54.5t54.5 -144.5q0 -92 -54 -145t-145 -53q-92 0 -145 53 t-53 145z" />
<glyph unicode="&#xd0;" horiz-adv-x="1949" d="M35 635v348h108v655h846q248 0 424 -56t287.5 -161.5t164 -258t52.5 -343.5q0 -190 -52.5 -341.5t-164 -258t-287.5 -163t-424 -56.5h-846v635h-108zM614 348h375q231 0 344 114.5t113 356.5q0 471 -457 471h-375v-307h441v-348h-441v-287z" />
<glyph unicode="&#xd1;" horiz-adv-x="1875" d="M41 0v1638h467l860 -1005v1005h467v-1638h-467l-860 1008v-1008h-467zM406 1718v248q84 84 156.5 121t139 44t127 -9.5t120 -38t118.5 -42t122.5 -21.5t133.5 22.5t147 91.5v-248q-90 -88 -165.5 -127t-141 -46t-124 9.5t-115 40t-113.5 46t-118.5 24.5t-132.5 -21.5 t-154 -93.5z" />
<glyph unicode="&#xd2;" horiz-adv-x="1918" d="M41 819q0 197 59.5 356.5t175 271.5t287.5 172t398 60q225 0 397 -60t287.5 -172t175 -271.5t59.5 -356.5t-59.5 -356.5t-175 -271t-287.5 -172t-397 -60.5t-397.5 60.5t-288 172t-175 271.5t-59.5 356zM414 2105l602 2l487 -395h-465zM512 819q0 -276 113 -394t336 -118 t335.5 118t112.5 394q0 272 -112.5 392t-335.5 120t-336 -119.5t-113 -392.5z" />
<glyph unicode="&#xd3;" horiz-adv-x="1918" d="M41 819q0 197 59.5 356.5t175 271.5t287.5 172t398 60q225 0 397 -60t287.5 -172t175 -271.5t59.5 -356.5t-59.5 -356.5t-175 -271t-287.5 -172t-397 -60.5t-397.5 60.5t-288 172t-175 271.5t-59.5 356zM414 1712l485 395l604 -2l-624 -393h-465zM512 819 q0 -276 113 -394t336 -118t335.5 118t112.5 394q0 272 -112.5 392t-335.5 120t-336 -119.5t-113 -392.5z" />
<glyph unicode="&#xd4;" horiz-adv-x="1918" d="M41 819q0 197 59.5 356.5t175 271.5t287.5 172t398 60q225 0 397 -60t287.5 -172t175 -271.5t59.5 -356.5t-59.5 -356.5t-175 -271t-287.5 -172t-397 -60.5t-397.5 60.5t-288 172t-175 271.5t-59.5 356zM367 1659v307l591 164l592 -164v-307l-592 184zM512 819 q0 -276 113 -394t336 -118t335.5 118t112.5 394q0 272 -112.5 392t-335.5 120t-336 -119.5t-113 -392.5z" />
<glyph unicode="&#xd5;" horiz-adv-x="1918" d="M41 819q0 197 59.5 356.5t175 271.5t287.5 172t398 60q225 0 397 -60t287.5 -172t175 -271.5t59.5 -356.5t-59.5 -356.5t-175 -271t-287.5 -172t-397 -60.5t-397.5 60.5t-288 172t-175 271.5t-59.5 356zM426 1718v248q84 84 156.5 121t139 44t127 -9.5t120 -38t119 -42 t123 -21.5t133 22.5t147.5 91.5v-248q-90 -88 -166 -127t-141.5 -46t-124 9.5t-114.5 40t-113.5 46t-119 24.5t-132 -21.5t-154.5 -93.5zM512 819q0 -276 113 -394t336 -118t335.5 118t112.5 394q0 272 -112.5 392t-335.5 120t-336 -119.5t-113 -392.5z" />
<glyph unicode="&#xd6;" horiz-adv-x="1918" d="M41 819q0 197 59.5 356.5t175 271.5t287.5 172t398 60q225 0 397 -60t287.5 -172t175 -271.5t59.5 -356.5t-59.5 -356.5t-175 -271t-287.5 -172t-397 -60.5t-397.5 60.5t-288 172t-175 271.5t-59.5 356zM492 1884q0 90 53 144.5t145 54.5q90 0 144.5 -54.5t54.5 -144.5 q0 -92 -54.5 -145t-144.5 -53q-92 0 -145 53t-53 145zM512 819q0 -276 113 -394t336 -118t335.5 118t112.5 394q0 272 -112.5 392t-335.5 120t-336 -119.5t-113 -392.5zM1028 1884q0 90 53.5 144.5t145.5 54.5q90 0 144 -54.5t54 -144.5q0 -92 -54 -145t-144 -53 q-92 0 -145.5 53t-53.5 145z" />
<glyph unicode="&#xd7;" horiz-adv-x="1845" d="M172 250l451 469l-451 469h506l244 -316l245 316h506l-450 -469l450 -469h-504l-247 313l-246 -313h-504z" />
<glyph unicode="&#xd8;" horiz-adv-x="1918" d="M41 819q0 197 59.5 356.5t175 271.5t287.5 172t398 60q94 0 179 -11t160 -32l60 84h483l-196 -276q233 -227 233 -625q0 -197 -59.5 -356.5t-175 -271t-287.5 -172t-397 -60.5q-96 0 -181.5 11.5t-163.5 31.5l-59 -84h-483l196 277q-115 113 -172 269.5t-57 354.5z M512 819q0 -145 31 -244l532 746q-57 10 -114 10q-223 0 -336 -120t-113 -392zM842 315q29 -4 57.5 -6t61.5 -2q223 0 335.5 118t112.5 394q0 150 -33 248z" />
<glyph unicode="&#xd9;" horiz-adv-x="1978" d="M41 676v962h471v-962q0 -92 24.5 -161t80 -115t146.5 -69.5t226 -23.5t226.5 23.5t146.5 69.5t79.5 115t24.5 161v962h471v-962q0 -170 -44 -303t-152.5 -225.5t-291.5 -140.5t-460 -48q-276 0 -459.5 48t-292 140.5t-152.5 225.5t-44 303zM444 2105l603 2l487 -395h-465 z" />
<glyph unicode="&#xda;" horiz-adv-x="1978" d="M41 676v962h471v-962q0 -92 24.5 -161t80 -115t146.5 -69.5t226 -23.5t226.5 23.5t146.5 69.5t79.5 115t24.5 161v962h471v-962q0 -170 -44 -303t-152.5 -225.5t-291.5 -140.5t-460 -48q-276 0 -459.5 48t-292 140.5t-152.5 225.5t-44 303zM444 1712l486 395l604 -2 l-625 -393h-465z" />
<glyph unicode="&#xdb;" horiz-adv-x="1978" d="M41 676v962h471v-962q0 -92 24.5 -161t80 -115t146.5 -69.5t226 -23.5t226.5 23.5t146.5 69.5t79.5 115t24.5 161v962h471v-962q0 -170 -44 -303t-152.5 -225.5t-291.5 -140.5t-460 -48q-276 0 -459.5 48t-292 140.5t-152.5 225.5t-44 303zM397 1659v307l592 164 l592 -164v-307l-592 184z" />
<glyph unicode="&#xdc;" horiz-adv-x="1978" d="M41 676v962h471v-962q0 -92 24.5 -161t80 -115t146.5 -69.5t226 -23.5t226.5 23.5t146.5 69.5t79.5 115t24.5 161v962h471v-962q0 -170 -44 -303t-152.5 -225.5t-291.5 -140.5t-460 -48q-276 0 -459.5 48t-292 140.5t-152.5 225.5t-44 303zM522 1884q0 90 53.5 144.5 t145.5 54.5q90 0 144.5 -54.5t54.5 -144.5q0 -92 -54.5 -145t-144.5 -53q-92 0 -145.5 53t-53.5 145zM1059 1884q0 90 53 144.5t145 54.5q90 0 144.5 -54.5t54.5 -144.5q0 -92 -54 -145t-145 -53q-92 0 -145 53t-53 145z" />
<glyph unicode="&#xdd;" horiz-adv-x="1796" d="M-123 1638h537l483 -792l492 792h536l-788 -1165v-473h-471v481zM352 1712l486 395l604 -2l-625 -393h-465z" />
<glyph unicode="&#xde;" horiz-adv-x="1753" d="M41 0v1638h471v-266h414q244 0 400.5 -39t247.5 -110.5t126 -173t35 -226.5t-35 -225t-126 -172t-248 -111t-400 -39h-414v-276h-471zM512 625h414q104 0 169.5 12t102.5 36.5t51.5 62.5t14.5 87t-14.5 86t-51.5 62.5t-102.5 39t-169.5 13.5h-414v-399z" />
<glyph unicode="&#xdf;" horiz-adv-x="1916" d="M102 0v1085q0 94 50.5 176t154 143.5t263 96.5t378.5 35t379 -28.5t263.5 -82t153.5 -129t50 -170.5q0 -125 -87 -210t-271 -132q201 -55 290 -156.5t89 -228.5q0 -96 -52.5 -177t-179.5 -139t-341 -91t-540 -33v348q190 0 314.5 13.5t197 36t101 55t28.5 69.5 q0 72 -95 113t-300 41h-233v287h233q193 0 284 33.5t91 99.5q0 63 -87 98t-288 35q-102 0 -174 -13.5t-116 -37t-64.5 -55t-20.5 -68.5v-1014h-471z" />
<glyph unicode="&#xe0;" horiz-adv-x="1505" d="M10 344q0 106 44 177t118 115t167 65.5t189.5 31.5t189.5 12.5t166.5 6.5t118 15t44.5 38q0 35 -24 60.5t-64.5 43t-95 25.5t-118.5 8q-90 0 -148 -13.5t-93 -35t-49.5 -50t-14.5 -59.5l-409 41q-10 100 21.5 185.5t115.5 148t223 97t346 34.5q213 0 353.5 -36.5 t223.5 -101.5t116.5 -154t33.5 -193v-805h-348l-37 145q-68 -88 -188.5 -137t-288.5 -49q-143 0 -253.5 28.5t-185.5 80t-114 122t-39 154.5zM213 1716l602 2l488 -395h-465zM428 381q0 -14 11.5 -27.5t39 -24t76.5 -16.5t127 -6q86 0 152.5 14.5t112.5 37t71.5 52 t28.5 58.5v88q-49 -41 -115 -59.5t-134.5 -26.5t-135 -10t-118.5 -8.5t-84 -21.5t-32 -50z" />
<glyph unicode="&#xe1;" horiz-adv-x="1505" d="M10 344q0 106 44 177t118 115t167 65.5t189.5 31.5t189.5 12.5t166.5 6.5t118 15t44.5 38q0 35 -24 60.5t-64.5 43t-95 25.5t-118.5 8q-90 0 -148 -13.5t-93 -35t-49.5 -50t-14.5 -59.5l-409 41q-10 100 21.5 185.5t115.5 148t223 97t346 34.5q213 0 353.5 -36.5 t223.5 -101.5t116.5 -154t33.5 -193v-805h-348l-37 145q-68 -88 -188.5 -137t-288.5 -49q-143 0 -253.5 28.5t-185.5 80t-114 122t-39 154.5zM336 1323l485 395l604 -2l-624 -393h-465zM428 381q0 -14 11.5 -27.5t39 -24t76.5 -16.5t127 -6q86 0 152.5 14.5t112.5 37 t71.5 52t28.5 58.5v88q-49 -41 -115 -59.5t-134.5 -26.5t-135 -10t-118.5 -8.5t-84 -21.5t-32 -50z" />
<glyph unicode="&#xe2;" horiz-adv-x="1505" d="M10 344q0 106 44 177t118 115t167 65.5t189.5 31.5t189.5 12.5t166.5 6.5t118 15t44.5 38q0 35 -24 60.5t-64.5 43t-95 25.5t-118.5 8q-90 0 -148 -13.5t-93 -35t-49.5 -50t-14.5 -59.5l-409 41q-10 100 21.5 185.5t115.5 148t223 97t346 34.5q213 0 353.5 -36.5 t223.5 -101.5t116.5 -154t33.5 -193v-805h-348l-37 145q-68 -88 -188.5 -137t-288.5 -49q-143 0 -253.5 28.5t-185.5 80t-114 122t-39 154.5zM166 1270v307l592 164l592 -164v-307l-592 184zM428 381q0 -14 11.5 -27.5t39 -24t76.5 -16.5t127 -6q88 0 156.5 15.5t114.5 39 t70 53t24 60.5v82q-49 -41 -115 -59.5t-134.5 -26.5t-135 -10t-118.5 -8.5t-84 -21.5t-32 -50z" />
<glyph unicode="&#xe3;" horiz-adv-x="1505" d="M10 344q0 106 44 177t118 115t167 65.5t189.5 31.5t189.5 12.5t166.5 6.5t118 15t44.5 38q0 35 -24 60.5t-64.5 43t-95 25.5t-118.5 8q-90 0 -148 -13.5t-93 -35t-49.5 -50t-14.5 -59.5l-409 41q-10 100 21.5 185.5t115.5 148t223 97t346 34.5q213 0 353.5 -36.5 t223.5 -101.5t116.5 -154t33.5 -193v-805h-348l-37 145q-68 -88 -188.5 -137t-288.5 -49q-143 0 -253.5 28.5t-185.5 80t-114 122t-39 154.5zM225 1329v248q84 84 157 121t139.5 44t127 -9.5t119.5 -38t118.5 -42t123 -21.5t133 22.5t147.5 91.5v-248q-90 -88 -165.5 -127 t-141 -46t-124 9.5t-115 40t-114 46t-118.5 24.5t-132 -21.5t-155 -93.5zM428 381q0 -14 11.5 -27.5t39 -24t76.5 -16.5t127 -6q86 0 152.5 14.5t112.5 37t71.5 52t28.5 58.5v88q-49 -41 -115 -59.5t-134.5 -26.5t-135 -10t-118.5 -8.5t-84 -21.5t-32 -50z" />
<glyph unicode="&#xe4;" horiz-adv-x="1505" d="M10 344q0 106 44 177t118 115t167 65.5t189.5 31.5t189.5 12.5t166.5 6.5t118 15t44.5 38q0 35 -24 60.5t-64.5 43t-95 25.5t-118.5 8q-90 0 -148 -13.5t-93 -35t-49.5 -50t-14.5 -59.5l-409 41q-10 100 21.5 185.5t115.5 148t223 97t346 34.5q213 0 353.5 -36.5 t223.5 -101.5t116.5 -154t33.5 -193v-805h-348l-37 145q-68 -88 -188.5 -137t-288.5 -49q-143 0 -253.5 28.5t-185.5 80t-114 122t-39 154.5zM291 1495q0 90 53 144.5t145 54.5q90 0 144.5 -54.5t54.5 -144.5q0 -92 -54 -145.5t-145 -53.5q-92 0 -145 53.5t-53 145.5z M428 381q0 -14 11.5 -27.5t39 -24t76.5 -16.5t127 -6q88 0 156.5 15.5t114.5 39t70 53t24 60.5v82q-49 -41 -115 -59.5t-134.5 -26.5t-135 -10t-118.5 -8.5t-84 -21.5t-32 -50zM827 1495q0 90 53.5 144.5t145.5 54.5q90 0 144.5 -54.5t54.5 -144.5q0 -92 -54.5 -145.5 t-144.5 -53.5q-92 0 -145.5 53.5t-53.5 145.5z" />
<glyph unicode="&#xe5;" horiz-adv-x="1505" d="M10 344q0 106 44 177t118 115t167 65.5t189.5 31.5t189.5 12.5t166.5 6.5t118 15t44.5 38q0 35 -24 60.5t-64.5 43t-95 25.5t-118.5 8q-90 0 -148 -13.5t-93 -35t-49.5 -50t-14.5 -59.5l-409 41q-10 100 21.5 185.5t115.5 148t223 97t346 34.5q213 0 353.5 -36.5 t223.5 -101.5t116.5 -154t33.5 -193v-805h-348l-37 145q-68 -88 -188.5 -137t-288.5 -49q-143 0 -253.5 28.5t-185.5 80t-114 122t-39 154.5zM244 1569q0 51 20.5 97t77.5 82t157.5 57.5t258.5 21.5t258 -21.5t156.5 -57.5t78 -82t21.5 -97q0 -49 -21.5 -96.5t-78 -83 t-156.5 -57t-258 -21.5t-258.5 21.5t-157.5 57t-77.5 83t-20.5 96.5zM428 381q0 -14 11.5 -27.5t39 -24t76.5 -16.5t127 -6q88 0 156.5 15.5t114.5 39t70 53t24 60.5v82q-49 -41 -115 -59.5t-134.5 -26.5t-135 -10t-118.5 -8.5t-84 -21.5t-32 -50zM510 1569 q0 -37 66.5 -58.5t181.5 -21.5t181.5 21.5t66.5 58.5q0 16 -19.5 30.5t-53.5 24.5t-79 16.5t-96 6.5q-115 0 -181.5 -24t-66.5 -54z" />
<glyph unicode="&#xe6;" horiz-adv-x="2652" d="M12 344q0 106 44 177t118 115t167 65.5t189.5 31.5t189.5 12.5t167 6.5t118 15t44 38q0 35 -24 60.5t-64.5 43t-95 25.5t-117.5 8q-90 0 -148.5 -13.5t-93.5 -35t-49.5 -50t-14.5 -59.5l-409 41q-10 100 21.5 185.5t115.5 148t223 97t346 34.5q205 0 341.5 -33.5 t222.5 -95.5q201 129 520 129q383 0 583.5 -169t200.5 -492v-140h-1102q2 -92 83 -137t235 -45q80 0 136 10.5t93 22.5t54.5 25.5t19.5 19.5h471q-51 -201 -254 -313.5t-520 -112.5q-242 0 -415 72.5t-269 214.5q-49 -131 -185.5 -209t-349.5 -78q-143 0 -253.5 28.5 t-185.5 80t-114 122t-39 154.5zM430 381q0 -14 11.5 -27.5t39 -24t76.5 -16.5t127 -6q168 0 261 48t104 106q-4 23 -6.5 44t-6.5 44q-51 -37 -115.5 -54.5t-132 -24.5t-132 -9t-114.5 -8.5t-81 -21.5t-31 -50zM1505 766h631v22q0 61 -72.5 107.5t-240.5 46.5 q-172 0 -244 -46t-74 -110v-20z" />
<glyph unicode="&#xe7;" horiz-adv-x="1609" d="M20 625q0 162 54.5 286.5t157 208.5t248 127t329.5 43q182 0 323.5 -38t239.5 -106.5t151.5 -163.5t59.5 -212l-453 -27q-4 88 -71.5 143.5t-208.5 55.5q-72 0 -137.5 -12t-114.5 -48t-77.5 -97.5t-28.5 -159.5q0 -102 28.5 -164t76.5 -96.5t113.5 -46t139.5 -11.5 q72 0 126 18.5t90 47t54.5 63.5t18.5 70l446 -27q0 -104 -50 -192t-138 -156t-208 -111t-261 -55l8 -47q117 -8 190.5 -31.5t116.5 -58.5t59.5 -77t16.5 -87q0 -49 -21.5 -96t-78 -83t-156.5 -57.5t-258 -21.5t-258.5 21.5t-157.5 57.5t-77.5 83t-20.5 96h266 q0 -37 66.5 -58.5t181.5 -21.5t181.5 21.5t66.5 58.5q0 31 -65.5 53.5t-162.5 24.5h-192l39 225q-154 14 -275 63.5t-204.5 132.5t-128 198.5t-44.5 263.5z" />
<glyph unicode="&#xe8;" horiz-adv-x="1654" d="M41 625q0 162 54.5 286.5t156.5 208.5t247.5 127t329.5 43q383 0 584 -169t201 -492v-140h-1102q2 -92 83 -137t234 -45q80 0 136.5 10.5t93.5 22.5t54 25.5t20 19.5h471q-51 -201 -254 -313.5t-521 -112.5q-184 0 -329.5 43t-247.5 127t-156.5 208t-54.5 288zM283 1716 l602 2l487 -395h-465zM512 766h631v22q0 61 -73 107.5t-241 46.5q-172 0 -243.5 -46t-73.5 -110v-20z" />
<glyph unicode="&#xe9;" horiz-adv-x="1654" d="M41 625q0 162 54.5 286.5t156.5 208.5t247.5 127t329.5 43q383 0 584 -169t201 -492v-140h-1102q2 -92 83 -137t234 -45q80 0 136.5 10.5t93.5 22.5t54 25.5t20 19.5h471q-51 -201 -254 -313.5t-521 -112.5q-184 0 -329.5 43t-247.5 127t-156.5 208t-54.5 288zM283 1323 l485 395l604 -2l-624 -393h-465zM512 766h631v22q0 61 -73 107.5t-241 46.5q-172 0 -243.5 -46t-73.5 -110v-20z" />
<glyph unicode="&#xea;" horiz-adv-x="1654" d="M41 625q0 162 54.5 286.5t156.5 208.5t247.5 127t329.5 43q383 0 584 -169t201 -492v-140h-1102q2 -92 83 -137t234 -45q80 0 136.5 10.5t93.5 22.5t54 25.5t20 19.5h471q-51 -201 -254 -313.5t-521 -112.5q-184 0 -329.5 43t-247.5 127t-156.5 208t-54.5 288zM236 1270 v307l591 164l592 -164v-307l-592 184zM512 766h631v22q0 61 -73 107.5t-241 46.5q-172 0 -243.5 -46t-73.5 -110v-20z" />
<glyph unicode="&#xeb;" horiz-adv-x="1654" d="M41 625q0 162 54.5 286.5t156.5 208.5t247.5 127t329.5 43q383 0 584 -169t201 -492v-140h-1102q2 -92 83 -137t234 -45q80 0 136.5 10.5t93.5 22.5t54 25.5t20 19.5h471q-51 -201 -254 -313.5t-521 -112.5q-184 0 -329.5 43t-247.5 127t-156.5 208t-54.5 288zM360 1495 q0 90 53.5 144.5t145.5 54.5q90 0 144.5 -54.5t54.5 -144.5q0 -92 -54.5 -145.5t-144.5 -53.5q-92 0 -145.5 53.5t-53.5 145.5zM512 766h631v22q0 61 -73 107.5t-241 46.5q-172 0 -243.5 -46t-73.5 -110v-20zM897 1495q0 90 53.5 144.5t145.5 54.5q90 0 144 -54.5t54 -144.5 q0 -92 -54 -145.5t-144 -53.5q-92 0 -145.5 53.5t-53.5 145.5z" />
<glyph unicode="&#xec;" horiz-adv-x="663" d="M-385 1716l602 2l488 -395h-465zM96 0v1249h471v-1249h-471z" />
<glyph unicode="&#xed;" horiz-adv-x="663" d="M-49 1323l485 395l604 -2l-624 -393h-465zM96 0v1249h471v-1249h-471z" />
<glyph unicode="&#xee;" horiz-adv-x="663" d="M-260 1270v307l592 164l592 -164v-307l-592 184zM96 0v1249h471v-1249h-471z" />
<glyph unicode="&#xef;" horiz-adv-x="663" d="M-135 1495q0 90 53 144.5t145 54.5q90 0 144.5 -54.5t54.5 -144.5q0 -92 -54 -145.5t-145 -53.5q-92 0 -145 53.5t-53 145.5zM96 0v1249h471v-1249h-471zM401 1495q0 90 53.5 144.5t145.5 54.5q90 0 144.5 -54.5t54.5 -144.5q0 -92 -54.5 -145.5t-144.5 -53.5 q-92 0 -145.5 53.5t-53.5 145.5z" />
<glyph unicode="&#xf0;" horiz-adv-x="1697" d="M20 625q0 158 60.5 278.5t158 201.5t220.5 120t250 30.5t245.5 -64.5t206.5 -165q-29 98 -84 178t-147 137l-438 -67l-82 135l122 41q-23 2 -44 3t-44 1v205q147 0 273.5 -16.5t236.5 -47.5l359 125l190 -288l-160 -25q176 -141 256 -344t80 -438q0 -145 -51 -267 t-154.5 -210.5t-259 -138.5t-364.5 -50t-364.5 50t-259 138.5t-155 210t-51.5 267.5zM492 625q0 -166 95 -242t263 -76t263 76t95 242v16q-4 154 -99 227.5t-259 73.5q-168 0 -263 -77t-95 -240z" />
<glyph unicode="&#xf1;" horiz-adv-x="1642" d="M41 0v1249h379l53 -153q70 92 196 143t324 51q315 0 462 -142t147 -433v-715h-472v715q0 55 -14 97t-51 71.5t-99.5 44t-156.5 14.5q-80 0 -136.5 -13.5t-91 -35t-51 -51t-18.5 -60.5v-782h-471zM289 1329v248q84 84 156.5 121t139 44t127 -9.5t120 -38t119 -42 t123 -21.5t133 22.5t147.5 91.5v-248q-90 -88 -166 -127t-141.5 -46t-124 9.5t-114.5 40t-113.5 46t-119 24.5t-132 -21.5t-154.5 -93.5z" />
<glyph unicode="&#xf2;" horiz-adv-x="1699" d="M20 625q0 145 51.5 267t155 211t259 138t364.5 49t364.5 -49t259 -138t154.5 -211t51 -267t-51 -267t-154.5 -210.5t-259 -138.5t-364.5 -50t-364.5 50t-259 138.5t-155 210t-51.5 267.5zM305 1716l602 2l488 -395h-465zM492 625q0 -166 95 -242t263 -76t263 76t95 242 q0 164 -95 240.5t-263 76.5t-263 -77t-95 -240z" />
<glyph unicode="&#xf3;" horiz-adv-x="1699" d="M20 625q0 145 51.5 267t155 211t259 138t364.5 49t364.5 -49t259 -138t154.5 -211t51 -267t-51 -267t-154.5 -210.5t-259 -138.5t-364.5 -50t-364.5 50t-259 138.5t-155 210t-51.5 267.5zM401 1323l486 395l604 -2l-625 -393h-465zM492 625q0 -166 95 -242t263 -76 t263 76t95 242q0 164 -95 240.5t-263 76.5t-263 -77t-95 -240z" />
<glyph unicode="&#xf4;" horiz-adv-x="1699" d="M20 625q0 145 51.5 267t155 211t259 138t364.5 49t364.5 -49t259 -138t154.5 -211t51 -267t-51 -267t-154.5 -210.5t-259 -138.5t-364.5 -50t-364.5 50t-259 138.5t-155 210t-51.5 267.5zM258 1270v307l592 164l592 -164v-307l-592 184zM492 625q0 -166 95 -242t263 -76 t263 76t95 242q0 164 -95 240.5t-263 76.5t-263 -77t-95 -240z" />
<glyph unicode="&#xf5;" horiz-adv-x="1699" d="M20 625q0 145 51.5 267t155 211t259 138t364.5 49t364.5 -49t259 -138t154.5 -211t51 -267t-51 -267t-154.5 -210.5t-259 -138.5t-364.5 -50t-364.5 50t-259 138.5t-155 210t-51.5 267.5zM317 1329v248q84 84 157 121t139.5 44t127 -9.5t120 -38t118.5 -42t122.5 -21.5 t133.5 22.5t147 91.5v-248q-90 -88 -165.5 -127t-141 -46t-124 9.5t-115 40t-113.5 46t-118.5 24.5t-132.5 -21.5t-155 -93.5zM492 625q0 -166 95 -242t263 -76t263 76t95 242q0 164 -95 240.5t-263 76.5t-263 -77t-95 -240z" />
<glyph unicode="&#xf6;" horiz-adv-x="1699" d="M20 625q0 145 51.5 267t155 211t259 138t364.5 49t364.5 -49t259 -138t154.5 -211t51 -267t-51 -267t-154.5 -210.5t-259 -138.5t-364.5 -50t-364.5 50t-259 138.5t-155 210t-51.5 267.5zM383 1495q0 90 53 144.5t146 54.5q90 0 144 -54.5t54 -144.5q0 -92 -54 -145.5 t-144 -53.5q-92 0 -145.5 53.5t-53.5 145.5zM492 625q0 -166 95 -242t263 -76t263 76t95 242q0 164 -95 240.5t-263 76.5t-263 -77t-95 -240zM920 1495q0 90 53 144.5t145 54.5q90 0 144.5 -54.5t54.5 -144.5q0 -92 -54.5 -145.5t-144.5 -53.5q-92 0 -145 53.5t-53 145.5z " />
<glyph unicode="&#xf7;" horiz-adv-x="1705" d="M102 545v348h1502v-348h-1502zM596 240q0 117 70.5 188.5t189.5 71.5q117 0 188.5 -72t71.5 -188q0 -119 -71.5 -189.5t-188.5 -70.5q-119 0 -189.5 70.5t-70.5 189.5zM596 1202q0 117 70.5 188.5t189.5 71.5q117 0 188.5 -71.5t71.5 -188.5q0 -119 -71.5 -189.5 t-188.5 -70.5q-119 0 -189.5 70.5t-70.5 189.5z" />
<glyph unicode="&#xf8;" horiz-adv-x="1699" d="M-27 -82l228 252q-92 88 -136.5 202.5t-44.5 252.5q0 145 51.5 267t155 211t259 138t364.5 49q92 0 174 -10t154 -29l53 60h495l-219 -242q86 -86 129 -198.5t43 -245.5q0 -145 -51 -267t-154.5 -210.5t-259 -138.5t-364.5 -50q-88 0 -166 10.5t-145 26.5l-70 -78h-496z M492 625q0 -72 14 -117l391 432q-12 0 -23.5 1t-23.5 1q-168 0 -263 -76.5t-95 -240.5zM821 307h29q168 0 263 76t95 242q0 55 -12 98z" />
<glyph unicode="&#xf9;" horiz-adv-x="1642" d="M41 535v714h471v-714q0 -49 13.5 -91.5t49 -73t98 -47t161.5 -16.5q76 0 131 13.5t92 36t54 51t19 59.5v782h472v-1249h-379l-54 154q-70 -92 -195.5 -143.5t-324.5 -51.5q-315 0 -461.5 142.5t-146.5 433.5zM276 1716l603 2l487 -395h-465z" />
<glyph unicode="&#xfa;" horiz-adv-x="1642" d="M41 535v714h471v-714q0 -49 13.5 -91.5t49 -73t98 -47t161.5 -16.5q76 0 131 13.5t92 36t54 51t19 59.5v782h472v-1249h-379l-54 154q-70 -92 -195.5 -143.5t-324.5 -51.5q-315 0 -461.5 142.5t-146.5 433.5zM406 1323l485 395l604 -2l-625 -393h-464z" />
<glyph unicode="&#xfb;" horiz-adv-x="1642" d="M41 535v714h471v-714q0 -49 13.5 -91.5t49 -73t98 -47t161.5 -16.5q78 0 134 14.5t92 38t53 53t17 60.5v776h472v-1249h-379l-54 154q-70 -92 -195.5 -143.5t-324.5 -51.5q-315 0 -461.5 142.5t-146.5 433.5zM229 1270v307l592 164l592 -164v-307l-592 184z" />
<glyph unicode="&#xfc;" horiz-adv-x="1642" d="M41 535v714h471v-714q0 -49 13.5 -91.5t49 -73t98 -47t161.5 -16.5q76 0 131 13.5t92 36t54 51t19 59.5v782h472v-1249h-379l-54 154q-70 -92 -195.5 -143.5t-324.5 -51.5q-315 0 -461.5 142.5t-146.5 433.5zM354 1495q0 90 53.5 144.5t145.5 54.5q90 0 144.5 -54.5 t54.5 -144.5q0 -92 -54.5 -145.5t-144.5 -53.5q-92 0 -145.5 53.5t-53.5 145.5zM891 1495q0 90 53 144.5t146 54.5q90 0 144 -54.5t54 -144.5q0 -92 -54 -145.5t-144 -53.5q-92 0 -145.5 53.5t-53.5 145.5z" />
<glyph unicode="&#xfd;" horiz-adv-x="1689" d="M-41 1249h494l387 -674l-2 -131l409 805h486l-883 -1679h-455l264 522zM522 1323l486 395l604 -2l-625 -393h-465z" />
<glyph unicode="&#xfe;" horiz-adv-x="1662" d="M41 -430v2089h471v-539q84 90 206 130t263 40q160 0 286 -46t214 -133t135 -209.5t47 -276.5t-53.5 -277t-145.5 -210t-216 -133t-267 -46q-141 0 -263 39t-206 129v-557h-471zM512 516q0 -57 35 -97t86 -64.5t111.5 -36t113.5 -11.5q154 0 244 82t90 236t-90 235.5 t-244 81.5q-51 0 -110.5 -11t-110.5 -36t-86 -62.5t-39 -89.5v-227z" />
<glyph unicode="&#xff;" horiz-adv-x="1689" d="M-41 1249h494l387 -674l-2 -131l409 805h486l-883 -1679h-455l264 522zM377 1495q0 90 53 144.5t145 54.5q90 0 144.5 -54.5t54.5 -144.5q0 -92 -54 -145.5t-145 -53.5q-92 0 -145 53.5t-53 145.5zM913 1495q0 90 53.5 144.5t145.5 54.5q90 0 144.5 -54.5t54.5 -144.5 q0 -92 -54.5 -145.5t-144.5 -53.5q-92 0 -145.5 53.5t-53.5 145.5z" />
<glyph unicode="&#x152;" horiz-adv-x="2947" d="M41 819q0 197 51 356.5t149.5 271.5t241 172t326.5 60q219 0 365.5 -59t236.5 -174v192h1479v-348h-1008v-246h864v-348h-864v-348h1028v-348h-1499v193q-90 -115 -236.5 -174.5t-365.5 -59.5q-184 0 -326.5 60.5t-241 172t-149.5 271.5t-51 356zM512 819 q0 -276 113 -394t336 -118t335.5 118t112.5 394q0 272 -112.5 392t-335.5 120t-336 -119.5t-113 -392.5z" />
<glyph unicode="&#x153;" horiz-adv-x="2824" d="M20 625q0 145 51.5 267t155 211t259 138t364.5 49q217 0 361.5 -53t232.5 -147q82 98 218 149t337 51q383 0 583.5 -169t200.5 -492v-140h-1102q2 -92 83 -137t235 -45q80 0 136 10.5t93 22.5t54.5 25.5t19.5 19.5h471q-51 -201 -254 -313.5t-520 -112.5q-203 0 -338 50 t-217 151q-88 -94 -232.5 -147.5t-361.5 -53.5q-209 0 -364.5 50t-259 138.5t-155 210t-51.5 267.5zM492 625q0 -166 95 -242t263 -76t263 76t95 242q0 164 -95 240.5t-263 76.5t-263 -77t-95 -240zM1681 766h631v22q0 61 -72.5 107.5t-240.5 46.5q-172 0 -244 -46t-74 -110 v-20z" />
<glyph unicode="&#x178;" horiz-adv-x="1796" d="M-123 1638h537l483 -792l492 792h536l-788 -1165v-473h-471v481zM430 1884q0 90 53.5 144.5t145.5 54.5q90 0 144 -54.5t54 -144.5q0 -92 -54 -145t-144 -53q-92 0 -145.5 53t-53.5 145zM967 1884q0 90 53 144.5t145 54.5q90 0 144.5 -54.5t54.5 -144.5q0 -92 -54.5 -145 t-144.5 -53q-92 0 -145 53t-53 145z" />
<glyph unicode="&#x2c6;" horiz-adv-x="1247" d="M20 1270v307l592 164l592 -164v-307l-592 184z" />
<glyph unicode="&#x2dc;" horiz-adv-x="1456" d="M219 1329v248q84 84 157 121t139.5 44t126.5 -9.5t119.5 -38t119 -42t123 -21.5t133 22.5t147.5 91.5v-248q-90 -88 -166 -127t-141.5 -46t-123.5 9.5t-114.5 40t-114 46t-119 24.5t-132 -21.5t-154.5 -93.5z" />
<glyph unicode="&#x2000;" horiz-adv-x="1108" />
<glyph unicode="&#x2001;" horiz-adv-x="2216" />
<glyph unicode="&#x2002;" horiz-adv-x="1108" />
<glyph unicode="&#x2003;" horiz-adv-x="2216" />
<glyph unicode="&#x2004;" horiz-adv-x="738" />
<glyph unicode="&#x2005;" horiz-adv-x="554" />
<glyph unicode="&#x2006;" horiz-adv-x="369" />
<glyph unicode="&#x2007;" horiz-adv-x="369" />
<glyph unicode="&#x2008;" horiz-adv-x="277" />
<glyph unicode="&#x2009;" horiz-adv-x="443" />
<glyph unicode="&#x200a;" horiz-adv-x="123" />
<glyph unicode="&#x2010;" horiz-adv-x="1411" d="M205 471v348h1001v-348h-1001z" />
<glyph unicode="&#x2011;" horiz-adv-x="1411" d="M205 471v348h1001v-348h-1001z" />
<glyph unicode="&#x2012;" horiz-adv-x="1411" d="M205 471v348h1001v-348h-1001z" />
<glyph unicode="&#x2013;" horiz-adv-x="2207" d="M102 471v348h2003v-348h-2003z" />
<glyph unicode="&#x2014;" horiz-adv-x="3209" d="M102 471v348h3005v-348h-3005z" />
<glyph unicode="&#x2018;" horiz-adv-x="825" d="M163.5 1328q26.5 130 141.5 319h238q-25 -55 -34 -98.5t-5 -75.5q82 -25 126 -91.5t44 -156.5q0 -51 -17.5 -98.5t-51.5 -83t-82 -57t-109 -21.5q-80 0 -149.5 35.5t-98.5 116.5t-2.5 211z" />
<glyph unicode="&#x2019;" horiz-adv-x="825" d="M150 1386q0 51 17 98.5t51 83.5t82 57.5t110 21.5q80 0 149.5 -36t98 -117t1 -211t-140.5 -318h-237q25 55 34 98t4 76q-82 25 -125.5 91t-43.5 156z" />
<glyph unicode="&#x201a;" horiz-adv-x="825" d="M150 158q0 51 17 98t51 83t82 57.5t110 21.5q80 0 149.5 -36t98 -117t1 -211t-140.5 -318h-237q25 55 34 98t4 76q-82 25 -125.5 91.5t-43.5 156.5z" />
<glyph unicode="&#x201c;" horiz-adv-x="1388" d="M163.5 1328q26.5 130 141.5 319h238q-25 -55 -34 -98.5t-5 -75.5q82 -25 126 -91.5t44 -156.5q0 -51 -17.5 -98.5t-51.5 -83t-82 -57t-109 -21.5q-80 0 -149.5 35.5t-98.5 116.5t-2.5 211zM737.5 1328q26.5 130 141.5 319h237q-25 -55 -34 -98.5t-5 -75.5 q82 -25 126 -91.5t44 -156.5q0 -51 -17.5 -98.5t-51 -83t-81.5 -57t-110 -21.5q-80 0 -149.5 35.5t-98 116.5t-2 211z" />
<glyph unicode="&#x201d;" horiz-adv-x="1388" d="M150 1386q0 51 17 98.5t51 83.5t82 57.5t110 21.5q80 0 149.5 -36t98 -117t1 -211t-140.5 -318h-237q25 55 34 98t4 76q-82 25 -125.5 91t-43.5 156zM723 1386q0 51 17.5 98.5t51 83.5t82 57.5t109.5 21.5q80 0 149.5 -36t98.5 -117t1 -211t-140 -318h-238q25 55 34 98 t5 76q-82 25 -126 91t-44 156z" />
<glyph unicode="&#x201e;" horiz-adv-x="1388" d="M150 158q0 51 17 98t51 83t82 57.5t110 21.5q80 0 149.5 -36t98 -117t1 -211t-140.5 -318h-237q25 55 34 98t4 76q-82 25 -125.5 91.5t-43.5 156.5zM723 158q0 51 17.5 98t51 83t82 57.5t109.5 21.5q80 0 149.5 -36t98.5 -117t1 -211t-140 -318h-238q25 55 34 98t5 76 q-82 25 -126 91.5t-44 156.5z" />
<glyph unicode="&#x2022;" horiz-adv-x="1632" d="M473 670q0 76 24.5 140t69.5 109.5t109.5 71t142.5 25.5q76 0 140.5 -25.5t109.5 -71t70.5 -110t25.5 -139.5q0 -78 -25.5 -142.5t-70.5 -109.5t-109.5 -69.5t-140.5 -24.5q-158 0 -252 94t-94 252z" />
<glyph unicode="&#x2026;" horiz-adv-x="2107" d="M150 260q0 117 70.5 188.5t189.5 71.5q117 0 188.5 -71.5t71.5 -188.5q0 -119 -72 -189.5t-188 -70.5q-119 0 -189.5 70.5t-70.5 189.5zM799 260q0 117 70.5 188.5t189.5 71.5q117 0 188.5 -71.5t71.5 -188.5q0 -119 -71.5 -189.5t-188.5 -70.5q-119 0 -189.5 70.5 t-70.5 189.5zM1448 260q0 117 70.5 188.5t189.5 71.5q117 0 188.5 -71.5t71.5 -188.5q0 -119 -71.5 -189.5t-188.5 -70.5q-119 0 -189.5 70.5t-70.5 189.5z" />
<glyph unicode="&#x202f;" horiz-adv-x="443" />
<glyph unicode="&#x2039;" horiz-adv-x="1845" d="M254 678l627 469h678l-676 -469l676 -469h-678z" />
<glyph unicode="&#x203a;" horiz-adv-x="1845" d="M254 209l676 469l-676 469h678l627 -469l-627 -469h-678z" />
<glyph unicode="&#x205f;" horiz-adv-x="554" />
<glyph unicode="&#x20ac;" horiz-adv-x="1937" d="M-59 451v233h92q0 8 -1 15.5t-1 17.5h-90v231h110q31 147 110 254t198.5 175.5t278.5 101t351 32.5q201 0 369 -40.5t288.5 -112.5t187.5 -168t67 -207l-471 -37q0 63 -32 110.5t-90.5 79t-139.5 47t-179 15.5q-356 0 -452 -250h536v-231h-571q0 -23 2 -33h569v-233h-500 q117 -174 416 -175q100 0 182 18.5t139.5 52.5t89.5 83t32 111l471 -37q0 -113 -67 -211t-187.5 -172t-288.5 -116t-371 -42q-180 0 -330.5 27.5t-267.5 87t-197.5 152t-121.5 221.5h-131z" />
<glyph unicode="&#x2122;" horiz-adv-x="3135" d="M102 1290v348h1131v-348h-322v-676h-471v676h-338zM1274 614v1024h581l183 -432l33 -108l30 108l199 432h586v-1024h-402v650l-84 -213l-145 -338h-371l-137 325l-96 236v-660h-377z" />
<glyph unicode="&#x25fc;" horiz-adv-x="1249" d="M0 0v1249h1249v-1249h-1249z" />
</font>
</defs>
</svg>
